<svg id="svg" version="1.1" xmlns="http://www.w3.org/2000/svg" xmlns:xlink="http://www.w3.org/1999/xlink" width="400" height="418.7793427230047" viewBox="0, 0, 400,418.7793427230047"><g id="svgg"><path id="path0" d="M294.000 189.600 C 294.235 190.040,294.630 190.400,294.876 190.400 C 295.122 190.400,294.998 190.040,294.600 189.600 C 294.202 189.160,293.808 188.800,293.724 188.800 C 293.640 188.800,293.765 189.160,294.000 189.600 M311.200 208.054 C 311.530 208.354,312.059 208.870,312.375 209.200 C 312.821 209.665,312.814 209.580,312.341 208.822 C 312.006 208.284,311.477 207.768,311.166 207.676 C 310.710 207.541,310.717 207.615,311.200 208.054 M204.223 215.833 C 203.574 216.307,203.554 216.400,204.100 216.400 C 204.459 216.400,204.871 216.208,205.016 215.973 C 205.440 215.287,205.061 215.220,204.223 215.833 M238.629 229.029 C 238.262 229.395,238.052 229.785,238.162 229.895 C 238.272 230.005,238.662 229.795,239.029 229.429 C 239.395 229.062,239.605 228.672,239.495 228.562 C 239.385 228.452,238.995 228.662,238.629 229.029 M329.600 228.702 C 329.600 228.922,329.870 229.326,330.200 229.600 C 330.535 229.878,330.800 229.921,330.800 229.698 C 330.800 229.478,330.530 229.074,330.200 228.800 C 329.865 228.522,329.600 228.479,329.600 228.702 M218.000 253.400 C 217.717 253.741,217.576 254.109,217.686 254.219 C 217.796 254.329,218.117 254.141,218.400 253.800 C 218.683 253.459,218.824 253.091,218.714 252.981 C 218.604 252.871,218.283 253.059,218.000 253.400 M382.400 287.400 C 382.674 287.730,383.078 288.000,383.298 288.000 C 383.521 288.000,383.478 287.735,383.200 287.400 C 382.926 287.070,382.522 286.800,382.302 286.800 C 382.079 286.800,382.122 287.065,382.400 287.400 M122.076 310.685 C 121.567 310.783,121.053 311.118,120.933 311.431 C 120.813 311.744,120.366 312.000,119.940 312.000 C 119.514 312.000,118.194 313.035,117.006 314.300 C 115.819 315.565,114.477 316.979,114.024 317.442 C 113.571 317.905,113.200 318.478,113.200 318.715 C 113.200 318.952,112.859 319.254,112.443 319.386 C 112.027 319.518,111.590 319.994,111.473 320.443 C 111.355 320.892,110.886 321.357,110.430 321.476 C 109.943 321.604,109.600 322.020,109.600 322.484 C 109.600 322.938,109.260 323.364,108.800 323.484 C 108.360 323.599,108.000 323.864,108.000 324.074 C 108.000 324.555,102.711 330.800,102.303 330.800 C 102.136 330.800,102.000 330.990,102.000 331.223 C 102.000 331.456,101.190 332.445,100.200 333.421 C 99.210 334.397,98.400 335.372,98.400 335.588 C 98.400 335.805,97.950 336.276,97.400 336.637 C 96.850 336.997,96.400 337.529,96.400 337.819 C 96.400 338.109,96.040 338.460,95.600 338.600 C 95.160 338.740,94.800 339.032,94.800 339.249 C 94.800 339.693,90.067 345.322,89.508 345.542 C 89.310 345.620,88.984 346.115,88.784 346.642 C 88.584 347.169,88.174 347.600,87.874 347.600 C 87.574 347.600,87.123 348.050,86.873 348.600 C 86.622 349.150,86.229 349.600,85.999 349.600 C 85.769 349.600,85.409 350.050,85.200 350.600 C 84.991 351.150,84.545 351.600,84.210 351.600 C 83.874 351.600,83.600 351.740,83.600 351.911 C 83.600 352.380,80.400 356.554,79.760 356.920 C 79.452 357.096,79.200 357.412,79.200 357.622 C 79.200 357.832,78.426 358.769,77.480 359.702 C 76.534 360.636,75.640 361.715,75.493 362.100 C 75.345 362.485,74.949 362.800,74.613 362.800 C 74.276 362.800,74.000 363.066,74.000 363.391 C 74.000 363.716,73.550 364.276,73.000 364.637 C 72.450 364.997,72.000 365.476,72.000 365.700 C 72.000 365.925,71.595 366.505,71.100 366.990 C 70.605 367.474,69.660 368.549,69.000 369.379 C 68.340 370.208,67.395 371.327,66.900 371.864 C 66.405 372.401,66.000 373.000,66.000 373.194 C 66.000 373.387,65.640 373.660,65.200 373.800 C 64.760 373.940,64.400 374.291,64.400 374.581 C 64.400 374.871,63.950 375.403,63.400 375.763 C 62.850 376.124,62.400 376.672,62.400 376.982 C 62.400 377.292,62.040 377.660,61.600 377.800 C 61.160 377.940,60.800 378.246,60.800 378.481 C 60.800 378.716,60.395 379.312,59.900 379.805 C 58.858 380.844,57.424 382.524,56.000 384.373 C 55.450 385.088,54.180 386.514,53.178 387.543 C 52.177 388.572,51.237 389.726,51.091 390.107 C 50.945 390.488,50.549 390.800,50.213 390.800 C 49.876 390.800,49.600 391.066,49.600 391.391 C 49.600 391.716,49.169 392.264,48.642 392.609 C 48.115 392.955,47.592 393.589,47.479 394.019 C 47.367 394.448,46.988 394.800,46.637 394.800 C 46.287 394.800,46.000 395.001,46.000 395.247 C 46.000 395.493,45.505 396.276,44.900 396.986 C 44.295 397.696,43.350 398.855,42.800 399.560 C 42.250 400.266,40.945 401.757,39.900 402.873 C 38.855 403.989,38.000 405.048,38.000 405.224 C 38.000 405.401,37.640 405.660,37.200 405.800 C 36.760 405.940,36.400 406.308,36.400 406.618 C 36.400 406.928,35.950 407.476,35.400 407.837 C 34.850 408.197,34.395 408.696,34.389 408.946 C 34.383 409.196,33.483 410.369,32.389 411.553 C 31.295 412.738,30.400 413.857,30.400 414.039 C 30.400 414.569,29.143 415.090,27.236 415.352 C 25.375 415.608,24.666 415.990,25.500 416.288 C 25.775 416.386,26.000 416.642,26.000 416.857 C 26.000 417.072,25.792 417.119,25.538 416.962 C 25.284 416.805,25.182 416.848,25.311 417.057 C 25.753 417.772,233.156 417.516,233.608 416.800 C 233.898 416.342,233.989 416.328,233.994 416.740 C 233.999 417.180,235.582 417.254,242.600 417.140 C 247.330 417.063,251.200 417.135,251.200 417.300 C 251.200 417.465,255.700 417.600,261.200 417.600 C 267.600 417.600,271.200 417.456,271.200 417.200 C 271.200 416.950,274.091 416.767,278.900 416.713 L 286.600 416.626 278.800 416.409 L 271.000 416.191 278.862 415.995 C 283.187 415.888,286.664 415.899,286.589 416.019 C 286.514 416.140,286.618 416.500,286.820 416.819 C 287.058 417.195,287.190 417.229,287.194 416.914 C 287.197 416.647,287.605 416.232,288.100 415.992 C 288.929 415.590,288.943 415.602,288.276 416.140 C 287.740 416.572,287.679 416.802,288.041 417.025 C 288.332 417.205,288.812 416.979,289.229 416.464 L 289.928 415.600 329.764 415.600 C 367.419 415.600,369.602 415.562,369.646 414.900 C 369.671 414.515,369.750 413.699,369.823 413.087 C 369.957 411.949,368.678 410.355,363.500 405.208 C 362.455 404.170,361.600 403.113,361.600 402.860 C 361.600 402.607,361.326 402.400,360.991 402.400 C 360.657 402.400,360.185 401.965,359.943 401.434 C 359.701 400.903,359.164 400.379,358.751 400.271 C 358.318 400.158,358.000 399.720,358.000 399.237 C 358.000 398.777,357.793 398.400,357.540 398.400 C 357.008 398.400,354.400 395.812,354.400 395.284 C 354.400 395.088,353.950 394.723,353.400 394.473 C 352.850 394.222,352.400 393.743,352.400 393.409 C 352.400 393.074,352.126 392.800,351.791 392.800 C 351.457 392.800,350.978 392.350,350.727 391.800 C 350.477 391.250,350.025 390.800,349.723 390.800 C 349.422 390.800,349.060 390.501,348.920 390.135 C 348.779 389.769,347.030 387.810,345.032 385.782 C 343.034 383.754,340.529 381.129,339.464 379.947 C 338.399 378.766,336.224 376.450,334.631 374.800 C 333.038 373.150,331.620 371.485,331.480 371.100 C 331.340 370.715,330.949 370.400,330.613 370.400 C 330.276 370.400,330.000 370.210,330.000 369.977 C 330.000 369.745,329.100 368.692,328.000 367.637 C 326.900 366.583,326.000 365.513,326.000 365.260 C 326.000 365.007,325.726 364.800,325.391 364.800 C 325.057 364.800,324.578 364.350,324.327 363.800 C 324.077 363.250,323.626 362.800,323.326 362.800 C 323.026 362.800,322.609 362.350,322.400 361.800 C 322.191 361.250,321.757 360.800,321.437 360.800 C 321.116 360.800,320.743 360.449,320.606 360.020 C 320.470 359.592,320.008 359.130,319.580 358.994 C 319.151 358.857,318.800 358.588,318.800 358.395 C 318.800 358.202,317.900 357.158,316.800 356.076 C 315.700 354.993,314.800 353.903,314.800 353.653 C 314.800 353.404,314.526 353.200,314.190 353.200 C 313.855 353.200,313.409 352.750,313.200 352.200 C 312.991 351.650,312.545 351.200,312.210 351.200 C 311.874 351.200,311.600 351.020,311.600 350.800 C 311.600 350.580,310.655 349.449,309.500 348.288 C 305.180 343.943,298.187 336.319,297.839 335.573 C 297.640 335.148,297.218 334.800,296.901 334.800 C 296.584 334.800,296.227 334.426,296.108 333.969 C 295.988 333.512,295.465 332.977,294.945 332.779 C 294.425 332.582,294.000 332.157,294.000 331.837 C 294.000 331.516,293.640 331.140,293.200 331.000 C 292.760 330.860,292.400 330.509,292.400 330.219 C 292.400 329.929,291.950 329.397,291.400 329.037 C 290.850 328.676,290.400 328.137,290.400 327.837 C 290.400 327.538,290.027 327.196,289.570 327.076 C 289.114 326.957,288.643 326.486,288.524 326.030 C 288.404 325.573,288.041 325.200,287.716 325.200 C 287.391 325.200,287.037 324.862,286.929 324.449 C 286.821 324.036,286.297 323.499,285.766 323.257 C 285.235 323.015,284.800 322.555,284.800 322.236 C 284.800 321.916,284.440 321.540,284.000 321.400 C 283.560 321.260,283.200 321.004,283.200 320.830 C 283.200 320.656,281.425 318.688,279.255 316.457 C 275.318 312.408,275.307 312.400,273.355 312.398 C 270.943 312.395,268.307 311.701,267.880 310.957 C 267.573 310.421,124.852 310.155,122.076 310.685 M386.400 371.000 C 386.117 371.341,385.976 371.709,386.086 371.819 C 386.196 371.929,386.517 371.741,386.800 371.400 C 387.083 371.059,387.224 370.691,387.114 370.581 C 387.004 370.471,386.683 370.659,386.400 371.000 " stroke="none" fill="#6404cc" fill-rule="evenodd"></path><path id="path1" d="M145.600 78.400 L 145.600 156.800 144.744 156.800 C 144.273 156.800,143.630 157.115,143.314 157.500 C 142.999 157.885,142.872 157.947,143.032 157.638 C 143.219 157.278,143.164 157.175,142.879 157.351 C 142.635 157.502,142.530 157.874,142.647 158.177 C 142.775 158.511,142.414 158.941,141.733 159.268 C 141.114 159.565,140.372 160.299,140.083 160.900 C 139.795 161.502,139.209 162.181,138.780 162.411 C 138.351 162.640,138.000 163.192,138.000 163.638 C 138.000 164.083,137.836 164.346,137.636 164.222 C 137.025 163.845,135.940 164.467,136.169 165.064 C 136.303 165.414,135.993 165.774,135.348 166.020 C 134.582 166.311,134.365 166.622,134.518 167.207 C 134.724 167.997,134.445 168.158,133.103 168.021 C 132.680 167.979,132.482 168.157,132.599 168.475 C 132.865 169.201,132.353 169.878,131.400 170.059 C 130.960 170.143,130.578 170.433,130.550 170.705 C 130.523 170.977,130.478 171.410,130.450 171.667 C 130.422 171.923,130.289 172.022,130.152 171.886 C 129.863 171.596,128.800 172.568,128.800 173.122 C 128.800 173.842,127.702 174.488,127.451 173.917 C 127.326 173.633,127.263 173.754,127.312 174.186 C 127.372 174.724,126.988 175.169,126.093 175.599 C 125.067 176.092,124.891 176.331,125.273 176.713 C 125.656 177.096,125.571 177.200,124.880 177.200 C 124.084 177.200,123.802 177.608,123.963 178.530 C 123.994 178.711,123.851 178.755,123.644 178.627 C 123.437 178.500,123.205 178.586,123.127 178.819 C 123.049 179.053,122.629 179.296,122.193 179.360 C 121.655 179.439,121.399 179.786,121.398 180.438 C 121.396 181.170,121.189 181.389,120.531 181.355 C 119.912 181.323,119.734 181.483,119.902 181.921 C 120.055 182.320,119.974 182.431,119.668 182.242 C 119.386 182.067,119.200 182.205,119.200 182.589 C 119.200 182.939,118.920 183.333,118.577 183.464 C 118.234 183.596,118.048 183.948,118.163 184.247 C 118.277 184.546,118.161 184.748,117.904 184.695 C 117.647 184.643,117.406 184.825,117.368 185.100 C 117.331 185.375,117.278 185.712,117.250 185.849 C 117.223 185.986,116.895 185.851,116.523 185.549 C 116.063 185.176,115.943 185.160,116.147 185.500 C 116.325 185.796,116.234 186.011,115.924 186.028 C 115.636 186.044,115.760 186.211,116.200 186.400 C 116.956 186.725,116.949 186.745,116.076 186.772 C 115.477 186.790,115.254 186.964,115.442 187.268 C 115.638 187.584,115.512 187.652,115.053 187.476 C 114.567 187.289,114.267 187.498,113.997 188.208 C 113.790 188.753,113.431 189.200,113.200 189.200 C 112.969 189.200,112.601 189.672,112.381 190.249 C 112.162 190.827,111.536 191.650,110.991 192.078 C 110.446 192.507,110.000 193.205,110.000 193.629 C 110.000 194.185,109.721 194.400,109.000 194.400 C 108.278 194.400,108.000 194.615,108.000 195.173 C 108.000 195.598,107.658 196.055,107.240 196.187 C 106.822 196.320,106.373 196.852,106.243 197.370 C 106.100 197.942,105.734 198.290,105.313 198.256 C 104.931 198.225,104.592 198.425,104.560 198.700 C 104.527 198.975,104.478 199.360,104.450 199.557 C 104.422 199.753,103.950 200.026,103.400 200.164 C 102.850 200.302,102.400 200.682,102.400 201.008 C 102.400 201.333,102.220 201.623,102.000 201.650 C 101.780 201.678,101.375 201.722,101.100 201.750 C 100.825 201.778,100.578 202.025,100.550 202.300 C 100.523 202.575,100.478 202.980,100.450 203.200 C 100.423 203.420,100.133 203.600,99.808 203.600 C 99.482 203.600,99.102 204.050,98.964 204.600 C 98.781 205.328,98.445 205.600,97.727 205.600 C 97.002 205.600,96.778 205.785,96.881 206.300 C 96.974 206.764,96.627 207.170,95.850 207.506 C 95.206 207.785,94.795 208.128,94.936 208.269 C 95.324 208.657,94.371 209.630,93.893 209.334 C 93.664 209.192,93.578 209.241,93.703 209.443 C 94.024 209.962,93.001 211.241,92.167 211.364 C 91.782 211.420,91.423 211.763,91.370 212.125 C 91.256 212.904,90.237 214.000,89.629 214.000 C 89.393 214.000,89.200 214.191,89.200 214.424 C 89.200 214.657,89.425 214.720,89.700 214.565 C 90.074 214.354,90.087 214.405,89.752 214.769 C 89.506 215.037,88.966 215.312,88.552 215.381 C 88.139 215.450,87.855 215.738,87.923 216.021 C 87.990 216.305,87.175 217.361,86.110 218.368 C 85.046 219.376,83.861 220.695,83.478 221.300 C 83.095 221.905,82.516 222.400,82.191 222.400 C 81.827 222.400,81.600 222.785,81.600 223.400 C 81.600 224.029,81.374 224.400,80.990 224.400 C 80.655 224.400,80.209 224.850,80.000 225.400 C 79.656 226.306,79.182 226.593,78.281 226.441 C 78.106 226.412,78.016 226.705,78.081 227.094 C 78.167 227.603,77.896 227.835,77.109 227.926 C 76.258 228.024,76.038 228.243,76.109 228.924 C 76.175 229.560,75.955 229.833,75.300 229.927 C 74.665 230.018,74.400 230.326,74.400 230.976 C 74.400 231.677,74.186 231.884,73.500 231.848 C 72.886 231.815,72.599 232.027,72.596 232.515 C 72.594 232.908,72.144 233.463,71.596 233.748 C 71.048 234.032,70.643 234.470,70.696 234.721 C 70.749 234.971,70.450 235.359,70.032 235.583 C 69.069 236.098,66.922 238.233,66.702 238.894 C 66.610 239.171,66.190 239.397,65.769 239.398 C 65.348 239.399,64.992 239.670,64.979 240.000 C 64.941 240.923,64.361 242.000,63.901 242.000 C 63.674 242.000,63.258 242.315,62.976 242.700 C 62.695 243.085,62.225 243.400,61.932 243.400 C 61.640 243.400,61.385 243.580,61.367 243.800 C 61.235 245.419,60.642 246.452,59.948 246.271 C 59.422 246.133,59.200 246.288,59.200 246.793 C 59.200 247.215,58.929 247.488,58.543 247.456 C 58.182 247.425,57.808 247.670,57.713 248.000 C 57.558 248.533,57.586 248.533,57.963 248.000 C 58.220 247.637,58.390 247.587,58.394 247.873 C 58.397 248.133,57.848 248.739,57.172 249.220 C 56.497 249.701,55.775 250.540,55.567 251.086 C 55.360 251.631,54.833 252.171,54.395 252.285 C 53.882 252.420,53.600 252.832,53.600 253.447 C 53.600 254.137,53.377 254.400,52.790 254.400 C 52.296 254.400,51.833 254.787,51.603 255.392 C 51.352 256.052,51.020 256.306,50.613 256.150 C 50.066 255.940,49.794 256.551,49.939 257.660 C 49.958 257.803,49.529 258.031,48.987 258.168 C 48.368 258.323,48.000 258.701,48.000 259.180 C 48.000 259.668,47.675 259.991,47.100 260.072 C 46.605 260.142,46.178 260.425,46.150 260.700 C 46.123 260.975,46.078 261.399,46.050 261.643 C 46.023 261.886,45.752 261.990,45.449 261.874 C 44.761 261.610,43.997 262.328,44.254 262.997 C 44.467 263.552,43.340 264.134,42.754 263.772 C 42.548 263.644,42.406 263.689,42.437 263.870 C 42.644 265.057,42.322 265.600,41.413 265.600 C 40.792 265.600,40.493 265.786,40.608 266.100 C 40.866 266.803,40.341 267.480,39.400 267.660 C 38.925 267.751,38.596 268.136,38.590 268.607 C 38.583 269.101,38.326 269.380,37.906 269.347 C 37.535 269.318,37.252 269.408,37.278 269.547 C 37.411 270.267,36.500 271.415,35.800 271.408 C 35.212 271.402,34.999 271.665,34.998 272.400 C 34.996 273.171,34.798 273.390,34.131 273.355 C 33.512 273.323,33.334 273.483,33.502 273.921 C 33.655 274.320,33.574 274.431,33.268 274.242 C 32.860 273.990,32.609 274.662,32.739 275.659 C 32.757 275.801,32.374 275.844,31.886 275.755 C 31.399 275.665,31.225 275.698,31.500 275.829 C 32.140 276.133,32.155 276.832,31.519 276.700 C 31.254 276.645,31.029 276.960,31.019 277.400 C 31.006 277.927,30.727 278.200,30.200 278.200 C 29.760 278.200,28.905 278.701,28.300 279.314 C 27.259 280.368,27.021 281.016,27.169 282.400 C 27.220 282.878,27.160 282.892,26.875 282.470 C 26.448 281.840,25.024 282.991,25.426 283.642 C 25.554 283.850,25.511 283.987,25.330 283.946 C 24.598 283.783,23.600 284.531,23.600 285.243 C 23.600 285.659,23.420 286.022,23.200 286.050 C 22.980 286.078,22.575 286.123,22.300 286.150 C 22.025 286.178,21.742 286.605,21.672 287.100 C 21.593 287.657,21.267 288.000,20.816 288.000 C 20.372 288.000,19.989 288.391,19.836 289.000 C 19.674 289.646,19.304 290.000,18.792 290.000 C 18.214 290.000,18.000 290.270,18.000 291.000 C 18.000 291.550,17.865 291.979,17.700 291.953 C 16.825 291.814,16.341 292.090,16.042 292.898 C 15.859 293.392,15.371 293.797,14.955 293.798 C 14.433 293.799,14.214 294.069,14.245 294.670 C 14.277 295.272,13.999 295.614,13.345 295.778 C 12.750 295.928,12.400 296.308,12.400 296.808 C 12.400 297.562,12.013 297.774,10.900 297.630 C 10.625 297.594,10.400 297.753,10.400 297.982 C 10.400 298.212,10.574 298.400,10.787 298.400 C 11.001 298.400,11.066 298.685,10.932 299.032 C 10.789 299.406,10.391 299.586,9.960 299.474 C 9.237 299.285,8.205 300.071,8.625 300.491 C 8.744 300.611,8.383 301.070,7.821 301.512 C 7.259 301.954,6.800 302.511,6.800 302.750 C 6.800 302.989,6.356 303.296,5.813 303.432 C 5.271 303.569,4.842 303.797,4.861 303.940 C 4.960 304.695,4.769 305.703,4.566 305.500 C 4.088 305.021,2.800 306.617,2.800 307.689 C 2.800 308.533,2.608 308.800,2.000 308.800 C 1.094 308.800,1.101 308.763,1.026 313.922 C 0.988 316.524,1.126 317.773,1.486 318.071 C 1.769 318.306,2.000 318.731,2.000 319.016 C 2.000 319.300,2.173 319.593,2.384 319.667 C 2.595 319.740,2.799 321.291,2.837 323.114 C 2.875 324.936,2.996 326.337,3.106 326.228 C 4.020 325.313,4.800 326.999,4.800 329.888 C 4.800 332.467,4.935 333.092,5.658 333.862 C 6.302 334.547,6.552 335.403,6.660 337.288 C 6.901 341.498,7.017 342.139,7.575 342.325 C 7.935 342.445,8.008 342.323,7.797 341.952 C 7.577 341.565,7.614 341.520,7.922 341.801 C 8.164 342.021,8.407 343.674,8.462 345.474 C 8.517 347.274,8.704 348.660,8.876 348.553 C 9.049 348.446,9.072 348.669,8.926 349.049 C 8.727 349.567,8.819 349.678,9.297 349.495 C 10.155 349.165,10.400 349.950,10.400 353.033 C 10.400 354.664,10.564 355.600,10.849 355.600 C 11.172 355.600,11.166 355.759,10.830 356.164 C 10.298 356.804,10.666 357.150,11.700 356.984 C 12.310 356.885,12.406 357.251,12.450 359.835 C 12.526 364.313,12.563 364.600,13.067 364.600 C 13.849 364.600,13.942 364.907,14.065 367.906 C 14.130 369.498,14.333 370.800,14.515 370.800 C 14.698 370.800,14.758 370.944,14.650 371.119 C 14.234 371.792,15.162 372.658,15.594 372.000 C 15.869 371.581,15.990 372.393,15.994 374.700 C 15.998 376.870,16.154 378.000,16.449 378.000 C 16.759 378.000,16.744 378.185,16.400 378.600 C 15.911 379.189,16.254 379.424,17.330 379.237 C 17.511 379.206,17.555 379.349,17.427 379.556 C 17.300 379.763,17.367 379.992,17.576 380.066 C 17.786 380.140,17.993 381.681,18.035 383.491 C 18.101 386.308,18.219 386.816,18.856 387.018 C 19.410 387.194,19.616 387.681,19.661 388.927 C 19.733 390.878,19.871 392.475,20.005 392.900 C 20.166 393.411,20.298 393.983,20.350 394.400 C 20.378 394.620,20.625 394.755,20.900 394.700 C 21.255 394.629,21.434 395.441,21.518 397.500 C 21.596 399.428,21.797 400.402,22.118 400.406 C 22.435 400.410,22.406 400.535,22.035 400.770 C 21.339 401.211,22.275 402.375,23.104 402.099 C 23.470 401.977,23.600 402.731,23.600 404.972 C 23.600 407.724,24.031 409.380,24.919 410.035 C 25.094 410.164,25.301 410.974,25.378 411.835 C 25.455 412.696,25.537 413.535,25.559 413.700 C 25.646 414.338,27.194 413.959,27.600 413.200 C 27.835 412.760,28.296 412.400,28.623 412.400 C 28.950 412.400,29.422 411.950,29.673 411.400 C 29.923 410.850,30.357 410.400,30.637 410.400 C 30.917 410.400,31.260 410.040,31.400 409.600 C 31.540 409.159,32.002 408.613,32.427 408.386 C 32.852 408.158,33.200 407.774,33.200 407.532 C 33.200 407.290,33.605 406.705,34.100 406.231 C 34.595 405.758,35.502 404.747,36.116 403.985 C 38.335 401.233,40.637 398.607,42.500 396.703 C 43.545 395.635,44.400 394.642,44.400 394.495 C 44.400 394.348,44.755 393.862,45.188 393.414 C 46.424 392.138,48.091 390.234,49.400 388.605 C 50.060 387.783,51.410 386.242,52.400 385.180 C 56.390 380.900,57.600 379.518,57.600 379.238 C 57.600 379.076,58.005 378.569,58.500 378.111 C 58.995 377.652,59.940 376.608,60.600 375.790 C 61.948 374.120,64.839 370.851,66.500 369.119 C 67.105 368.489,67.600 367.799,67.600 367.586 C 67.600 367.374,67.870 367.200,68.200 367.200 C 68.530 367.200,68.800 366.981,68.800 366.714 C 68.800 366.447,69.159 365.862,69.597 365.414 C 71.626 363.343,74.394 360.172,74.397 359.916 C 74.399 359.760,75.300 358.718,76.400 357.600 C 77.500 356.482,78.400 355.475,78.400 355.361 C 78.400 355.247,79.210 354.355,80.200 353.379 C 81.190 352.403,82.000 351.475,82.000 351.316 C 82.000 351.158,82.355 350.662,82.788 350.214 C 84.080 348.880,85.723 346.996,87.000 345.384 C 87.660 344.551,88.965 343.093,89.900 342.145 C 90.835 341.197,91.600 340.312,91.600 340.179 C 91.600 340.046,92.365 339.136,93.300 338.157 C 94.235 337.178,95.396 335.887,95.880 335.289 C 97.283 333.552,100.012 330.332,100.527 329.804 C 100.787 329.537,101.810 328.370,102.800 327.211 C 103.790 326.053,105.410 324.219,106.400 323.138 C 107.390 322.057,108.601 320.683,109.091 320.086 C 109.934 319.057,110.915 317.881,113.200 315.158 C 116.090 311.713,117.199 310.800,118.500 310.796 C 121.299 310.786,122.752 310.340,122.879 309.451 C 122.956 308.907,123.289 308.600,123.800 308.600 C 124.375 308.600,124.636 308.291,124.727 307.500 C 124.816 306.723,125.080 306.400,125.627 306.400 C 126.133 306.400,126.400 306.124,126.400 305.600 C 126.400 305.059,126.667 304.800,127.224 304.800 C 127.677 304.800,127.948 304.639,127.826 304.442 C 127.704 304.245,127.885 303.976,128.228 303.845 C 128.570 303.713,128.739 303.424,128.602 303.203 C 128.458 302.971,128.805 302.800,129.419 302.800 C 130.198 302.800,130.424 302.640,130.258 302.206 C 130.123 301.856,130.356 301.438,130.826 301.186 C 131.264 300.952,131.518 300.591,131.390 300.385 C 131.263 300.178,131.440 300.117,131.784 300.249 C 132.238 300.423,132.341 300.313,132.162 299.845 C 132.018 299.470,132.118 299.200,132.400 299.200 C 132.686 299.200,132.782 298.930,132.634 298.543 C 132.429 298.011,132.490 297.977,132.955 298.363 C 133.315 298.662,133.619 298.693,133.771 298.447 C 133.904 298.232,133.829 297.942,133.604 297.803 C 133.373 297.659,133.802 296.978,134.598 296.228 C 135.369 295.501,136.000 294.633,136.000 294.299 C 136.000 293.966,136.373 293.596,136.830 293.476 C 137.286 293.357,137.757 292.886,137.876 292.430 C 137.996 291.973,138.413 291.600,138.803 291.600 C 139.230 291.600,139.615 291.195,139.768 290.584 C 139.909 290.025,140.202 289.678,140.420 289.812 C 140.638 289.947,141.085 289.415,141.414 288.629 C 141.742 287.843,142.199 287.200,142.429 287.200 C 142.659 287.200,142.737 287.378,142.603 287.595 C 142.467 287.815,142.613 287.893,142.931 287.771 C 143.246 287.650,143.497 287.338,143.489 287.076 C 143.441 285.519,143.615 285.005,143.989 285.597 C 144.311 286.105,144.443 286.111,144.883 285.638 C 145.311 285.179,145.296 285.139,144.800 285.410 C 144.213 285.730,144.958 284.730,146.500 283.127 C 146.885 282.727,147.200 282.036,147.200 281.590 C 147.200 281.094,147.588 280.633,148.200 280.400 C 148.812 280.167,149.200 279.706,149.200 279.210 C 149.200 278.619,149.463 278.400,150.172 278.400 C 150.876 278.400,151.180 278.151,151.272 277.500 C 151.355 276.919,151.655 276.621,152.120 276.659 C 152.515 276.691,152.767 276.511,152.679 276.259 C 152.591 276.006,153.030 275.305,153.656 274.700 C 154.281 274.095,154.682 273.600,154.547 273.600 C 154.412 273.600,154.533 273.322,154.815 272.982 C 155.097 272.642,155.579 272.460,155.885 272.577 C 156.191 272.695,156.332 272.613,156.197 272.395 C 156.063 272.178,156.131 272.000,156.350 272.000 C 156.568 272.000,156.804 271.509,156.873 270.909 C 156.950 270.250,157.366 269.637,157.925 269.360 C 158.434 269.108,158.839 268.788,158.825 268.651 C 158.715 267.558,158.907 267.200,159.600 267.200 C 160.175 267.200,160.400 266.933,160.400 266.252 C 160.400 265.522,160.606 265.315,161.300 265.352 C 161.936 265.386,162.236 265.147,162.323 264.538 C 162.398 264.008,162.829 263.579,163.439 263.426 C 163.986 263.289,164.336 263.021,164.219 262.830 C 164.101 262.639,164.377 262.060,164.833 261.542 C 165.288 261.024,165.547 260.825,165.407 261.100 C 165.267 261.375,165.343 261.600,165.576 261.600 C 165.809 261.600,166.000 261.076,166.000 260.435 C 166.000 259.550,166.168 259.298,166.700 259.384 C 167.643 259.535,168.202 259.172,167.599 258.799 C 167.257 258.588,167.550 258.014,168.589 256.865 C 169.401 255.966,169.958 255.056,169.827 254.844 C 169.696 254.631,169.996 254.399,170.494 254.329 C 170.992 254.258,171.578 253.795,171.795 253.300 C 172.012 252.805,172.505 252.400,172.890 252.400 C 173.378 252.400,173.562 252.127,173.495 251.501 C 173.424 250.830,173.636 250.569,174.331 250.469 C 174.959 250.380,175.188 250.145,175.035 249.747 C 174.890 249.369,174.975 249.261,175.273 249.445 C 175.582 249.636,175.651 249.510,175.481 249.066 C 175.323 248.654,175.425 248.400,175.747 248.400 C 176.486 248.400,179.120 245.366,179.272 244.339 C 179.343 243.867,179.735 243.283,180.145 243.041 C 181.359 242.323,183.200 240.379,183.200 239.816 C 183.200 239.528,183.560 239.199,184.000 239.084 C 184.479 238.959,184.800 238.538,184.800 238.037 C 184.800 237.467,185.055 237.200,185.600 237.200 C 186.040 237.200,186.400 236.935,186.400 236.610 C 186.400 236.286,186.940 235.741,187.600 235.400 C 188.260 235.059,188.800 234.683,188.800 234.566 C 188.800 234.449,188.607 234.472,188.370 234.618 C 188.127 234.769,188.158 234.537,188.442 234.082 C 188.717 233.641,189.181 233.371,189.471 233.483 C 189.762 233.594,190.023 233.486,190.050 233.243 C 190.078 232.999,190.145 232.620,190.200 232.400 C 190.255 232.180,190.322 231.826,190.350 231.613 C 190.378 231.399,190.641 231.318,190.936 231.431 C 191.561 231.671,192.267 230.903,192.345 229.900 C 192.469 228.310,192.548 228.044,192.839 228.224 C 193.007 228.328,193.260 228.227,193.400 228.000 C 193.540 227.773,193.851 227.708,194.089 227.855 C 194.328 228.003,194.427 227.961,194.309 227.762 C 193.997 227.237,194.728 225.508,195.151 225.770 C 195.531 226.005,196.686 224.844,196.476 224.439 C 196.408 224.307,196.768 224.083,197.276 223.940 C 197.784 223.797,198.059 223.662,197.886 223.640 C 197.713 223.618,197.772 223.226,198.017 222.769 C 198.261 222.312,198.700 222.030,198.992 222.141 C 199.782 222.445,200.059 221.961,199.510 221.237 C 199.244 220.887,199.177 220.726,199.361 220.881 C 199.545 221.035,199.958 220.899,200.280 220.577 C 200.601 220.256,201.013 220.085,201.195 220.197 C 201.377 220.309,201.424 220.013,201.300 219.538 C 201.145 218.947,201.220 218.765,201.537 218.961 C 201.834 219.145,202.011 218.917,202.032 218.324 C 202.049 217.816,202.154 217.625,202.265 217.900 C 202.376 218.175,202.642 218.400,202.857 218.400 C 203.072 218.400,203.136 218.220,203.000 218.000 C 202.864 217.780,202.988 217.597,203.276 217.594 C 203.657 217.589,203.636 217.482,203.200 217.200 C 202.800 216.942,202.767 216.810,203.100 216.806 C 203.375 216.803,203.600 216.350,203.600 215.800 C 203.600 215.144,203.823 214.800,204.249 214.800 C 204.807 214.800,204.822 214.898,204.356 215.500 C 203.915 216.070,203.980 216.058,204.707 215.438 C 205.198 215.019,205.600 214.254,205.600 213.738 C 205.600 212.883,206.160 212.564,207.319 212.759 C 207.494 212.788,207.608 212.585,207.572 212.306 C 207.421 211.157,207.625 210.724,208.212 210.949 C 208.650 211.117,208.889 210.854,209.056 210.021 C 209.202 209.288,209.480 208.933,209.808 209.059 C 210.102 209.171,210.562 208.781,210.864 208.163 C 211.159 207.561,211.731 207.021,212.137 206.964 C 213.209 206.813,213.382 206.501,212.789 205.787 C 212.501 205.439,212.430 205.186,212.632 205.225 C 213.557 205.401,214.051 205.126,214.473 204.200 C 214.723 203.650,215.159 203.200,215.441 203.200 C 215.722 203.200,216.081 202.992,216.238 202.738 C 216.414 202.454,216.348 202.385,216.066 202.559 C 215.771 202.742,215.693 202.623,215.846 202.223 C 215.977 201.883,216.245 201.704,216.442 201.826 C 216.639 201.948,216.800 201.608,216.800 201.070 C 216.800 200.418,217.076 200.021,217.630 199.876 C 218.086 199.757,218.547 199.324,218.654 198.914 C 218.762 198.504,219.243 197.994,219.725 197.781 C 220.235 197.554,220.551 197.103,220.482 196.696 C 220.396 196.183,220.638 196.000,221.406 196.000 C 221.979 196.000,222.368 195.865,222.271 195.700 C 221.945 195.147,222.767 193.600,223.387 193.600 C 223.724 193.600,224.000 193.330,224.000 193.000 C 224.000 192.670,224.281 192.400,224.624 192.400 C 224.967 192.400,225.137 192.222,225.003 192.005 C 224.857 191.769,225.038 191.716,225.449 191.874 C 225.978 192.077,226.079 191.982,225.882 191.469 C 225.740 191.099,225.817 190.800,226.055 190.800 C 226.292 190.800,226.388 190.545,226.268 190.233 C 226.148 189.921,226.349 189.552,226.714 189.412 C 227.286 189.192,227.296 189.106,226.789 188.785 C 226.465 188.580,226.389 188.409,226.620 188.406 C 226.851 188.403,227.256 188.616,227.520 188.880 C 227.893 189.253,228.000 189.178,228.000 188.542 C 228.000 187.647,229.303 186.236,229.732 186.666 C 229.880 186.813,230.000 186.453,230.000 185.867 C 230.000 185.087,230.204 184.800,230.757 184.800 C 231.544 184.800,232.169 183.798,231.778 183.164 C 231.557 182.807,232.111 182.642,233.100 182.770 C 233.375 182.806,233.600 182.486,233.600 182.060 C 233.600 181.349,234.582 180.585,235.300 180.736 C 235.465 180.771,235.600 180.620,235.600 180.400 C 235.600 180.180,235.398 180.000,235.151 180.000 C 234.847 180.000,234.867 179.801,235.215 179.382 C 235.497 179.042,235.967 178.855,236.259 178.967 C 236.551 179.079,236.748 178.953,236.695 178.686 C 236.643 178.419,236.847 178.252,237.149 178.316 C 237.498 178.390,237.612 178.209,237.462 177.816 C 237.312 177.427,237.450 177.200,237.836 177.200 C 238.172 177.200,238.337 177.021,238.202 176.803 C 237.923 176.352,238.575 175.000,239.072 175.000 C 239.252 175.000,239.378 174.678,239.351 174.284 C 239.324 173.890,239.392 173.659,239.503 173.770 C 239.919 174.186,241.200 173.141,241.200 172.386 C 241.200 171.881,241.471 171.600,241.957 171.600 C 242.744 171.600,243.369 170.598,242.978 169.964 C 242.854 169.764,242.943 169.577,243.176 169.550 C 243.409 169.523,243.780 169.455,244.000 169.400 C 244.220 169.345,244.580 169.278,244.800 169.250 C 245.020 169.222,245.179 169.065,245.153 168.900 C 244.964 167.706,245.230 167.127,245.764 167.570 C 246.222 167.951,246.376 167.820,246.584 166.873 C 246.777 165.996,247.057 165.719,247.718 165.754 C 248.201 165.779,248.619 165.575,248.648 165.300 C 248.677 165.025,248.722 164.511,248.750 164.157 C 248.780 163.765,249.029 163.602,249.387 163.740 C 249.710 163.864,250.098 163.765,250.249 163.521 C 250.415 163.252,250.341 163.189,250.062 163.362 C 249.808 163.519,249.600 163.476,249.600 163.266 C 249.600 163.057,249.881 162.778,250.225 162.646 C 250.569 162.514,250.739 162.224,250.602 162.003 C 250.465 161.781,250.638 161.600,250.986 161.600 C 252.371 161.600,252.400 159.945,252.400 79.774 L 252.400 0.000 199.000 0.000 L 145.600 0.000 145.600 78.400 M280.287 179.904 C 279.940 180.288,279.466 181.101,279.234 181.711 C 279.002 182.322,278.404 182.985,277.906 183.185 C 277.408 183.386,277.141 183.561,277.314 183.575 C 277.487 183.589,277.426 183.977,277.180 184.438 C 276.882 184.994,276.471 185.207,275.956 185.073 C 275.503 184.954,275.205 185.063,275.238 185.335 C 275.366 186.379,275.155 186.725,274.252 186.951 C 273.581 187.120,273.317 187.455,273.352 188.095 C 273.381 188.652,273.196 188.958,272.870 188.890 C 272.579 188.830,272.447 188.952,272.577 189.163 C 272.707 189.373,272.452 189.799,272.009 190.109 C 271.567 190.418,271.339 190.813,271.503 190.986 C 271.666 191.158,271.396 191.175,270.903 191.024 C 270.164 190.797,270.052 190.870,270.270 191.439 C 270.466 191.950,270.396 192.045,270.000 191.800 C 269.609 191.558,269.533 191.648,269.718 192.132 C 269.973 192.795,268.657 194.400,267.858 194.400 C 267.643 194.400,267.580 194.514,267.719 194.653 C 268.053 194.986,267.246 196.476,266.861 196.238 C 266.696 196.136,266.300 196.218,265.981 196.420 C 265.512 196.717,265.506 196.789,265.949 196.794 C 266.363 196.798,266.388 196.932,266.052 197.337 C 265.807 197.632,265.740 198.017,265.903 198.193 C 266.067 198.369,265.705 198.394,265.100 198.249 C 264.121 198.014,264.000 198.096,264.000 198.992 C 264.000 199.611,263.774 200.000,263.414 200.000 C 262.762 200.000,261.885 201.352,262.281 201.747 C 262.491 201.957,261.609 202.150,260.783 202.075 C 260.664 202.064,260.541 202.382,260.511 202.781 C 260.481 203.180,259.994 203.970,259.428 204.535 C 258.863 205.101,258.400 206.022,258.400 206.582 C 258.400 207.142,258.265 207.579,258.100 207.553 C 257.021 207.382,256.400 207.692,256.400 208.400 C 256.400 208.840,256.254 209.200,256.076 209.200 C 255.899 209.200,255.404 209.483,254.976 209.830 C 254.549 210.176,254.453 210.328,254.762 210.168 C 255.143 209.970,255.227 210.033,255.023 210.363 C 254.858 210.630,254.304 211.009,253.792 211.203 C 253.266 211.403,252.805 211.957,252.731 212.478 C 252.647 213.070,252.286 213.445,251.722 213.525 C 251.155 213.606,250.921 213.850,251.062 214.216 C 251.182 214.531,250.739 215.323,250.065 215.997 C 249.397 216.665,248.738 217.565,248.601 217.997 C 248.464 218.430,248.227 218.766,248.076 218.745 C 247.200 218.620,246.742 218.871,246.933 219.371 C 247.194 220.049,246.213 220.979,245.622 220.614 C 245.394 220.473,245.295 220.592,245.400 220.879 C 245.649 221.557,245.223 222.163,244.069 222.771 C 243.518 223.061,243.227 223.494,243.356 223.831 C 243.570 224.388,243.157 224.573,242.045 224.417 C 241.670 224.365,241.561 224.607,241.708 225.170 C 241.828 225.627,241.775 225.908,241.591 225.795 C 241.408 225.681,241.143 225.951,241.002 226.394 C 240.861 226.837,240.568 227.200,240.349 227.200 C 240.131 227.200,240.082 226.975,240.241 226.700 C 240.399 226.425,240.380 226.335,240.198 226.499 C 240.017 226.664,239.818 227.264,239.758 227.832 C 239.697 228.401,239.187 229.262,238.624 229.746 C 238.061 230.230,237.600 230.911,237.600 231.261 C 237.600 231.667,237.276 231.879,236.700 231.848 C 236.051 231.813,235.800 232.023,235.800 232.600 C 235.800 233.125,235.491 233.444,234.900 233.528 C 234.270 233.617,234.000 233.927,234.000 234.560 C 234.000 235.116,233.614 235.671,233.000 236.000 C 232.450 236.294,232.000 236.875,232.000 237.291 C 232.000 237.707,231.839 237.948,231.642 237.826 C 231.445 237.704,231.176 237.885,231.045 238.228 C 230.913 238.570,230.624 238.739,230.403 238.602 C 230.181 238.465,230.000 238.569,230.000 238.832 C 230.000 239.096,229.685 239.557,229.300 239.857 C 228.748 240.286,228.734 240.356,229.233 240.184 C 229.621 240.050,229.867 240.191,229.867 240.547 C 229.867 240.895,229.573 241.072,229.133 240.987 C 228.431 240.852,228.330 240.978,228.240 242.100 C 228.218 242.375,227.840 242.697,227.400 242.816 C 226.960 242.935,226.542 243.430,226.472 243.916 C 226.402 244.402,226.081 244.800,225.759 244.800 C 225.438 244.800,225.037 245.170,224.870 245.622 C 224.703 246.074,224.124 246.669,223.583 246.945 C 223.042 247.221,222.625 247.751,222.656 248.123 C 222.703 248.704,222.114 248.990,221.137 248.860 C 220.993 248.841,220.921 249.134,220.978 249.512 C 221.118 250.445,220.059 251.993,219.254 252.032 C 218.845 252.051,218.786 252.138,219.096 252.264 C 219.472 252.416,219.447 252.610,218.993 253.064 C 218.663 253.394,218.513 253.875,218.660 254.132 C 218.808 254.390,218.786 254.471,218.612 254.314 C 217.730 253.518,216.800 254.857,216.806 256.914 C 216.813 259.291,217.103 259.933,218.100 259.779 C 218.603 259.701,218.800 259.942,218.800 260.635 C 218.800 261.166,218.993 261.600,219.229 261.600 C 219.782 261.600,220.800 262.618,220.800 263.171 C 220.800 263.407,221.058 263.600,221.373 263.600 C 221.688 263.600,222.060 263.960,222.200 264.400 C 222.434 265.137,222.886 265.384,223.730 265.237 C 223.911 265.206,223.945 265.365,223.806 265.590 C 223.667 265.816,223.722 266.000,223.928 266.000 C 224.134 266.000,224.531 266.549,224.809 267.221 C 225.163 268.077,225.503 268.369,225.945 268.200 C 226.292 268.067,226.457 268.076,226.312 268.221 C 225.983 268.551,226.892 269.582,227.295 269.337 C 227.458 269.239,227.496 269.406,227.380 269.708 C 227.166 270.265,229.023 271.437,229.800 271.236 C 230.020 271.180,230.067 271.267,229.903 271.430 C 229.740 271.593,229.828 271.992,230.097 272.317 C 230.367 272.642,230.591 273.199,230.594 273.554 C 230.597 273.922,230.902 274.176,231.300 274.144 C 231.685 274.114,232.000 274.249,232.000 274.444 C 232.000 274.640,232.259 274.800,232.576 274.800 C 233.354 274.800,233.726 275.475,233.145 275.834 C 232.833 276.027,232.784 275.949,233.000 275.600 C 233.216 275.251,233.167 275.173,232.855 275.366 C 232.213 275.763,232.685 276.419,233.413 276.140 C 233.740 276.014,234.000 276.140,234.000 276.424 C 234.000 276.704,234.111 276.822,234.248 276.686 C 234.538 276.395,235.600 277.368,235.600 277.925 C 235.600 278.135,235.960 278.401,236.400 278.516 C 236.840 278.631,237.200 278.933,237.200 279.186 C 237.200 279.440,237.032 279.544,236.828 279.417 C 236.623 279.291,236.325 279.398,236.166 279.655 C 235.985 279.948,236.050 280.016,236.338 279.838 C 236.592 279.681,236.800 279.743,236.800 279.976 C 236.800 280.209,237.081 280.400,237.424 280.400 C 237.778 280.400,237.929 280.591,237.774 280.843 C 237.589 281.141,237.778 281.197,238.350 281.016 C 238.817 280.868,239.200 280.912,239.200 281.115 C 239.200 281.317,239.645 281.964,240.190 282.551 C 240.734 283.138,241.208 283.750,241.244 283.910 C 241.558 285.327,242.160 285.966,242.740 285.497 C 243.229 285.100,243.293 285.101,243.053 285.500 C 242.881 285.786,242.953 286.000,243.219 286.000 C 243.476 286.000,243.583 286.268,243.457 286.595 C 243.325 286.939,243.434 287.150,243.714 287.095 C 243.981 287.043,244.157 287.219,244.105 287.486 C 244.050 287.766,244.261 287.875,244.605 287.743 C 244.999 287.591,245.202 287.765,245.206 288.257 C 245.211 288.883,245.273 288.906,245.600 288.400 C 245.914 287.915,245.989 287.972,245.994 288.700 C 245.997 289.231,246.246 289.600,246.600 289.600 C 247.109 289.600,247.382 290.274,247.265 291.246 C 247.249 291.382,247.633 291.472,248.118 291.446 C 248.635 291.419,249.022 291.648,249.054 292.000 C 249.083 292.330,249.128 292.836,249.154 293.124 C 249.179 293.412,249.364 293.546,249.564 293.422 C 250.220 293.017,251.145 293.647,251.000 294.400 C 250.855 295.153,251.780 295.783,252.436 295.378 C 252.636 295.254,252.800 295.528,252.800 295.986 C 252.800 296.511,253.177 296.963,253.818 297.207 C 254.466 297.453,254.793 297.850,254.718 298.297 C 254.647 298.718,254.818 298.954,255.142 298.886 C 255.969 298.712,256.783 299.576,256.501 300.329 C 256.281 300.917,256.335 300.931,256.934 300.443 C 257.542 299.949,257.587 299.971,257.334 300.643 C 257.074 301.336,257.114 301.349,257.802 300.800 C 258.230 300.458,258.425 300.414,258.255 300.697 C 258.075 300.996,258.399 301.631,259.070 302.297 C 259.683 302.903,260.139 303.605,260.085 303.855 C 260.030 304.105,260.439 304.423,260.993 304.562 C 261.547 304.701,262.000 305.082,262.000 305.408 C 262.000 305.733,262.191 306.000,262.424 306.000 C 262.657 306.000,262.737 306.178,262.603 306.395 C 262.463 306.621,262.622 306.690,262.974 306.555 C 263.388 306.396,263.718 306.659,263.985 307.359 C 264.344 308.306,264.815 308.596,265.730 308.437 C 265.912 308.406,265.949 308.729,265.814 309.156 C 265.451 310.301,265.883 310.416,271.788 310.743 L 277.181 311.042 279.635 313.621 C 280.984 315.039,284.273 318.529,286.944 321.377 C 289.615 324.224,292.655 327.412,293.700 328.461 C 294.745 329.510,295.600 330.544,295.600 330.757 C 295.600 330.971,295.960 331.260,296.400 331.400 C 296.840 331.540,297.200 331.812,297.200 332.005 C 297.200 332.198,298.100 333.242,299.200 334.324 C 300.300 335.407,301.200 336.497,301.200 336.747 C 301.200 336.996,301.474 337.200,301.810 337.200 C 302.145 337.200,302.591 337.650,302.800 338.200 C 303.009 338.750,303.455 339.200,303.790 339.200 C 304.126 339.200,304.400 339.351,304.400 339.535 C 304.400 339.719,306.155 341.678,308.300 343.888 C 313.485 349.230,322.675 358.959,324.632 361.177 C 325.495 362.154,327.325 364.086,328.700 365.469 C 330.075 366.853,331.200 368.156,331.200 368.366 C 331.200 368.575,331.560 368.860,332.000 369.000 C 332.440 369.140,332.800 369.406,332.800 369.593 C 332.800 369.779,334.510 371.659,336.600 373.769 C 338.690 375.880,340.400 377.773,340.400 377.976 C 340.400 378.180,340.760 378.460,341.200 378.600 C 341.640 378.740,342.000 379.003,342.000 379.185 C 342.000 379.367,343.755 381.311,345.900 383.505 C 349.144 386.824,354.255 392.226,360.537 398.978 C 361.163 399.650,362.828 401.391,364.237 402.848 C 365.647 404.304,366.800 405.687,366.800 405.921 C 366.800 406.155,367.151 406.457,367.580 406.594 C 368.008 406.730,368.467 407.183,368.600 407.600 C 368.733 408.017,369.192 408.470,369.620 408.606 C 370.049 408.743,370.400 409.041,370.400 409.270 C 370.400 409.498,371.317 410.546,372.438 411.599 C 375.055 414.056,374.983 414.868,372.105 415.326 C 369.048 415.813,369.995 417.519,373.241 417.373 C 375.377 417.277,376.454 416.728,375.573 416.183 C 375.253 415.985,375.178 416.041,375.362 416.338 C 375.519 416.592,375.442 416.800,375.190 416.800 C 374.939 416.800,374.813 416.575,374.910 416.300 C 375.007 416.025,375.346 415.819,375.663 415.842 C 376.115 415.875,376.261 415.180,376.335 412.642 C 376.417 409.815,376.548 409.293,377.364 408.563 C 377.990 408.002,378.303 407.275,378.310 406.363 C 378.346 402.149,378.440 401.200,378.824 401.200 C 379.057 401.200,379.112 401.425,378.947 401.700 C 378.743 402.040,378.863 402.024,379.323 401.651 C 379.695 401.349,379.997 400.899,379.994 400.651 C 379.991 400.403,379.813 400.470,379.600 400.800 C 379.329 401.220,379.210 401.246,379.206 400.887 C 379.203 400.606,379.425 400.288,379.700 400.182 C 380.014 400.062,380.243 398.990,380.316 397.304 C 380.403 395.298,380.631 394.406,381.216 393.783 C 381.847 393.112,382.000 392.378,382.000 390.032 C 382.000 387.470,382.111 387.028,382.914 386.396 C 383.700 385.778,383.844 385.252,383.941 382.642 C 384.032 380.200,384.223 379.418,384.918 378.637 C 385.605 377.866,385.807 377.065,385.902 374.733 C 385.967 373.120,386.038 371.376,386.060 370.857 C 386.086 370.245,386.208 370.089,386.407 370.411 C 386.976 371.331,387.600 369.362,387.600 366.650 C 387.600 365.218,387.783 363.934,388.007 363.796 C 388.230 363.658,388.311 363.379,388.186 363.177 C 388.060 362.974,388.265 362.927,388.645 363.073 C 389.111 363.251,389.238 363.185,389.042 362.868 C 388.883 362.611,388.951 362.400,389.194 362.400 C 389.437 362.400,389.606 362.175,389.570 361.900 C 389.271 359.593,389.699 356.501,390.444 355.600 C 390.898 355.050,391.135 354.870,390.971 355.200 C 390.806 355.530,390.822 355.663,391.006 355.497 C 391.190 355.330,391.412 353.639,391.500 351.739 C 391.651 348.457,392.396 346.365,392.936 347.704 C 393.159 348.254,393.287 346.673,393.326 342.914 C 393.350 340.557,393.846 339.611,394.761 340.176 C 394.920 340.274,395.088 338.790,395.134 336.877 C 395.238 332.632,395.401 332.023,396.365 332.275 C 396.884 332.411,397.100 332.251,397.096 331.734 C 397.056 326.429,397.210 325.229,397.900 325.476 C 398.285 325.614,398.467 325.580,398.303 325.401 C 398.140 325.221,398.202 324.839,398.440 324.552 C 398.678 324.265,398.947 322.718,399.037 321.115 C 399.127 319.512,399.381 318.140,399.600 318.067 C 400.102 317.899,400.145 306.800,399.643 306.800 C 399.282 306.800,398.662 305.102,398.620 304.000 C 398.607 303.670,398.238 303.392,397.798 303.381 C 397.359 303.371,397.048 303.136,397.107 302.860 C 397.250 302.190,396.320 301.293,395.696 301.501 C 395.423 301.592,395.200 301.382,395.200 301.033 C 395.200 300.685,394.975 300.397,394.700 300.394 C 394.367 300.390,394.400 300.258,394.800 300.000 C 395.218 299.730,395.248 299.595,394.900 299.556 C 394.625 299.525,394.265 299.475,394.100 299.444 C 393.935 299.413,393.263 298.851,392.606 298.194 C 391.949 297.537,391.387 296.865,391.356 296.700 C 391.325 296.535,391.278 296.220,391.250 296.000 C 391.223 295.780,390.840 295.600,390.400 295.600 C 389.829 295.600,389.600 295.333,389.600 294.668 C 389.600 293.967,389.384 293.744,388.725 293.768 C 388.112 293.790,387.774 293.500,387.597 292.800 C 387.444 292.193,387.080 291.822,386.672 291.856 C 386.215 291.893,386.000 291.606,386.000 290.956 C 386.000 290.430,385.865 290.021,385.700 290.047 C 384.648 290.214,384.000 289.907,384.000 289.243 C 384.000 288.546,383.011 287.786,382.300 287.936 C 382.135 287.971,382.021 287.865,382.047 287.700 C 382.276 286.252,381.964 285.591,381.236 285.981 C 380.570 286.337,380.486 286.261,380.581 285.395 C 380.645 284.814,380.485 284.400,380.197 284.400 C 379.926 284.400,379.726 284.011,379.752 283.535 C 379.778 283.060,379.550 282.587,379.244 282.484 C 378.860 282.354,378.791 282.466,379.021 282.848 C 379.295 283.303,379.231 283.300,378.659 282.836 C 378.268 282.519,378.068 281.999,378.203 281.648 C 378.335 281.305,378.327 281.139,378.187 281.280 C 377.770 281.696,376.042 279.957,376.273 279.354 C 376.409 278.999,376.207 278.800,375.710 278.800 C 375.284 278.800,374.694 278.350,374.400 277.800 C 374.106 277.250,373.525 276.800,373.109 276.800 C 372.693 276.800,372.463 276.621,372.598 276.403 C 372.733 276.185,372.659 275.690,372.434 275.303 C 372.157 274.828,372.020 274.778,372.012 275.149 C 371.993 276.034,370.800 274.856,370.800 273.951 C 370.800 273.464,370.516 273.200,369.990 273.200 C 369.494 273.200,369.033 272.812,368.800 272.200 C 368.591 271.650,368.145 271.200,367.810 271.200 C 367.426 271.200,367.200 270.829,367.200 270.200 C 367.200 269.629,366.969 269.200,366.662 269.200 C 366.016 269.200,364.701 267.832,365.031 267.503 C 365.158 267.375,364.704 266.857,364.021 266.352 C 363.337 265.847,362.865 265.207,362.972 264.930 C 363.078 264.652,362.965 264.302,362.721 264.151 C 362.452 263.985,362.389 264.059,362.562 264.338 C 362.719 264.592,362.657 264.800,362.424 264.800 C 362.191 264.800,362.000 264.524,362.000 264.187 C 362.000 263.851,361.741 263.476,361.425 263.354 C 361.109 263.233,360.949 262.877,361.070 262.562 C 361.219 262.173,361.094 262.066,360.675 262.226 C 360.001 262.485,359.034 261.120,359.514 260.588 C 359.671 260.414,359.575 260.401,359.300 260.559 C 359.021 260.720,358.800 260.641,358.800 260.381 C 358.800 260.124,358.530 260.018,358.200 260.145 C 357.750 260.317,357.600 260.079,357.600 259.187 C 357.600 258.534,357.465 258.021,357.300 258.047 C 356.393 258.191,355.585 257.948,355.802 257.597 C 355.939 257.375,355.770 256.912,355.426 256.568 C 354.951 256.094,354.793 256.071,354.773 256.471 C 354.758 256.762,354.551 256.595,354.312 256.100 C 354.073 255.605,353.715 255.200,353.515 255.200 C 353.316 255.200,353.264 255.020,353.400 254.800 C 353.536 254.580,353.289 254.400,352.851 254.400 C 352.331 254.400,352.011 254.089,351.928 253.500 C 351.844 252.911,351.478 252.554,350.869 252.468 C 350.240 252.379,350.012 252.145,350.165 251.747 C 350.315 251.357,349.985 250.987,349.189 250.652 C 348.528 250.374,348.110 250.023,348.261 249.873 C 348.713 249.420,347.501 247.552,346.904 247.781 C 346.604 247.897,346.459 247.827,346.583 247.628 C 346.706 247.428,346.529 246.986,346.189 246.647 C 345.850 246.307,345.578 245.932,345.586 245.814 C 345.629 245.170,345.542 245.149,344.923 245.651 C 344.463 246.024,344.343 246.040,344.547 245.700 C 344.712 245.425,344.657 245.200,344.424 245.200 C 344.191 245.200,344.021 245.065,344.047 244.900 C 344.178 244.073,343.925 243.630,343.189 243.397 C 342.744 243.255,342.405 242.928,342.437 242.670 C 342.591 241.424,342.407 241.096,341.828 241.577 C 341.227 242.075,340.128 240.806,340.681 240.253 C 340.820 240.114,340.713 240.000,340.443 240.000 C 340.173 240.000,340.058 239.829,340.187 239.621 C 340.316 239.412,340.057 239.312,339.611 239.398 C 338.960 239.523,338.799 239.342,338.794 238.477 C 338.789 237.635,338.703 237.531,338.400 238.000 C 338.071 238.509,338.011 238.490,338.006 237.876 C 338.003 237.478,337.820 237.264,337.600 237.400 C 337.380 237.536,337.178 237.457,337.150 237.224 C 337.123 236.991,337.078 236.575,337.050 236.300 C 337.023 236.025,336.595 235.742,336.100 235.672 C 335.444 235.579,335.200 235.276,335.200 234.555 C 335.200 233.995,334.983 233.593,334.700 233.630 C 333.587 233.774,333.200 233.562,333.200 232.808 C 333.200 232.303,332.848 231.927,332.230 231.772 C 331.546 231.600,331.303 231.303,331.407 230.764 C 331.537 230.087,331.092 229.824,329.983 229.925 C 329.864 229.936,329.738 229.568,329.703 229.108 C 329.668 228.648,329.496 228.166,329.320 228.036 C 329.144 227.906,329.000 227.545,329.000 227.233 C 329.000 226.922,328.771 226.620,328.490 226.563 C 328.210 226.507,328.165 226.552,328.390 226.663 C 328.978 226.955,328.895 227.478,328.220 227.737 C 327.875 227.869,327.712 227.765,327.816 227.480 C 328.031 226.894,327.644 226.334,326.646 225.785 C 326.231 225.557,325.961 225.261,326.046 225.127 C 326.131 224.994,325.867 224.516,325.461 224.067 C 325.054 223.618,324.843 223.055,324.991 222.815 C 325.138 222.576,325.111 222.406,324.930 222.437 C 324.018 222.596,323.536 222.343,323.740 221.813 C 323.983 221.180,323.367 220.628,322.400 220.611 C 321.997 220.603,321.839 220.271,321.918 219.600 C 322.011 218.809,321.950 218.726,321.624 219.200 C 321.305 219.665,321.211 219.678,321.206 219.257 C 321.203 218.940,320.951 218.810,320.600 218.945 C 320.166 219.111,320.000 218.900,320.000 218.178 C 320.000 217.476,319.697 217.065,318.976 216.791 C 318.413 216.577,318.063 216.222,318.198 216.002 C 318.334 215.783,317.985 215.394,317.423 215.137 C 316.860 214.881,316.400 214.340,316.400 213.936 C 316.400 213.233,315.997 213.028,314.900 213.170 C 314.625 213.206,314.400 212.863,314.400 212.408 C 314.400 211.888,314.019 211.435,313.376 211.191 C 312.813 210.977,312.457 210.632,312.585 210.425 C 312.713 210.218,312.396 209.633,311.881 209.124 C 310.738 207.997,309.322 205.781,310.020 206.213 C 310.347 206.414,310.423 206.362,310.238 206.062 C 309.821 205.387,309.286 205.497,309.076 206.300 C 308.930 206.856,308.883 206.825,308.846 206.149 C 308.821 205.681,308.532 205.076,308.204 204.804 C 307.877 204.532,307.725 204.122,307.866 203.893 C 308.016 203.650,307.930 203.596,307.659 203.764 C 307.390 203.930,307.078 203.745,306.920 203.325 C 306.537 202.316,305.674 201.507,305.256 201.765 C 305.063 201.884,304.927 201.581,304.953 201.091 C 304.987 200.453,304.744 200.164,304.100 200.072 C 303.449 199.980,303.200 199.676,303.200 198.972 C 303.200 198.202,302.992 198.000,302.200 198.000 C 301.394 198.000,301.200 197.802,301.200 196.976 C 301.200 196.413,301.036 196.054,300.836 196.178 C 300.128 196.615,299.285 195.963,299.499 195.144 C 299.639 194.606,299.525 194.366,299.155 194.417 C 298.020 194.576,297.680 194.375,297.436 193.400 C 297.274 192.754,296.904 192.400,296.392 192.400 C 295.809 192.400,295.600 192.130,295.600 191.376 C 295.600 190.813,295.432 190.456,295.228 190.583 C 295.023 190.709,294.740 190.627,294.600 190.400 C 294.460 190.173,294.179 190.089,293.977 190.214 C 293.775 190.339,293.709 190.180,293.832 189.861 C 293.954 189.542,293.870 189.167,293.645 189.028 C 293.419 188.888,293.329 188.528,293.445 188.228 C 293.713 187.529,292.950 187.033,292.566 187.655 C 292.385 187.948,292.450 188.016,292.738 187.838 C 292.992 187.681,293.200 187.724,293.200 187.934 C 293.200 188.143,292.955 188.408,292.656 188.523 C 292.293 188.662,292.130 188.444,292.165 187.866 C 292.194 187.390,291.943 186.762,291.609 186.470 C 291.274 186.179,291.225 186.055,291.500 186.194 C 292.346 186.623,292.052 185.825,291.158 185.267 C 290.461 184.831,290.371 184.832,290.635 185.270 C 290.899 185.709,290.842 185.709,290.305 185.274 C 289.948 184.985,289.724 184.395,289.807 183.964 C 289.890 183.532,289.804 183.274,289.615 183.391 C 289.114 183.701,287.966 183.178,288.226 182.758 C 288.348 182.561,288.172 182.400,287.836 182.400 C 287.483 182.400,287.314 182.169,287.435 181.853 C 287.562 181.523,287.302 181.215,286.782 181.079 C 286.308 180.955,286.026 180.682,286.155 180.472 C 286.936 179.209,281.401 178.673,280.287 179.904 M234.075 277.625 C 234.171 277.914,234.486 278.229,234.775 278.325 C 235.075 278.425,235.225 278.275,235.125 277.975 C 235.029 277.686,234.714 277.371,234.425 277.275 C 234.125 277.175,233.975 277.325,234.075 277.625 M29.252 279.337 C 29.007 279.632,28.895 279.992,29.003 280.137 C 29.112 280.282,29.082 280.312,28.937 280.203 C 28.792 280.095,28.432 280.207,28.137 280.452 C 27.251 281.187,27.532 280.495,28.475 279.616 C 29.467 278.692,29.923 278.528,29.252 279.337 M1.439 307.538 C 1.300 307.761,1.382 308.065,1.620 308.212 C 2.235 308.593,2.632 308.072,2.118 307.558 C 1.831 307.271,1.607 307.264,1.439 307.538 " stroke="none" fill="#9c34fc" fill-rule="evenodd"></path><path id="path2" d="M267.838 310.955 C 268.110 311.663,270.964 312.400,273.432 312.400 C 275.287 312.400,275.360 312.451,279.255 316.457 C 281.425 318.688,283.200 320.656,283.200 320.830 C 283.200 321.004,283.560 321.260,284.000 321.400 C 284.440 321.540,284.800 321.916,284.800 322.236 C 284.800 322.555,285.235 323.015,285.766 323.257 C 286.297 323.499,286.821 324.036,286.929 324.449 C 287.037 324.862,287.391 325.200,287.716 325.200 C 288.041 325.200,288.404 325.573,288.524 326.030 C 288.643 326.486,289.114 326.957,289.570 327.076 C 290.027 327.196,290.400 327.538,290.400 327.837 C 290.400 328.137,290.850 328.676,291.400 329.037 C 291.950 329.397,292.400 329.929,292.400 330.219 C 292.400 330.509,292.760 330.860,293.200 331.000 C 293.640 331.140,294.000 331.516,294.000 331.837 C 294.000 332.157,294.450 332.591,295.000 332.800 C 295.550 333.009,296.000 333.472,296.000 333.828 C 296.000 334.184,296.339 334.564,296.754 334.672 C 297.169 334.781,297.664 335.202,297.854 335.608 C 298.190 336.326,305.268 344.032,309.500 348.288 C 310.655 349.449,311.600 350.580,311.600 350.800 C 311.600 351.020,311.874 351.200,312.210 351.200 C 312.545 351.200,312.991 351.650,313.200 352.200 C 313.409 352.750,313.855 353.200,314.190 353.200 C 314.526 353.200,314.800 353.404,314.800 353.653 C 314.800 353.903,315.700 354.993,316.800 356.076 C 317.900 357.158,318.800 358.202,318.800 358.395 C 318.800 358.588,319.151 358.857,319.580 358.994 C 320.008 359.130,320.470 359.592,320.606 360.020 C 320.743 360.449,321.116 360.800,321.437 360.800 C 321.757 360.800,322.191 361.250,322.400 361.800 C 322.609 362.350,323.026 362.800,323.326 362.800 C 323.626 362.800,324.077 363.250,324.327 363.800 C 324.578 364.350,325.057 364.800,325.391 364.800 C 325.726 364.800,326.000 365.007,326.000 365.260 C 326.000 365.513,326.900 366.583,328.000 367.637 C 329.100 368.692,330.000 369.745,330.000 369.977 C 330.000 370.210,330.276 370.400,330.613 370.400 C 330.949 370.400,331.340 370.715,331.480 371.100 C 331.620 371.485,333.038 373.150,334.631 374.800 C 336.224 376.450,338.399 378.766,339.464 379.947 C 340.529 381.129,343.034 383.754,345.032 385.782 C 347.030 387.810,348.779 389.769,348.920 390.135 C 349.060 390.501,349.422 390.800,349.723 390.800 C 350.025 390.800,350.477 391.250,350.727 391.800 C 350.978 392.350,351.457 392.800,351.791 392.800 C 352.126 392.800,352.400 393.074,352.400 393.409 C 352.400 393.743,352.850 394.222,353.400 394.473 C 353.950 394.723,354.400 395.088,354.400 395.284 C 354.400 395.812,357.008 398.400,357.540 398.400 C 357.793 398.400,358.000 398.777,358.000 399.237 C 358.000 399.720,358.318 400.158,358.751 400.271 C 359.164 400.379,359.701 400.903,359.943 401.434 C 360.185 401.965,360.657 402.400,360.991 402.400 C 361.326 402.400,361.600 402.607,361.600 402.860 C 361.600 403.113,362.455 404.170,363.500 405.208 C 369.486 411.158,370.000 411.862,369.772 413.803 C 369.532 415.839,370.334 416.341,371.109 414.640 C 371.789 413.148,371.299 412.153,368.446 409.230 C 366.078 406.804,360.175 400.618,349.363 389.230 C 347.363 387.124,345.023 384.604,344.163 383.632 C 343.304 382.660,341.430 380.662,340.000 379.193 C 338.570 377.723,334.610 373.590,331.200 370.007 C 327.790 366.424,324.280 362.752,323.399 361.846 C 322.518 360.941,318.848 357.050,315.243 353.200 C 307.366 344.790,299.497 336.484,294.600 331.413 C 289.100 325.717,279.746 315.845,277.977 313.868 C 276.409 312.116,276.372 312.101,273.298 311.919 C 271.514 311.813,269.653 311.450,268.911 311.063 C 267.890 310.530,267.667 310.508,267.838 310.955 M119.309 311.555 C 118.234 311.982,116.941 313.023,115.760 314.413 C 113.302 317.306,109.646 321.470,108.400 322.798 C 107.239 324.036,104.994 326.648,101.696 330.600 C 99.056 333.764,96.593 336.563,95.380 337.778 C 94.930 338.230,92.685 340.850,90.392 343.600 C 88.100 346.350,85.480 349.391,84.570 350.358 C 82.018 353.070,81.622 353.520,78.200 357.600 C 76.440 359.698,74.640 361.783,74.200 362.233 C 73.760 362.683,72.590 364.004,71.600 365.168 C 70.610 366.333,69.510 367.582,69.155 367.943 C 68.800 368.304,66.994 370.400,65.143 372.600 C 63.291 374.800,61.062 377.394,60.188 378.365 C 57.049 381.852,56.592 382.366,56.050 383.015 C 52.297 387.509,46.506 394.167,44.708 396.057 C 44.328 396.456,42.154 398.992,39.877 401.692 C 31.411 411.731,28.353 414.800,26.817 414.800 C 26.148 414.800,25.600 414.975,25.600 415.188 C 25.600 415.415,26.307 415.479,27.300 415.343 C 29.149 415.089,30.400 414.563,30.400 414.039 C 30.400 413.857,31.295 412.738,32.389 411.553 C 33.483 410.369,34.383 409.196,34.389 408.946 C 34.395 408.696,34.850 408.197,35.400 407.837 C 35.950 407.476,36.400 406.928,36.400 406.618 C 36.400 406.308,36.760 405.940,37.200 405.800 C 37.640 405.660,38.000 405.401,38.000 405.224 C 38.000 405.048,38.855 403.989,39.900 402.873 C 40.945 401.757,42.250 400.266,42.800 399.560 C 43.350 398.855,44.295 397.696,44.900 396.986 C 45.505 396.276,46.000 395.514,46.000 395.294 C 46.000 395.074,46.360 394.799,46.800 394.684 C 47.240 394.569,47.600 394.209,47.600 393.883 C 47.600 393.558,48.050 392.997,48.600 392.637 C 49.150 392.276,49.600 391.716,49.600 391.391 C 49.600 391.066,49.876 390.800,50.213 390.800 C 50.549 390.800,50.945 390.488,51.091 390.107 C 51.237 389.726,52.177 388.572,53.178 387.543 C 54.180 386.514,55.450 385.088,56.000 384.373 C 57.424 382.524,58.858 380.844,59.900 379.805 C 60.395 379.312,60.800 378.716,60.800 378.481 C 60.800 378.246,61.160 377.940,61.600 377.800 C 62.040 377.660,62.400 377.292,62.400 376.982 C 62.400 376.672,62.850 376.124,63.400 375.763 C 63.950 375.403,64.400 374.871,64.400 374.581 C 64.400 374.291,64.760 373.940,65.200 373.800 C 65.640 373.660,66.000 373.387,66.000 373.194 C 66.000 373.000,66.405 372.401,66.900 371.864 C 67.395 371.327,68.340 370.208,69.000 369.379 C 69.660 368.549,70.605 367.474,71.100 366.990 C 71.595 366.505,72.000 365.925,72.000 365.700 C 72.000 365.476,72.450 364.997,73.000 364.637 C 73.550 364.276,74.000 363.716,74.000 363.391 C 74.000 363.066,74.276 362.800,74.613 362.800 C 74.949 362.800,75.345 362.485,75.493 362.100 C 75.640 361.715,76.534 360.636,77.480 359.702 C 78.426 358.769,79.200 357.832,79.200 357.622 C 79.200 357.412,79.452 357.096,79.760 356.920 C 80.400 356.554,83.600 352.380,83.600 351.911 C 83.600 351.740,83.874 351.600,84.210 351.600 C 84.545 351.600,84.991 351.150,85.200 350.600 C 85.409 350.050,85.769 349.600,85.999 349.600 C 86.229 349.600,86.622 349.150,86.873 348.600 C 87.123 348.050,87.574 347.600,87.874 347.600 C 88.174 347.600,88.584 347.169,88.784 346.642 C 88.984 346.115,89.310 345.620,89.508 345.542 C 90.067 345.322,94.800 339.693,94.800 339.249 C 94.800 339.032,95.160 338.740,95.600 338.600 C 96.040 338.460,96.400 338.109,96.400 337.819 C 96.400 337.529,96.850 336.997,97.400 336.637 C 97.950 336.276,98.400 335.805,98.400 335.588 C 98.400 335.372,99.210 334.397,100.200 333.421 C 101.190 332.445,102.000 331.456,102.000 331.223 C 102.000 330.990,102.136 330.800,102.303 330.800 C 102.711 330.800,108.000 324.555,108.000 324.074 C 108.000 323.864,108.360 323.599,108.800 323.484 C 109.260 323.364,109.600 322.938,109.600 322.484 C 109.600 322.020,109.943 321.604,110.430 321.476 C 110.886 321.357,111.355 320.892,111.473 320.443 C 111.590 319.994,112.027 319.518,112.443 319.386 C 112.859 319.254,113.200 318.952,113.200 318.715 C 113.200 318.478,113.571 317.905,114.024 317.442 C 114.477 316.979,115.819 315.565,117.006 314.300 C 118.194 313.035,119.514 312.000,119.940 312.000 C 120.366 312.000,120.818 311.730,120.945 311.400 C 121.071 311.070,121.136 310.819,121.087 310.841 C 121.039 310.864,120.239 311.185,119.309 311.555 M278.800 415.991 L 271.000 416.209 278.834 416.405 C 284.938 416.557,286.667 416.490,286.667 416.100 C 286.667 415.825,286.652 415.639,286.633 415.687 C 286.615 415.735,283.090 415.872,278.800 415.991 M233.284 417.044 C 232.845 417.517,234.105 417.600,241.761 417.600 C 246.706 417.600,250.836 417.465,250.938 417.300 C 251.040 417.135,247.338 417.064,242.711 417.141 C 237.422 417.230,234.206 417.135,234.049 416.885 C 233.896 416.641,233.602 416.702,233.284 417.044 M41.123 417.499 C 43.831 417.568,48.151 417.568,50.723 417.499 C 53.295 417.429,51.080 417.372,45.800 417.373 C 40.520 417.373,38.415 417.430,41.123 417.499 " stroke="none" fill="#6e0cd4" fill-rule="evenodd"></path><path id="path3" d="M327.851 226.989 C 327.967 227.291,328.309 227.633,328.611 227.749 C 328.957 227.882,329.082 227.757,328.949 227.411 C 328.833 227.109,328.491 226.767,328.189 226.651 C 327.843 226.518,327.718 226.643,327.851 226.989 M180.100 243.300 C 180.155 243.575,179.975 243.755,179.700 243.700 C 179.425 243.645,179.200 243.780,179.200 244.000 C 179.200 244.542,179.736 244.504,180.320 243.920 C 180.904 243.336,180.942 242.800,180.400 242.800 C 180.180 242.800,180.045 243.025,180.100 243.300 M168.779 256.622 C 168.251 257.184,168.088 257.541,168.418 257.414 C 168.939 257.215,170.234 255.600,169.873 255.600 C 169.800 255.600,169.307 256.060,168.779 256.622 M232.400 275.120 C 232.400 275.585,233.290 276.402,233.780 276.388 C 234.011 276.381,233.881 276.190,233.492 275.963 C 233.102 275.736,232.888 275.382,233.015 275.175 C 233.143 274.969,233.057 274.800,232.824 274.800 C 232.591 274.800,232.400 274.944,232.400 275.120 M380.475 285.225 C 380.571 285.514,380.886 285.829,381.175 285.925 C 381.475 286.025,381.625 285.875,381.525 285.575 C 381.429 285.286,381.114 284.971,380.825 284.875 C 380.525 284.775,380.375 284.925,380.475 285.225 M1.355 308.212 C 0.990 308.769,0.764 309.298,0.853 309.387 C 0.942 309.476,1.318 309.020,1.689 308.374 C 2.514 306.936,2.269 306.817,1.355 308.212 M269.392 311.241 C 269.828 311.517,271.582 311.824,273.291 311.923 C 276.376 312.101,276.407 312.115,277.977 313.868 C 279.746 315.845,289.100 325.717,294.600 331.413 C 299.497 336.484,307.366 344.790,315.243 353.200 C 318.848 357.050,322.518 360.941,323.399 361.846 C 324.280 362.752,327.790 366.424,331.200 370.007 C 334.610 373.590,338.570 377.723,340.000 379.193 C 341.430 380.662,343.304 382.660,344.163 383.632 C 345.023 384.604,347.363 387.124,349.363 389.230 C 360.280 400.728,366.087 406.814,368.520 409.305 C 371.282 412.134,371.752 413.215,370.993 415.000 C 370.698 415.693,370.790 415.669,371.676 414.828 C 373.065 413.509,372.801 413.116,365.141 405.087 C 357.509 397.086,358.950 398.608,351.223 390.393 C 342.753 381.387,340.252 378.743,337.800 376.204 C 336.700 375.065,332.920 371.105,329.400 367.405 C 325.880 363.705,322.717 360.391,322.370 360.039 C 322.024 359.688,318.874 356.342,315.370 352.605 C 311.867 348.868,308.730 345.527,308.400 345.182 C 303.218 339.754,292.620 328.662,291.400 327.389 C 290.520 326.471,288.726 324.568,287.414 323.160 C 286.102 321.752,283.146 318.622,280.846 316.205 L 276.664 311.811 273.432 311.546 C 271.654 311.401,269.840 311.160,269.400 311.011 C 268.606 310.742,268.606 310.743,269.392 311.241 M118.108 311.540 C 117.618 311.683,116.023 313.240,114.563 315.000 C 112.032 318.052,107.844 322.846,106.259 324.506 C 105.851 324.933,103.641 327.511,101.348 330.234 C 99.055 332.957,96.779 335.607,96.289 336.123 C 94.585 337.920,92.561 340.227,89.204 344.200 C 87.346 346.400,84.371 349.820,82.595 351.800 C 80.819 353.780,77.847 357.200,75.991 359.400 C 73.063 362.872,71.292 364.883,68.800 367.570 C 68.470 367.926,66.220 370.551,63.800 373.404 C 61.380 376.257,59.130 378.879,58.800 379.231 C 57.567 380.545,53.222 385.502,50.754 388.410 C 48.080 391.561,46.607 393.238,43.575 396.585 C 42.571 397.693,40.701 399.860,39.418 401.400 C 32.021 410.283,28.070 414.291,26.530 414.473 C 25.943 414.543,25.416 414.830,25.361 415.110 C 25.305 415.390,25.351 415.435,25.463 415.210 C 25.575 414.985,26.200 414.800,26.851 414.800 C 28.349 414.800,31.478 411.651,39.877 401.692 C 42.154 398.992,44.328 396.456,44.708 396.057 C 46.506 394.167,52.297 387.509,56.050 383.015 C 56.592 382.366,57.049 381.852,60.188 378.365 C 61.062 377.394,63.291 374.800,65.143 372.600 C 66.994 370.400,68.800 368.304,69.155 367.943 C 69.510 367.582,70.610 366.333,71.600 365.168 C 72.590 364.004,73.760 362.683,74.200 362.233 C 74.640 361.783,76.440 359.698,78.200 357.600 C 81.622 353.520,82.018 353.070,84.570 350.358 C 85.480 349.391,88.100 346.350,90.392 343.600 C 92.685 340.850,94.930 338.230,95.380 337.778 C 96.593 336.563,99.056 333.764,101.696 330.600 C 104.994 326.648,107.239 324.036,108.400 322.798 C 109.661 321.454,113.330 317.273,115.769 314.400 C 116.796 313.190,118.213 311.989,118.918 311.730 C 120.263 311.238,119.644 311.092,118.108 311.540 M375.416 415.739 C 374.930 416.094,374.829 416.371,375.119 416.550 C 375.362 416.700,375.755 416.457,375.994 416.011 C 376.504 415.057,376.409 415.013,375.416 415.739 M275.121 417.099 C 277.388 417.170,280.988 417.170,283.121 417.098 C 285.255 417.026,283.400 416.968,279.000 416.968 C 274.600 416.968,272.855 417.027,275.121 417.099 M75.500 417.498 C 77.755 417.570,81.445 417.570,83.700 417.498 C 85.955 417.427,84.110 417.369,79.600 417.369 C 75.090 417.369,73.245 417.427,75.500 417.498 M147.923 417.499 C 150.631 417.568,154.951 417.568,157.523 417.499 C 160.095 417.429,157.880 417.372,152.600 417.373 C 147.320 417.373,145.215 417.430,147.923 417.499 M219.323 417.499 C 221.920 417.569,226.060 417.568,228.523 417.498 C 230.985 417.428,228.860 417.371,223.800 417.372 C 218.740 417.372,216.725 417.429,219.323 417.499 " stroke="none" fill="#7c14e0" fill-rule="evenodd"></path><path id="path4" d="M127.260 174.242 C 126.962 174.578,126.799 174.932,126.895 175.029 C 126.992 175.126,127.398 174.844,127.798 174.402 C 128.197 173.961,128.361 173.607,128.162 173.615 C 127.963 173.624,127.557 173.905,127.260 174.242 M272.475 189.216 C 271.994 189.664,271.600 190.146,271.600 190.285 C 271.600 190.425,272.050 190.117,272.600 189.600 C 273.538 188.719,273.771 188.400,273.475 188.400 C 273.407 188.400,272.957 188.767,272.475 189.216 M238.400 281.104 C 238.400 281.271,238.764 281.635,239.209 281.913 C 239.959 282.381,239.981 282.359,239.513 281.609 C 239.009 280.803,238.400 280.526,238.400 281.104 M115.700 312.383 C 114.875 313.253,113.750 314.502,113.200 315.158 C 110.915 317.881,109.934 319.057,109.091 320.086 C 108.601 320.683,107.390 322.057,106.400 323.138 C 105.410 324.219,103.790 326.053,102.800 327.211 C 101.810 328.370,100.787 329.537,100.527 329.804 C 100.012 330.332,97.283 333.552,95.880 335.289 C 95.396 335.887,94.235 337.178,93.300 338.157 C 92.365 339.136,91.600 340.046,91.600 340.179 C 91.600 340.312,90.835 341.197,89.900 342.145 C 88.965 343.093,87.660 344.551,87.000 345.384 C 85.723 346.996,84.080 348.880,82.788 350.214 C 82.355 350.662,82.000 351.158,82.000 351.316 C 82.000 351.475,81.190 352.403,80.200 353.379 C 79.210 354.355,78.400 355.247,78.400 355.361 C 78.400 355.475,77.500 356.482,76.400 357.600 C 75.300 358.718,74.399 359.760,74.397 359.916 C 74.394 360.172,71.626 363.343,69.597 365.414 C 69.159 365.862,68.800 366.447,68.800 366.714 C 68.800 366.981,68.530 367.200,68.200 367.200 C 67.870 367.200,67.600 367.374,67.600 367.586 C 67.600 367.799,67.105 368.489,66.500 369.119 C 64.839 370.851,61.948 374.120,60.600 375.790 C 59.940 376.608,58.995 377.652,58.500 378.111 C 58.005 378.569,57.600 379.076,57.600 379.238 C 57.600 379.518,56.390 380.900,52.400 385.180 C 51.410 386.242,50.060 387.783,49.400 388.605 C 48.091 390.234,46.424 392.138,45.188 393.414 C 44.755 393.862,44.400 394.348,44.400 394.495 C 44.400 394.642,43.545 395.635,42.500 396.703 C 40.637 398.607,38.335 401.233,36.116 403.985 C 35.502 404.747,34.595 405.758,34.100 406.231 C 33.605 406.705,33.200 407.290,33.200 407.532 C 33.200 407.774,32.852 408.158,32.427 408.386 C 32.002 408.613,31.540 409.159,31.400 409.600 C 31.260 410.040,30.917 410.400,30.637 410.400 C 30.357 410.400,29.923 410.850,29.673 411.400 C 29.422 411.950,28.950 412.400,28.623 412.400 C 28.296 412.400,27.842 412.747,27.615 413.172 C 27.388 413.597,26.796 414.022,26.301 414.118 C 25.507 414.270,25.528 414.298,26.472 414.346 C 27.971 414.422,31.577 410.817,39.418 401.400 C 40.701 399.860,42.571 397.693,43.575 396.585 C 46.607 393.238,48.080 391.561,50.754 388.410 C 53.222 385.502,57.567 380.545,58.800 379.231 C 59.130 378.879,61.380 376.257,63.800 373.404 C 66.220 370.551,68.470 367.926,68.800 367.570 C 71.292 364.883,73.063 362.872,75.991 359.400 C 77.847 357.200,80.819 353.780,82.595 351.800 C 84.371 349.820,87.346 346.400,89.204 344.200 C 92.561 340.227,94.585 337.920,96.289 336.123 C 96.779 335.607,99.055 332.957,101.348 330.234 C 103.641 327.511,105.851 324.933,106.259 324.506 C 107.843 322.846,112.032 318.052,114.563 315.000 C 116.749 312.364,117.515 311.719,118.908 311.339 L 120.600 310.879 118.900 310.839 C 117.414 310.805,117.009 311.000,115.700 312.383 M270.400 311.178 C 270.950 311.366,272.529 311.538,273.910 311.560 L 276.420 311.600 280.729 316.100 C 283.099 318.575,286.109 321.752,287.419 323.160 C 288.728 324.568,290.520 326.471,291.400 327.389 C 292.620 328.662,303.218 339.754,308.400 345.182 C 308.730 345.527,311.867 348.868,315.370 352.605 C 318.874 356.342,322.024 359.688,322.370 360.039 C 322.717 360.391,325.880 363.705,329.400 367.405 C 332.920 371.105,336.700 375.065,337.800 376.204 C 340.252 378.743,342.753 381.387,351.223 390.393 C 358.950 398.608,357.509 397.086,365.141 405.087 C 371.762 412.027,373.193 413.874,372.232 414.243 C 370.906 414.752,371.270 415.463,372.735 415.225 C 374.936 414.867,374.854 413.867,372.438 411.599 C 371.317 410.546,370.400 409.498,370.400 409.270 C 370.400 409.041,370.049 408.743,369.620 408.606 C 369.192 408.470,368.733 408.017,368.600 407.600 C 368.467 407.183,368.008 406.730,367.580 406.594 C 367.151 406.457,366.800 406.155,366.800 405.921 C 366.800 405.687,365.647 404.304,364.237 402.848 C 362.828 401.391,361.163 399.650,360.537 398.978 C 354.255 392.226,349.144 386.824,345.900 383.505 C 343.755 381.311,342.000 379.367,342.000 379.185 C 342.000 379.003,341.640 378.740,341.200 378.600 C 340.760 378.460,340.400 378.180,340.400 377.976 C 340.400 377.773,338.690 375.880,336.600 373.769 C 334.510 371.659,332.800 369.779,332.800 369.593 C 332.800 369.406,332.440 369.140,332.000 369.000 C 331.560 368.860,331.200 368.575,331.200 368.366 C 331.200 368.156,330.075 366.853,328.700 365.469 C 327.325 364.086,325.495 362.154,324.632 361.177 C 322.675 358.959,313.485 349.230,308.300 343.888 C 306.155 341.678,304.400 339.719,304.400 339.535 C 304.400 339.351,304.126 339.200,303.790 339.200 C 303.455 339.200,303.009 338.750,302.800 338.200 C 302.591 337.650,302.145 337.200,301.810 337.200 C 301.474 337.200,301.200 336.996,301.200 336.747 C 301.200 336.497,300.300 335.407,299.200 334.324 C 298.100 333.242,297.200 332.198,297.200 332.005 C 297.200 331.812,296.840 331.540,296.400 331.400 C 295.960 331.260,295.600 330.971,295.600 330.757 C 295.600 330.544,294.745 329.510,293.700 328.461 C 292.655 327.412,289.615 324.224,286.944 321.377 C 284.273 318.529,280.975 315.030,279.615 313.600 L 277.143 311.000 273.271 310.918 C 270.713 310.864,269.739 310.953,270.400 311.178 " stroke="none" fill="#841cec" fill-rule="evenodd"></path></g></svg>