<svg id="svg" version="1.1" xmlns="http://www.w3.org/2000/svg" xmlns:xlink="http://www.w3.org/1999/xlink" width="400" height="400" viewBox="0, 0, 400,400"><g id="svgg"><path id="path0" d="M141.833 27.311 C 142.154 27.369,166.079 27.379,195.000 27.333 L 247.583 27.249 194.417 27.227 C 165.175 27.215,141.512 27.253,141.833 27.311 M331.083 201.436 C 330.717 201.579,330.154 201.798,329.833 201.923 C 329.194 202.172,327.391 202.851,326.083 203.333 C 324.822 203.799,322.988 204.488,322.333 204.743 C 322.012 204.867,321.337 205.121,320.833 205.305 C 319.658 205.736,317.749 206.451,317.000 206.743 C 316.679 206.867,315.967 207.133,315.417 207.333 C 314.867 207.533,314.154 207.799,313.833 207.924 C 313.084 208.215,311.175 208.931,310.000 209.361 C 309.496 209.546,308.821 209.799,308.500 209.924 C 307.846 210.178,306.011 210.868,304.750 211.333 C 303.489 211.799,301.654 212.488,301.000 212.743 C 300.679 212.867,300.004 213.121,299.500 213.305 C 298.325 213.736,296.416 214.451,295.667 214.743 C 295.346 214.867,294.671 215.121,294.167 215.306 C 293.662 215.491,292.425 215.956,291.417 216.339 C 290.408 216.722,289.171 217.187,288.667 217.371 C 288.162 217.556,287.412 217.839,287.000 218.000 C 286.587 218.161,285.800 218.458,285.250 218.660 C 284.700 218.862,283.987 219.130,283.667 219.256 C 283.038 219.502,281.261 220.170,279.917 220.667 C 278.655 221.132,276.821 221.822,276.167 222.076 C 275.846 222.201,275.171 222.454,274.667 222.639 C 273.492 223.069,271.583 223.785,270.833 224.076 C 270.512 224.201,269.837 224.454,269.333 224.639 C 268.158 225.069,266.249 225.785,265.500 226.076 C 265.179 226.201,264.504 226.454,264.000 226.639 C 262.825 227.069,260.916 227.785,260.167 228.076 C 259.846 228.201,259.171 228.454,258.667 228.639 C 257.492 229.069,255.583 229.785,254.833 230.076 C 254.512 230.201,253.838 230.454,253.333 230.639 C 251.248 231.402,250.053 231.859,249.536 232.089 C 249.235 232.224,248.913 232.333,248.820 232.333 C 248.727 232.333,248.340 232.483,247.961 232.667 C 247.581 232.850,247.175 233.000,247.058 233.000 C 246.941 233.000,246.598 233.110,246.297 233.244 C 245.797 233.467,244.844 233.832,242.583 234.667 C 240.712 235.357,239.388 235.870,238.891 236.095 C 238.603 236.226,238.280 236.333,238.175 236.333 C 238.070 236.333,237.673 236.483,237.294 236.667 C 236.915 236.850,236.530 237.000,236.440 237.000 C 236.267 237.000,234.448 237.691,233.558 238.095 C 233.269 238.226,232.947 238.333,232.842 238.333 C 232.737 238.333,232.340 238.483,231.961 238.667 C 231.581 238.850,231.197 239.000,231.107 239.000 C 230.934 239.000,229.115 239.691,228.225 240.095 C 227.936 240.226,227.614 240.333,227.508 240.333 C 227.403 240.333,227.007 240.483,226.627 240.667 C 226.248 240.850,225.816 241.000,225.667 241.000 C 225.327 241.000,224.649 241.487,224.979 241.495 C 225.140 241.498,225.158 241.561,225.040 241.708 C 224.850 241.944,225.060 242.667,225.318 242.667 C 225.408 242.667,225.452 242.817,225.417 243.000 C 225.381 243.183,225.419 243.333,225.500 243.333 C 225.581 243.333,225.619 243.479,225.585 243.657 C 225.538 243.900,225.593 243.956,225.803 243.883 C 226.018 243.807,226.039 243.832,225.894 243.990 C 225.691 244.210,225.780 244.833,226.014 244.833 C 226.091 244.833,226.245 245.002,226.355 245.208 C 226.542 245.559,226.535 245.567,226.250 245.333 C 225.966 245.100,225.958 245.108,226.140 245.449 C 226.247 245.650,226.413 245.863,226.508 245.921 C 226.603 245.980,226.635 246.172,226.579 246.347 C 226.520 246.534,226.556 246.667,226.667 246.667 C 226.779 246.667,226.813 246.800,226.751 246.995 C 226.693 247.181,226.797 247.664,226.991 248.102 C 227.180 248.530,227.365 249.046,227.402 249.248 C 227.439 249.451,227.634 249.980,227.837 250.424 C 228.130 251.069,232.148 262.817,235.415 272.583 C 235.860 273.915,241.339 290.141,244.081 298.250 C 244.391 299.167,246.340 304.942,248.414 311.083 C 250.487 317.225,252.589 323.450,253.085 324.917 C 253.582 326.383,255.534 332.158,257.424 337.750 C 259.315 343.342,261.040 348.442,261.258 349.083 C 264.977 360.010,258.718 370.830,247.689 372.541 C 246.601 372.710,258.027 372.746,307.714 372.728 L 369.083 372.706 370.513 372.288 C 371.300 372.059,372.177 371.750,372.463 371.602 C 372.749 371.454,373.063 371.333,373.161 371.333 C 373.313 371.333,374.215 370.847,375.413 370.118 C 378.424 368.286,381.468 364.427,382.475 361.167 C 382.574 360.846,382.782 360.208,382.938 359.750 C 383.146 359.135,383.239 358.146,383.293 355.978 C 383.381 352.387,383.343 352.220,380.659 344.333 C 379.645 341.354,378.750 338.692,378.670 338.417 C 378.589 338.142,377.538 335.029,376.334 331.500 C 375.131 327.971,374.081 324.858,374.002 324.583 C 373.923 324.308,373.022 321.646,372.001 318.667 C 370.980 315.688,370.084 313.025,370.010 312.750 C 369.937 312.475,369.766 311.950,369.630 311.583 C 369.495 311.217,369.296 310.654,369.188 310.333 C 369.079 310.012,368.396 307.987,367.670 305.833 C 366.944 303.679,366.260 301.654,366.150 301.333 C 365.877 300.539,365.425 299.207,365.188 298.500 C 364.719 297.103,361.661 288.029,361.481 287.500 C 361.372 287.179,361.171 286.617,361.036 286.250 C 360.901 285.883,360.730 285.358,360.656 285.083 C 360.582 284.808,359.801 282.483,358.922 279.917 C 358.043 277.350,357.296 275.137,357.262 275.000 C 357.194 274.727,357.199 274.742,354.992 268.333 C 354.156 265.904,353.413 263.692,353.343 263.417 C 353.272 263.142,352.972 262.242,352.676 261.417 C 352.379 260.592,352.078 259.692,352.006 259.417 C 351.935 259.142,351.766 258.617,351.630 258.250 C 351.271 257.276,351.113 256.814,349.667 252.500 C 348.220 248.186,348.062 247.724,347.703 246.750 C 347.568 246.383,347.397 245.858,347.323 245.583 C 347.249 245.308,346.465 242.983,345.581 240.417 C 344.697 237.850,343.911 235.525,343.835 235.250 C 343.699 234.762,343.535 234.279,343.040 232.917 C 342.907 232.550,342.278 230.683,341.644 228.768 C 341.009 226.853,340.349 224.941,340.177 224.518 C 340.005 224.096,339.698 223.188,339.495 222.500 C 339.291 221.813,339.065 221.100,338.993 220.917 C 338.920 220.733,338.623 219.871,338.332 219.000 C 338.042 218.129,337.761 217.304,337.708 217.167 C 337.655 217.029,337.603 216.879,337.592 216.833 C 337.581 216.787,337.454 216.412,337.309 216.000 C 337.164 215.588,336.959 214.987,336.853 214.667 C 335.574 210.792,335.263 209.909,335.158 209.867 C 335.091 209.840,335.071 209.682,335.114 209.517 C 335.157 209.352,335.078 209.102,334.938 208.961 C 334.797 208.821,334.721 208.668,334.768 208.621 C 334.815 208.574,334.640 208.059,334.379 207.476 C 334.119 206.894,333.910 206.304,333.915 206.167 C 333.921 206.029,333.811 205.817,333.671 205.696 C 333.531 205.575,333.510 205.523,333.625 205.581 C 333.890 205.715,333.896 205.463,333.633 205.200 C 333.523 205.090,333.488 205.000,333.554 205.000 C 333.621 205.000,333.559 204.775,333.417 204.500 C 333.274 204.225,333.216 203.998,333.287 203.995 C 333.358 203.992,333.304 203.898,333.167 203.786 C 333.029 203.675,332.890 203.358,332.858 203.083 C 332.826 202.808,332.715 202.531,332.613 202.467 C 332.510 202.404,332.480 202.298,332.545 202.233 C 332.610 202.167,332.587 202.021,332.493 201.908 C 332.399 201.795,332.343 201.602,332.369 201.480 C 332.438 201.158,331.851 201.138,331.083 201.436 " stroke="none" fill="#2c9ce3" fill-rule="evenodd"></path><path id="path1" d="M107.567 83.100 C 107.616 83.228,107.579 83.333,107.485 83.333 C 107.391 83.333,107.349 83.391,107.393 83.461 C 107.436 83.532,107.331 83.888,107.160 84.253 C 106.988 84.618,106.887 85.048,106.935 85.208 C 106.983 85.369,106.942 85.500,106.845 85.500 C 106.747 85.500,106.667 85.615,106.667 85.756 C 106.667 85.897,106.546 86.196,106.398 86.421 C 106.251 86.646,106.173 86.944,106.226 87.082 C 106.279 87.220,106.266 87.333,106.196 87.333 C 106.060 87.333,105.593 88.777,105.616 89.125 C 105.623 89.240,105.572 89.333,105.502 89.333 C 105.363 89.333,105.104 90.289,105.152 90.625 C 105.168 90.740,105.099 90.833,104.997 90.833 C 104.896 90.833,104.860 90.908,104.917 91.000 C 104.973 91.092,104.936 91.167,104.833 91.167 C 104.730 91.167,104.665 91.298,104.689 91.458 C 104.713 91.619,104.603 91.994,104.445 92.292 C 104.287 92.590,104.207 92.833,104.266 92.833 C 104.326 92.833,104.281 92.946,104.167 93.083 C 104.053 93.221,104.003 93.333,104.057 93.333 C 104.111 93.333,104.010 93.671,103.833 94.083 C 103.657 94.496,103.548 94.833,103.591 94.833 C 103.635 94.833,103.551 95.115,103.403 95.458 C 103.256 95.802,102.946 96.683,102.714 97.417 C 102.482 98.150,102.217 98.844,102.126 98.958 C 102.034 99.073,102.007 99.167,102.065 99.167 C 102.123 99.167,102.059 99.436,101.921 99.765 C 101.609 100.513,100.159 104.803,100.072 105.240 C 100.036 105.418,99.855 105.886,99.670 106.280 C 99.485 106.674,99.332 107.128,99.330 107.290 C 99.328 107.451,99.181 107.902,99.004 108.292 C 98.828 108.681,98.714 109.000,98.751 109.000 C 98.788 109.000,98.549 109.731,98.220 110.625 C 97.890 111.519,97.485 112.700,97.321 113.250 C 97.156 113.800,96.374 116.125,95.583 118.417 C 94.792 120.708,94.078 122.808,93.998 123.083 C 93.917 123.358,93.596 124.333,93.284 125.250 C 92.972 126.167,92.519 127.517,92.276 128.250 C 92.034 128.983,91.610 130.221,91.335 131.000 C 91.059 131.779,90.762 132.679,90.675 133.000 C 90.587 133.321,90.167 134.558,89.741 135.750 C 89.316 136.942,88.868 138.267,88.747 138.695 C 88.625 139.124,88.447 139.620,88.352 139.799 C 88.256 139.977,88.105 140.414,88.015 140.770 C 87.827 141.518,87.369 142.932,87.158 143.417 C 87.078 143.600,86.714 144.650,86.349 145.750 C 85.984 146.850,85.606 147.975,85.508 148.250 C 85.071 149.476,84.125 152.296,83.998 152.750 C 83.920 153.025,83.321 154.787,82.667 156.667 C 82.012 158.546,81.404 160.374,81.316 160.730 C 81.227 161.086,81.077 161.523,80.982 161.701 C 80.886 161.880,80.708 162.376,80.587 162.805 C 80.465 163.233,79.416 166.358,78.256 169.750 C 77.095 173.142,76.078 176.142,75.995 176.417 C 75.913 176.692,75.611 177.592,75.324 178.417 C 75.038 179.242,74.742 180.142,74.666 180.417 C 74.590 180.692,73.841 182.904,73.002 185.333 C 72.163 187.762,71.437 189.900,71.388 190.083 C 71.340 190.267,71.167 190.792,71.003 191.250 C 70.405 192.929,70.291 193.265,70.072 194.000 C 69.831 194.809,69.360 196.211,69.149 196.750 C 69.077 196.933,68.716 197.983,68.346 199.083 C 67.977 200.183,67.597 201.308,67.502 201.583 C 66.717 203.865,66.115 205.665,65.999 206.083 C 65.923 206.358,65.324 208.121,64.669 210.000 C 64.013 211.879,63.416 213.642,63.341 213.917 C 63.267 214.192,63.115 214.642,63.004 214.917 C 62.892 215.192,62.704 215.754,62.585 216.167 C 62.466 216.579,61.419 219.692,60.257 223.083 C 59.095 226.475,58.070 229.547,57.980 229.910 C 57.890 230.273,57.758 230.648,57.687 230.743 C 57.616 230.839,57.349 231.592,57.093 232.417 C 56.838 233.242,56.556 234.104,56.466 234.333 C 56.376 234.563,55.712 236.512,54.991 238.667 C 54.270 240.821,53.590 242.846,53.480 243.167 C 53.190 244.010,52.749 245.292,52.419 246.250 C 52.261 246.708,52.069 247.308,51.994 247.583 C 51.848 248.111,51.371 249.521,51.147 250.083 C 50.910 250.680,49.476 254.903,49.336 255.417 C 49.261 255.692,48.962 256.592,48.671 257.417 C 48.381 258.242,48.078 259.142,47.998 259.417 C 47.786 260.145,47.338 261.484,47.050 262.250 C 46.912 262.617,46.541 263.704,46.225 264.667 C 45.908 265.629,45.590 266.567,45.516 266.750 C 45.265 267.377,44.798 268.750,44.667 269.250 C 44.537 269.744,44.183 270.784,43.703 272.083 C 43.568 272.450,43.396 272.975,43.322 273.250 C 43.248 273.525,42.504 275.737,41.668 278.167 C 40.832 280.596,40.074 282.880,39.982 283.243 C 39.891 283.606,39.758 283.981,39.687 284.077 C 39.616 284.172,39.349 284.925,39.093 285.750 C 38.838 286.575,38.570 287.405,38.498 287.595 C 38.160 288.488,36.768 292.640,36.658 293.083 C 36.589 293.358,36.293 294.221,36.000 295.000 C 35.706 295.779,35.398 296.700,35.314 297.047 C 35.231 297.394,35.095 297.807,35.013 297.964 C 34.859 298.257,34.252 300.024,33.998 300.917 C 33.831 301.505,33.339 302.940,33.142 303.417 C 32.934 303.918,32.161 306.181,32.002 306.750 C 31.926 307.025,31.631 307.925,31.347 308.750 C 31.063 309.575,30.802 310.362,30.766 310.500 C 30.730 310.637,30.462 311.425,30.171 312.250 C 29.881 313.075,29.541 314.087,29.417 314.500 C 29.206 315.206,28.091 318.521,27.821 319.250 C 27.753 319.433,27.641 319.733,27.573 319.917 C 27.505 320.100,27.423 320.392,27.389 320.565 C 27.356 320.738,27.179 321.216,26.997 321.628 C 26.816 322.039,26.667 322.484,26.667 322.615 C 26.667 322.747,26.524 323.206,26.351 323.636 C 26.177 324.065,25.841 325.017,25.603 325.750 C 25.366 326.483,24.345 329.521,23.334 332.500 C 22.324 335.479,21.456 338.097,21.407 338.317 C 21.358 338.538,21.254 338.838,21.176 338.984 C 20.986 339.344,18.826 345.813,18.728 346.317 C 18.686 346.538,18.589 346.838,18.513 346.984 C 18.340 347.319,17.606 349.506,17.333 350.500 C 17.220 350.912,17.025 351.579,16.899 351.981 C 16.733 352.513,16.686 353.490,16.724 355.565 C 16.776 358.387,16.828 358.865,17.207 360.000 C 17.314 360.321,17.386 360.641,17.366 360.712 C 17.347 360.782,17.520 361.214,17.752 361.670 C 17.983 362.127,18.129 362.500,18.075 362.500 C 18.022 362.500,18.147 362.800,18.353 363.167 C 18.559 363.533,18.802 363.833,18.892 363.833 C 18.982 363.833,19.006 363.883,18.945 363.944 C 18.885 364.004,19.022 364.299,19.251 364.599 C 19.480 364.899,19.667 365.208,19.667 365.286 C 19.667 365.506,20.342 366.344,21.167 367.147 C 21.579 367.548,21.811 367.818,21.683 367.746 C 21.526 367.659,21.488 367.679,21.567 367.808 C 21.633 367.913,21.791 368.000,21.918 368.000 C 22.046 368.000,22.210 368.102,22.283 368.226 C 22.357 368.350,22.592 368.543,22.806 368.656 C 23.020 368.768,23.155 368.901,23.105 368.951 C 22.994 369.061,24.102 369.831,24.382 369.839 C 24.493 369.842,24.771 369.958,25.000 370.096 L 25.417 370.347 25.000 370.257 C 24.771 370.207,24.906 370.315,25.300 370.497 C 25.695 370.678,26.137 370.947,26.283 371.093 C 26.468 371.278,26.583 371.301,26.664 371.171 C 26.744 371.041,26.844 371.062,26.992 371.240 C 27.109 371.381,27.263 371.460,27.335 371.416 C 27.406 371.371,27.508 371.447,27.561 371.584 C 27.613 371.721,27.738 371.833,27.838 371.833 C 27.938 371.833,27.965 371.740,27.898 371.625 C 27.831 371.510,27.926 371.548,28.110 371.709 C 28.293 371.869,28.498 371.946,28.564 371.880 C 28.631 371.814,28.750 371.865,28.829 371.993 C 28.915 372.133,29.271 372.231,29.720 372.238 C 30.131 372.245,30.429 372.313,30.382 372.389 C 30.334 372.466,30.473 372.511,30.690 372.490 C 30.906 372.468,31.233 372.518,31.417 372.600 C 31.976 372.852,120.555 372.794,121.667 372.542 C 123.969 372.019,126.500 371.105,126.500 370.796 C 126.500 370.725,126.650 370.667,126.833 370.667 C 127.017 370.667,127.167 370.606,127.167 370.531 C 127.167 370.456,127.410 370.277,127.708 370.133 C 129.476 369.276,133.083 365.371,133.835 363.500 C 133.927 363.271,134.110 362.892,134.241 362.658 C 134.372 362.424,134.711 361.524,134.994 360.658 C 135.277 359.792,135.574 358.933,135.653 358.750 C 135.822 358.362,136.461 356.477,136.670 355.750 C 136.809 355.268,137.270 353.849,137.455 353.333 C 138.141 351.424,139.868 346.318,139.933 346.010 C 139.980 345.786,140.153 345.261,140.317 344.843 C 140.682 343.915,141.502 341.507,143.088 336.707 C 143.126 336.591,143.168 336.441,143.181 336.373 C 143.194 336.305,143.355 335.875,143.540 335.417 C 143.724 334.958,143.935 334.358,144.008 334.083 C 144.120 333.664,147.504 323.591,148.431 320.917 C 149.280 318.469,149.495 317.832,150.176 315.750 C 150.445 314.925,150.746 314.025,150.843 313.750 C 151.583 311.664,153.215 306.805,153.337 306.322 C 153.420 305.996,153.603 305.508,153.743 305.239 C 153.883 304.970,153.998 304.615,153.999 304.450 C 154.000 304.285,154.110 303.937,154.245 303.676 C 154.380 303.415,154.563 302.913,154.652 302.559 C 154.877 301.669,155.327 300.308,155.512 299.961 C 155.877 299.277,155.609 298.986,148.458 292.318 C 144.494 288.621,140.087 284.502,138.667 283.165 C 137.246 281.827,134.958 279.687,133.582 278.408 C 118.410 264.304,117.969 263.870,117.255 262.306 C 115.326 258.083,117.408 253.288,121.937 251.529 L 123.083 251.083 147.513 251.037 L 171.943 250.990 172.222 250.405 C 172.376 250.082,172.571 249.541,172.656 249.201 C 172.808 248.592,173.258 247.235,173.522 246.583 C 173.710 246.121,176.492 237.865,176.668 237.250 C 176.746 236.975,177.346 235.213,178.002 233.333 C 178.658 231.454,179.265 229.626,179.353 229.270 C 179.440 228.914,179.596 228.466,179.698 228.274 C 179.801 228.082,179.943 227.698,180.014 227.421 C 180.085 227.143,181.127 224.029,182.330 220.500 C 183.533 216.971,184.585 213.858,184.667 213.583 C 184.848 212.975,185.922 209.776,186.177 209.083 C 186.279 208.808,186.463 208.246,186.587 207.833 C 186.806 207.105,187.076 206.306,187.686 204.583 C 187.849 204.125,188.226 202.944,188.524 201.958 C 188.822 200.973,189.131 200.167,189.209 200.167 C 189.288 200.167,189.313 200.103,189.265 200.024 C 189.217 199.946,189.427 199.140,189.733 198.233 C 190.038 197.325,190.609 195.571,191.001 194.333 C 191.394 193.096,191.936 191.408,192.206 190.583 C 192.476 189.758,192.721 188.967,192.750 188.824 C 192.778 188.682,192.912 188.300,193.048 187.976 C 193.183 187.653,193.236 187.282,193.165 187.152 C 193.095 187.023,192.750 186.066,192.400 185.026 L 191.764 183.135 190.981 182.793 C 190.541 182.601,190.120 182.281,190.021 182.064 C 189.924 181.850,189.655 181.628,189.422 181.570 C 189.169 181.506,189.000 181.346,189.000 181.169 C 189.000 181.007,188.877 180.584,188.726 180.229 C 188.576 179.874,188.396 179.358,188.327 179.083 C 188.258 178.808,188.070 178.208,187.909 177.750 C 187.749 177.292,187.489 176.542,187.333 176.083 C 187.177 175.625,186.918 174.875,186.757 174.417 C 186.596 173.958,186.401 173.358,186.323 173.083 C 186.246 172.808,185.887 171.728,185.526 170.684 C 184.855 168.740,184.700 168.533,183.773 168.343 C 183.316 168.250,183.245 168.121,182.656 166.303 C 181.930 164.061,181.744 163.667,181.417 163.667 C 181.054 163.667,180.885 163.225,178.484 156.000 C 177.953 154.404,177.531 154.053,175.684 153.667 C 175.465 153.621,175.231 153.471,175.165 153.333 C 174.982 152.955,174.481 151.482,174.342 150.914 C 174.275 150.638,174.107 150.150,173.970 149.831 C 173.647 149.079,173.167 147.719,173.000 147.083 C 172.928 146.808,172.737 146.208,172.576 145.750 C 172.415 145.292,172.156 144.542,172.000 144.083 C 171.844 143.625,171.585 142.875,171.424 142.417 C 171.263 141.958,171.076 141.357,171.008 141.079 C 170.804 140.244,170.514 139.843,170.037 139.736 C 168.312 139.351,167.738 138.977,167.390 138.012 C 166.702 136.107,166.461 135.403,166.333 134.917 C 166.210 134.448,166.087 134.083,165.309 131.875 C 165.139 131.394,164.861 130.606,164.691 130.125 C 163.906 127.899,163.790 127.552,163.673 127.083 C 163.351 125.803,163.070 125.409,162.314 125.179 C 161.912 125.057,161.276 124.848,160.901 124.716 L 160.218 124.474 159.347 121.945 C 158.869 120.555,158.415 119.192,158.339 118.917 C 158.264 118.642,158.070 118.042,157.909 117.583 C 157.749 117.125,157.489 116.375,157.333 115.917 C 157.177 115.458,156.918 114.708,156.757 114.250 C 156.596 113.792,156.408 113.192,156.338 112.917 C 155.977 111.491,155.623 111.010,154.655 110.635 C 153.801 110.304,153.701 110.209,153.446 109.491 C 153.240 108.911,153.039 108.654,152.674 108.503 C 152.326 108.359,152.108 108.096,151.932 107.608 C 151.418 106.177,149.802 101.397,149.671 100.917 C 149.596 100.642,149.404 100.042,149.243 99.583 C 148.053 96.192,148.263 96.540,147.167 96.139 C 146.662 95.954,146.025 95.738,145.750 95.659 C 144.842 95.397,137.257 92.827,136.917 92.666 C 136.733 92.579,134.896 91.947,132.833 91.261 C 130.771 90.574,126.758 89.218,123.917 88.245 C 121.075 87.273,118.525 86.415,118.250 86.340 C 117.975 86.264,117.375 86.070,116.917 85.909 C 116.458 85.749,115.708 85.489,115.250 85.333 C 114.792 85.177,114.042 84.918,113.583 84.757 C 113.125 84.596,112.515 84.408,112.228 84.338 C 111.941 84.268,111.460 84.088,111.161 83.939 C 110.861 83.789,110.521 83.667,110.405 83.667 C 110.289 83.667,109.862 83.524,109.457 83.350 C 108.452 82.920,107.446 82.787,107.567 83.100 M222.167 251.092 C 222.029 251.121,221.643 251.189,221.308 251.243 C 220.706 251.341,220.701 251.349,220.875 251.880 C 221.116 252.619,221.560 253.920,221.909 254.917 C 222.070 255.375,222.265 255.975,222.341 256.250 C 222.564 257.051,225.830 266.716,226.001 267.083 C 226.087 267.267,226.834 269.442,227.661 271.917 C 228.488 274.392,229.994 278.854,231.008 281.833 C 232.023 284.813,232.915 287.475,232.992 287.750 C 233.069 288.025,233.263 288.625,233.424 289.083 C 233.585 289.542,233.844 290.292,234.000 290.750 C 234.156 291.208,234.415 291.958,234.576 292.417 C 234.737 292.875,234.924 293.476,234.991 293.753 C 235.059 294.029,235.226 294.516,235.363 294.836 C 235.686 295.587,236.166 296.947,236.333 297.583 C 236.406 297.858,236.596 298.458,236.757 298.917 C 236.918 299.375,237.177 300.125,237.333 300.583 C 237.489 301.042,237.749 301.792,237.909 302.250 C 238.070 302.708,238.265 303.308,238.342 303.583 C 238.419 303.858,239.276 306.408,240.247 309.250 C 241.218 312.092,242.608 316.179,243.336 318.333 C 244.064 320.487,245.452 324.575,246.421 327.417 C 247.390 330.258,248.246 332.808,248.324 333.083 C 248.401 333.358,248.596 333.958,248.757 334.417 C 248.918 334.875,249.177 335.625,249.333 336.083 C 249.489 336.542,249.749 337.292,249.909 337.750 C 250.070 338.208,250.261 338.808,250.334 339.083 C 250.407 339.358,250.707 340.221,251.000 341.000 C 251.293 341.779,251.593 342.642,251.666 342.917 C 251.739 343.192,251.930 343.792,252.091 344.250 C 252.251 344.708,252.511 345.458,252.667 345.917 C 252.823 346.375,253.082 347.125,253.243 347.583 C 253.404 348.042,253.598 348.642,253.675 348.917 C 253.898 349.719,257.163 359.383,257.335 359.750 C 257.420 359.933,257.855 361.190,258.301 362.542 C 258.746 363.894,259.151 365.040,259.200 365.089 C 259.325 365.214,260.546 363.117,261.058 361.895 C 261.995 359.665,262.239 358.307,262.241 355.333 C 262.242 352.405,262.170 351.983,261.166 349.000 C 260.904 348.221,259.626 344.433,258.325 340.583 C 257.025 336.733,255.076 330.958,253.994 327.750 C 252.912 324.542,250.975 318.804,249.690 315.000 C 248.406 311.196,245.658 303.058,243.583 296.917 C 241.509 290.775,239.559 285.000,239.248 284.083 C 238.938 283.167,237.001 277.429,234.944 271.333 C 232.887 265.237,230.502 258.169,229.644 255.626 L 228.083 251.002 225.250 251.020 C 223.692 251.030,222.304 251.062,222.167 251.092 " stroke="none" fill="#0b5aa4" fill-rule="evenodd"></path><path id="path2" d="M195.083 27.326 C 166.208 27.376,142.814 27.436,143.096 27.459 C 148.263 27.875,154.886 33.406,156.507 38.658 C 156.579 38.892,158.224 43.771,160.162 49.500 C 162.100 55.229,164.203 61.454,164.836 63.333 C 165.469 65.212,167.269 70.537,168.836 75.167 C 170.402 79.796,172.201 85.121,172.832 87.000 C 173.464 88.879,175.414 94.654,177.165 99.833 C 178.917 105.013,180.867 110.787,181.499 112.667 C 182.131 114.546,183.930 119.871,185.497 124.500 C 187.064 129.129,188.900 134.567,189.579 136.583 C 190.257 138.600,192.207 144.375,193.913 149.417 C 199.215 165.089,200.181 168.009,200.105 168.132 C 200.065 168.197,200.440 169.450,200.940 170.917 C 201.439 172.383,201.913 173.808,201.992 174.083 C 202.115 174.511,202.936 176.936,203.516 178.583 C 203.613 178.858,203.981 179.946,204.333 181.000 C 205.021 183.058,205.246 183.706,205.630 184.750 C 205.766 185.117,205.936 185.642,206.009 185.917 C 206.081 186.192,206.976 188.854,207.998 191.833 C 209.019 194.813,209.919 197.475,209.997 197.750 C 210.256 198.655,210.860 200.411,211.013 200.703 C 211.095 200.860,211.233 201.273,211.318 201.619 C 211.517 202.424,212.777 206.084,213.093 206.775 C 213.225 207.064,213.333 207.392,213.333 207.505 C 213.333 207.618,213.527 208.244,213.765 208.897 C 214.002 209.549,214.224 210.196,214.259 210.333 C 214.294 210.471,214.556 211.258,214.843 212.083 C 215.129 212.908,215.398 213.763,215.439 213.983 C 215.481 214.203,215.624 214.538,215.758 214.728 C 215.891 214.918,216.000 215.235,216.000 215.433 C 216.000 215.630,216.145 216.119,216.323 216.520 C 216.500 216.922,216.687 217.438,216.738 217.667 C 216.870 218.257,219.405 225.712,219.559 225.961 C 219.629 226.074,219.636 226.167,219.574 226.167 C 219.512 226.167,219.584 226.354,219.734 226.582 C 219.884 226.811,220.036 227.205,220.071 227.457 C 220.134 227.899,220.682 229.556,220.995 230.250 C 221.241 230.794,221.401 231.402,221.359 231.625 C 221.337 231.740,221.397 231.833,221.493 231.833 C 221.588 231.833,221.655 231.890,221.640 231.958 C 221.626 232.027,221.659 232.196,221.715 232.333 C 221.771 232.471,221.898 232.902,221.998 233.292 C 222.098 233.681,222.245 234.000,222.325 234.000 C 222.405 234.000,222.451 234.131,222.427 234.292 C 222.403 234.452,222.493 234.752,222.627 234.958 C 222.762 235.165,222.807 235.336,222.728 235.338 C 222.648 235.341,222.724 235.425,222.895 235.525 C 223.120 235.655,223.151 235.740,223.004 235.831 C 222.849 235.926,222.864 236.076,223.067 236.469 C 223.213 236.751,223.356 237.134,223.384 237.320 C 223.413 237.506,223.488 237.710,223.551 237.773 C 223.615 237.837,223.667 238.017,223.667 238.174 C 223.667 238.331,223.778 238.552,223.915 238.665 C 224.051 238.778,224.119 238.942,224.066 239.028 C 223.926 239.255,224.149 240.031,224.323 239.923 C 224.403 239.874,224.432 239.975,224.387 240.148 C 224.341 240.321,224.386 240.513,224.485 240.574 C 224.585 240.636,224.667 240.855,224.667 241.061 C 224.667 241.268,224.767 241.573,224.889 241.740 C 225.081 242.003,225.111 242.008,225.111 241.772 C 225.111 241.622,225.030 241.498,224.931 241.495 C 224.643 241.486,225.367 241.000,225.667 241.000 C 225.816 241.000,226.248 240.850,226.627 240.667 C 227.007 240.483,227.403 240.333,227.508 240.333 C 227.614 240.333,227.936 240.226,228.225 240.095 C 229.115 239.691,230.934 239.000,231.107 239.000 C 231.197 239.000,231.581 238.850,231.961 238.667 C 232.340 238.483,232.737 238.333,232.842 238.333 C 232.947 238.333,233.269 238.226,233.558 238.095 C 234.448 237.691,236.267 237.000,236.440 237.000 C 236.530 237.000,236.915 236.850,237.294 236.667 C 237.673 236.483,238.070 236.333,238.175 236.333 C 238.280 236.333,238.603 236.226,238.891 236.095 C 239.388 235.870,240.712 235.357,242.583 234.667 C 244.844 233.832,245.797 233.467,246.297 233.244 C 246.598 233.110,246.941 233.000,247.058 233.000 C 247.175 233.000,247.581 232.850,247.961 232.667 C 248.340 232.483,248.727 232.333,248.820 232.333 C 248.913 232.333,249.235 232.224,249.536 232.089 C 250.036 231.866,250.989 231.501,253.250 230.667 C 254.511 230.201,256.346 229.512,257.000 229.257 C 257.321 229.133,257.996 228.879,258.500 228.695 C 259.675 228.264,261.584 227.549,262.333 227.257 C 262.654 227.133,263.329 226.879,263.833 226.695 C 265.008 226.264,266.917 225.549,267.667 225.257 C 267.987 225.133,268.662 224.879,269.167 224.695 C 270.342 224.264,272.251 223.549,273.000 223.257 C 273.321 223.133,273.996 222.879,274.500 222.695 C 275.675 222.264,277.584 221.549,278.333 221.257 C 278.654 221.133,279.329 220.879,279.833 220.695 C 281.077 220.239,282.957 219.534,283.667 219.256 C 283.987 219.130,284.700 218.862,285.250 218.660 C 285.800 218.458,286.587 218.161,287.000 218.000 C 287.412 217.839,288.162 217.556,288.667 217.371 C 289.171 217.187,290.408 216.722,291.417 216.339 C 292.425 215.956,293.625 215.504,294.083 215.334 C 295.412 214.843,297.200 214.170,297.833 213.924 C 298.154 213.799,298.829 213.546,299.333 213.361 C 300.508 212.931,302.417 212.215,303.167 211.924 C 303.487 211.799,304.162 211.546,304.667 211.361 C 305.842 210.931,307.751 210.215,308.500 209.924 C 308.821 209.799,309.496 209.546,310.000 209.361 C 311.175 208.931,313.084 208.215,313.833 207.924 C 314.154 207.799,314.829 207.546,315.333 207.361 C 316.508 206.931,318.417 206.215,319.167 205.924 C 319.487 205.799,320.162 205.546,320.667 205.361 C 321.842 204.931,323.751 204.215,324.500 203.924 C 324.821 203.799,325.496 203.546,326.000 203.361 C 327.927 202.656,329.268 202.147,329.750 201.939 C 330.025 201.820,330.718 201.579,331.290 201.403 C 332.214 201.119,332.649 200.833,332.157 200.833 C 332.060 200.833,332.023 200.764,332.075 200.680 C 332.127 200.596,332.051 200.408,331.906 200.263 C 331.761 200.119,331.719 200.000,331.813 200.000 C 331.997 200.000,331.713 198.985,331.486 198.832 C 331.417 198.785,331.336 198.485,331.305 198.165 C 331.273 197.821,331.168 197.600,331.048 197.623 C 330.929 197.646,330.886 197.558,330.943 197.408 C 330.997 197.269,330.919 197.020,330.770 196.855 C 330.621 196.691,330.546 196.509,330.604 196.452 C 330.661 196.395,330.650 196.213,330.579 196.049 C 330.427 195.699,330.383 195.553,330.266 195.025 C 330.218 194.809,330.092 194.528,329.986 194.400 C 329.880 194.272,329.848 194.167,329.917 194.167 C 329.985 194.167,329.947 194.054,329.833 193.917 C 329.719 193.779,329.674 193.667,329.732 193.667 C 329.790 193.667,329.718 193.385,329.572 193.042 C 329.426 192.698,329.282 192.304,329.252 192.167 C 329.222 192.029,329.073 191.579,328.919 191.167 C 328.766 190.754,328.584 190.154,328.516 189.833 C 328.447 189.512,328.313 189.100,328.218 188.917 C 328.068 188.626,326.776 184.851,326.592 184.167 C 326.556 184.029,326.510 183.898,326.492 183.875 C 326.473 183.852,326.442 183.777,326.423 183.708 C 326.404 183.640,326.331 183.433,326.261 183.250 C 325.991 182.539,325.948 182.411,325.923 182.250 C 325.909 182.158,325.851 181.971,325.795 181.833 C 325.704 181.611,325.129 179.879,325.076 179.667 C 325.065 179.621,324.968 179.372,324.861 179.114 C 324.754 178.856,324.665 178.519,324.663 178.364 C 324.661 178.210,324.510 177.755,324.328 177.354 C 324.146 176.952,323.956 176.390,323.906 176.104 C 323.856 175.818,323.707 175.417,323.574 175.214 C 323.442 175.011,323.333 174.702,323.333 174.527 C 323.333 174.352,323.188 173.881,323.011 173.480 C 322.833 173.078,322.648 172.563,322.598 172.333 C 322.548 172.104,322.127 170.829,321.663 169.500 C 321.198 168.171,320.756 166.858,320.680 166.583 C 320.492 165.895,319.854 163.989,319.676 163.583 C 319.530 163.248,319.413 162.898,318.479 160.000 C 318.198 159.129,317.826 158.065,317.651 157.636 C 317.476 157.206,317.333 156.737,317.333 156.592 C 317.333 156.447,317.267 156.199,317.186 156.039 C 316.876 155.430,316.218 153.548,315.980 152.590 C 315.890 152.227,315.749 151.849,315.667 151.750 C 315.585 151.651,315.444 151.273,315.354 150.910 C 315.171 150.168,313.380 144.766,313.146 144.250 C 313.063 144.067,312.814 143.354,312.591 142.667 C 312.369 141.979,311.877 140.517,311.497 139.417 C 311.117 138.317,310.706 137.079,310.583 136.667 C 310.460 136.254,310.160 135.354,309.915 134.667 C 309.671 133.979,309.407 133.192,309.330 132.917 C 309.253 132.642,308.655 130.879,308.002 129.000 C 307.348 127.121,306.714 125.246,306.592 124.833 C 306.470 124.421,306.279 123.821,306.166 123.500 C 306.053 123.179,305.831 122.542,305.674 122.083 C 305.516 121.625,305.292 120.987,305.175 120.667 C 305.058 120.346,304.861 119.746,304.736 119.333 C 304.611 118.921,303.682 116.146,302.670 113.167 C 301.658 110.188,300.636 107.150,300.398 106.417 C 300.160 105.683,299.823 104.732,299.649 104.302 C 299.476 103.873,299.333 103.403,299.333 103.259 C 299.333 103.114,299.264 102.865,299.179 102.706 C 298.985 102.344,298.833 101.933,298.575 101.083 C 298.463 100.717,298.279 100.154,298.166 99.833 C 298.053 99.513,297.831 98.875,297.674 98.417 C 297.516 97.958,297.254 97.208,297.092 96.750 C 296.931 96.292,296.738 95.692,296.663 95.417 C 296.537 94.948,295.558 92.025,295.155 90.917 C 295.056 90.642,294.683 89.554,294.328 88.500 C 293.973 87.446,293.486 86.021,293.246 85.333 C 293.007 84.646,292.709 83.746,292.586 83.333 C 292.462 82.921,292.160 82.021,291.915 81.333 C 291.671 80.646,291.407 79.858,291.329 79.583 C 291.251 79.308,290.504 77.096,289.670 74.667 C 288.836 72.237,288.053 69.912,287.929 69.500 C 287.805 69.087,287.609 68.487,287.492 68.167 C 287.265 67.545,286.832 66.292,286.512 65.333 C 286.114 64.143,283.007 54.896,282.815 54.333 C 282.706 54.012,282.489 53.375,282.333 52.917 C 282.177 52.458,281.918 51.708,281.757 51.250 C 281.596 50.792,281.403 50.192,281.328 49.917 C 281.253 49.642,280.807 48.329,280.336 47.000 C 279.866 45.671,279.419 44.358,279.343 44.083 C 279.268 43.808,279.113 43.358,279.000 43.083 C 278.887 42.808,278.735 42.358,278.662 42.083 C 276.924 35.486,273.618 31.218,268.288 28.693 C 267.485 28.312,266.735 27.999,266.622 27.998 C 266.509 27.997,265.929 27.833,265.333 27.634 C 263.997 27.187,267.205 27.201,195.083 27.326 M332.882 203.204 C 332.895 203.454,333.003 203.696,333.123 203.742 C 333.282 203.803,333.301 203.748,333.193 203.538 C 333.112 203.380,333.003 203.137,332.952 203.000 C 332.900 202.862,332.869 202.954,332.882 203.204 M334.116 206.915 C 334.268 207.234,334.423 207.466,334.459 207.430 C 334.535 207.354,334.029 206.333,333.915 206.333 C 333.873 206.333,333.963 206.595,334.116 206.915 M226.044 245.139 C 226.056 245.307,226.160 245.444,226.274 245.444 C 226.424 245.444,226.436 245.359,226.318 245.139 C 226.229 244.971,226.125 244.833,226.088 244.833 C 226.051 244.833,226.031 244.971,226.044 245.139 M226.169 245.756 C 226.174 246.043,226.478 246.410,226.606 246.283 C 226.674 246.215,226.603 246.032,226.448 245.877 C 226.293 245.722,226.168 245.668,226.169 245.756 " stroke="none" fill="#37baee" fill-rule="evenodd"></path><path id="path3" d="M123.500 251.168 C 118.218 251.886,115.064 257.510,117.255 262.306 C 117.970 263.871,118.333 264.229,133.582 278.409 C 134.958 279.688,137.208 281.792,138.583 283.085 C 139.958 284.378,143.971 288.120,147.500 291.401 C 151.029 294.682,154.592 298.053,155.417 298.892 C 156.242 299.732,158.491 301.881,160.416 303.668 C 162.341 305.455,164.034 307.029,164.180 307.167 C 165.043 307.984,169.285 311.948,171.416 313.928 C 172.790 315.205,174.034 316.362,174.179 316.500 C 175.148 317.416,179.324 321.318,181.416 323.261 C 182.790 324.538,184.034 325.696,184.179 325.833 C 185.148 326.750,189.324 330.651,191.416 332.594 C 192.790 333.872,194.034 335.029,194.179 335.167 C 195.148 336.083,199.324 339.984,201.416 341.928 C 202.790 343.205,204.034 344.363,204.179 344.500 C 205.148 345.416,209.324 349.318,211.416 351.261 C 212.790 352.538,214.034 353.696,214.179 353.833 C 215.148 354.750,219.324 358.651,221.416 360.594 C 222.790 361.872,224.034 363.029,224.179 363.167 C 230.349 368.998,233.249 371.333,234.323 371.333 C 234.392 371.333,234.694 371.456,234.994 371.605 C 235.294 371.755,235.774 371.937,236.061 372.010 C 236.348 372.084,236.996 372.264,237.500 372.412 C 238.944 372.836,245.245 372.952,247.411 372.595 C 252.036 371.833,255.845 369.698,258.500 366.379 C 259.482 365.152,260.639 363.333,260.439 363.333 C 260.394 363.333,260.119 363.750,259.828 364.260 C 259.178 365.395,259.279 365.508,258.301 362.542 C 257.855 361.190,257.420 359.933,257.335 359.750 C 257.163 359.383,253.898 349.719,253.675 348.917 C 253.598 348.642,253.404 348.042,253.243 347.583 C 253.082 347.125,252.823 346.375,252.667 345.917 C 252.511 345.458,252.251 344.708,252.091 344.250 C 251.930 343.792,251.739 343.192,251.666 342.917 C 251.593 342.642,251.293 341.779,251.000 341.000 C 250.707 340.221,250.407 339.358,250.334 339.083 C 250.261 338.808,250.070 338.208,249.909 337.750 C 249.749 337.292,249.489 336.542,249.333 336.083 C 249.177 335.625,248.918 334.875,248.757 334.417 C 248.596 333.958,248.401 333.358,248.324 333.083 C 248.246 332.808,247.390 330.258,246.421 327.417 C 245.452 324.575,244.064 320.487,243.336 318.333 C 242.608 316.179,241.218 312.092,240.247 309.250 C 239.276 306.408,238.419 303.858,238.342 303.583 C 238.265 303.308,238.070 302.708,237.909 302.250 C 237.749 301.792,237.489 301.042,237.333 300.583 C 237.177 300.125,236.918 299.375,236.757 298.917 C 236.596 298.458,236.406 297.858,236.333 297.583 C 236.166 296.947,235.686 295.587,235.363 294.836 C 235.226 294.516,235.059 294.029,234.991 293.753 C 234.924 293.476,234.737 292.875,234.576 292.417 C 234.415 291.958,234.156 291.208,234.000 290.750 C 233.844 290.292,233.585 289.542,233.424 289.083 C 233.263 288.625,233.069 288.025,232.992 287.750 C 232.915 287.475,232.023 284.813,231.008 281.833 C 229.994 278.854,228.488 274.392,227.661 271.917 C 226.834 269.442,226.087 267.267,226.001 267.083 C 225.830 266.716,222.564 257.051,222.341 256.250 C 222.265 255.975,222.070 255.375,221.909 254.917 C 221.560 253.920,221.116 252.619,220.875 251.880 C 220.701 251.349,220.706 251.341,221.308 251.243 C 221.643 251.189,222.029 251.121,222.167 251.092 C 222.714 250.976,124.354 251.052,123.500 251.168 M262.383 355.500 C 262.383 356.004,262.415 356.210,262.453 355.958 C 262.491 355.706,262.491 355.294,262.453 355.042 C 262.415 354.790,262.383 354.996,262.383 355.500 M24.644 370.090 C 24.953 370.224,25.253 370.331,25.311 370.327 C 25.528 370.315,24.574 369.845,24.333 369.846 C 24.196 369.846,24.336 369.956,24.644 370.090 M285.388 372.792 C 295.181 372.815,311.156 372.815,320.888 372.792 C 330.621 372.768,322.608 372.748,303.083 372.748 C 283.558 372.748,275.596 372.768,285.388 372.792 " stroke="none" fill="#047bd4" fill-rule="evenodd"></path><path id="path4" d="M136.250 27.325 C 135.608 27.399,134.793 27.581,134.438 27.730 C 134.083 27.878,133.654 28.000,133.484 28.000 C 132.936 28.000,130.147 29.349,129.487 29.934 C 129.342 30.062,129.162 30.167,129.087 30.167 C 128.772 30.167,125.804 32.902,125.080 33.859 C 123.825 35.519,122.519 38.249,121.823 40.667 C 121.705 41.079,121.565 41.492,121.513 41.583 C 121.461 41.675,121.333 42.050,121.229 42.417 C 121.124 42.783,120.943 43.346,120.826 43.667 C 120.131 45.568,119.561 47.281,119.415 47.907 C 119.374 48.084,119.189 48.552,119.003 48.947 C 118.818 49.341,118.667 49.767,118.667 49.894 C 118.667 50.022,118.557 50.388,118.423 50.708 C 118.289 51.029,118.227 51.338,118.284 51.395 C 118.342 51.453,118.289 51.500,118.167 51.500 C 118.044 51.500,117.988 51.544,118.042 51.597 C 118.095 51.651,117.971 52.157,117.766 52.722 C 117.561 53.287,117.388 53.809,117.381 53.882 C 117.374 53.955,117.291 54.217,117.198 54.465 C 116.567 56.141,116.148 57.325,116.091 57.599 C 115.987 58.098,115.174 60.508,115.002 60.830 C 114.916 60.990,114.803 61.365,114.751 61.663 C 114.698 61.962,114.554 62.403,114.431 62.645 C 114.308 62.886,114.151 63.346,114.083 63.667 C 114.015 63.987,113.818 64.528,113.646 64.868 C 113.474 65.208,113.333 65.662,113.333 65.877 C 113.333 66.091,113.243 66.357,113.133 66.467 C 113.023 66.577,112.988 66.667,113.056 66.667 C 113.123 66.667,113.085 66.835,112.972 67.042 C 112.858 67.248,112.738 67.602,112.705 67.829 C 112.672 68.056,112.572 68.330,112.483 68.437 C 112.299 68.659,112.133 69.275,112.141 69.708 C 112.144 69.869,112.087 70.000,112.014 70.000 C 111.941 70.000,111.711 70.581,111.503 71.292 C 111.295 72.002,111.063 72.661,110.989 72.755 C 110.914 72.850,110.815 73.112,110.768 73.339 C 110.584 74.233,110.520 74.435,110.271 74.910 C 110.071 75.289,110.058 75.434,110.214 75.533 C 110.367 75.630,110.361 75.662,110.191 75.664 C 110.055 75.666,110.004 75.770,110.064 75.925 C 110.118 76.068,110.103 76.147,110.031 76.102 C 109.958 76.057,109.815 76.242,109.713 76.511 C 109.596 76.822,109.590 76.964,109.697 76.898 C 109.790 76.840,109.769 76.971,109.650 77.188 C 109.531 77.406,109.408 77.733,109.378 77.917 C 109.348 78.100,109.251 78.275,109.162 78.306 C 109.073 78.336,109.000 78.542,109.000 78.764 C 109.000 78.985,108.916 79.167,108.814 79.167 C 108.710 79.167,108.666 79.314,108.715 79.500 C 108.763 79.683,108.737 79.873,108.658 79.922 C 108.579 79.971,108.562 80.133,108.619 80.283 C 108.689 80.464,108.659 80.515,108.528 80.434 C 108.329 80.311,108.269 80.501,108.328 81.060 C 108.346 81.236,108.286 81.324,108.189 81.264 C 108.087 81.201,108.043 81.293,108.082 81.492 C 108.117 81.676,108.075 81.871,107.987 81.925 C 107.900 81.979,107.871 82.093,107.924 82.178 C 107.977 82.264,107.921 82.334,107.802 82.336 C 107.643 82.338,107.652 82.383,107.833 82.500 C 108.045 82.637,108.037 82.662,107.782 82.664 C 107.290 82.668,107.598 82.924,108.145 82.966 C 108.422 82.987,108.996 83.153,109.421 83.335 C 109.846 83.518,110.289 83.667,110.405 83.667 C 110.521 83.667,110.861 83.789,111.161 83.939 C 111.460 84.088,111.941 84.268,112.228 84.338 C 112.515 84.408,113.125 84.596,113.583 84.757 C 114.042 84.918,114.792 85.177,115.250 85.333 C 115.708 85.489,116.458 85.749,116.917 85.909 C 117.375 86.070,117.975 86.264,118.250 86.340 C 118.525 86.415,121.075 87.273,123.917 88.245 C 126.758 89.218,130.771 90.574,132.833 91.261 C 134.896 91.947,136.733 92.579,136.917 92.666 C 137.257 92.827,144.842 95.397,145.750 95.659 C 146.938 96.002,148.092 96.491,148.195 96.696 C 148.257 96.817,148.452 97.329,148.629 97.833 C 148.806 98.337,149.082 99.125,149.243 99.583 C 149.404 100.042,149.596 100.642,149.671 100.917 C 149.802 101.397,151.418 106.177,151.932 107.608 C 152.108 108.096,152.326 108.359,152.674 108.503 C 153.039 108.654,153.240 108.911,153.446 109.491 C 153.701 110.209,153.801 110.304,154.655 110.635 C 155.623 111.010,155.977 111.491,156.338 112.917 C 156.408 113.192,156.596 113.792,156.757 114.250 C 156.918 114.708,157.177 115.458,157.333 115.917 C 157.489 116.375,157.749 117.125,157.909 117.583 C 158.070 118.042,158.264 118.642,158.339 118.917 C 158.415 119.192,158.869 120.555,159.347 121.945 L 160.218 124.474 160.901 124.716 C 161.276 124.848,161.912 125.057,162.314 125.179 C 163.070 125.409,163.351 125.803,163.673 127.083 C 163.790 127.552,163.906 127.899,164.691 130.125 C 164.861 130.606,165.139 131.394,165.309 131.875 C 166.087 134.083,166.210 134.448,166.333 134.917 C 166.461 135.403,166.702 136.107,167.390 138.012 C 167.738 138.977,168.312 139.351,170.037 139.736 C 170.514 139.843,170.804 140.244,171.008 141.079 C 171.076 141.357,171.263 141.958,171.424 142.417 C 171.585 142.875,171.844 143.625,172.000 144.083 C 172.156 144.542,172.415 145.292,172.576 145.750 C 172.737 146.208,172.928 146.808,173.000 147.083 C 173.167 147.719,173.647 149.079,173.970 149.831 C 174.107 150.150,174.275 150.638,174.342 150.914 C 174.481 151.482,174.982 152.955,175.165 153.333 C 175.231 153.471,175.465 153.621,175.684 153.667 C 177.531 154.053,177.953 154.404,178.484 156.000 C 180.885 163.225,181.054 163.667,181.417 163.667 C 181.744 163.667,181.930 164.061,182.656 166.303 C 183.245 168.121,183.316 168.250,183.773 168.343 C 184.700 168.533,184.855 168.740,185.526 170.684 C 185.887 171.728,186.246 172.808,186.323 173.083 C 186.401 173.358,186.596 173.958,186.757 174.417 C 186.918 174.875,187.177 175.625,187.333 176.083 C 187.489 176.542,187.749 177.292,187.909 177.750 C 188.070 178.208,188.258 178.808,188.327 179.083 C 188.396 179.358,188.576 179.874,188.726 180.229 C 188.877 180.584,189.000 181.007,189.000 181.169 C 189.000 181.346,189.169 181.506,189.422 181.570 C 189.655 181.628,189.924 181.850,190.021 182.064 C 190.120 182.281,190.541 182.601,190.981 182.793 L 191.764 183.135 192.400 185.026 C 192.750 186.066,193.095 187.023,193.165 187.152 C 193.236 187.282,193.183 187.653,193.048 187.976 C 192.912 188.300,192.778 188.682,192.750 188.824 C 192.721 188.967,192.476 189.758,192.206 190.583 C 191.936 191.408,191.395 193.096,191.004 194.333 C 190.613 195.571,190.142 197.016,189.956 197.546 C 189.771 198.075,189.653 198.541,189.693 198.582 C 189.734 198.623,190.155 197.515,190.629 196.120 C 191.103 194.725,192.288 191.258,193.262 188.417 C 194.236 185.575,195.136 182.912,195.261 182.500 C 195.387 182.088,196.023 180.213,196.674 178.333 C 197.326 176.454,197.924 174.692,198.003 174.417 C 198.082 174.142,198.536 172.829,199.011 171.500 C 200.256 168.013,200.458 169.221,196.832 158.500 C 195.080 153.321,193.131 147.546,192.499 145.667 C 191.868 143.787,189.769 137.563,187.834 131.833 C 185.900 126.104,183.799 119.879,183.166 118.000 C 182.532 116.121,180.468 110.008,178.578 104.417 C 176.688 98.825,174.739 93.050,174.248 91.583 C 173.757 90.117,171.772 84.229,169.836 78.500 C 167.901 72.771,165.799 66.546,165.165 64.667 C 162.248 56.012,156.996 40.452,156.587 39.250 C 153.768 30.977,145.687 26.239,136.250 27.325 M188.867 200.783 C 188.763 201.122,188.705 201.427,188.739 201.461 C 188.773 201.495,188.890 201.250,189.000 200.917 C 189.110 200.584,189.167 200.279,189.128 200.239 C 189.088 200.199,188.971 200.444,188.867 200.783 " stroke="none" fill="#0d437d" fill-rule="evenodd"></path></g></svg>