<svg id="svg" version="1.1" xmlns="http://www.w3.org/2000/svg" xmlns:xlink="http://www.w3.org/1999/xlink" width="400" height="400" viewBox="0, 0, 400,400"><g id="svgg"><path id="path0" d="M195.495 1.329 C 185.273 2.406,183.675 3.157,153.667 20.999 C 141.108 28.466,112.083 45.711,89.167 59.320 C 66.250 72.929,46.975 84.452,46.333 84.926 C 37.390 91.531,31.425 99.671,27.987 109.963 C 25.287 118.044,25.500 110.208,25.500 201.333 L 25.500 282.500 26.269 286.000 C 29.007 298.471,35.898 309.464,45.333 316.416 C 46.708 317.429,70.783 331.873,98.833 348.513 C 126.883 365.154,151.971 380.037,154.583 381.587 C 157.196 383.137,159.333 384.514,159.333 384.647 C 159.333 384.780,159.528 384.889,159.767 384.889 C 160.384 384.889,170.000 390.691,170.000 391.064 C 170.000 391.234,170.124 391.296,170.275 391.203 C 170.426 391.109,171.814 391.795,173.358 392.727 C 177.654 395.318,181.617 397.219,185.573 398.589 L 189.167 399.833 199.421 399.934 C 214.786 400.086,214.764 400.093,235.645 387.682 C 242.348 383.697,254.283 376.609,262.167 371.932 C 270.050 367.254,287.825 356.708,301.667 348.495 C 360.874 313.366,354.892 317.118,360.356 311.675 C 367.467 304.591,371.961 296.263,374.212 286.000 C 375.159 281.682,375.183 120.831,374.238 116.333 C 370.995 100.909,362.979 90.043,348.462 81.392 C 345.733 79.766,333.525 72.509,321.333 65.267 C 272.424 36.213,254.153 25.356,239.500 16.640 C 214.871 1.991,208.905 -0.085,195.495 1.329 M209.771 11.117 C 211.570 11.588,214.208 12.476,215.634 13.093 C 218.112 14.164,343.563 88.372,348.599 91.746 C 356.364 96.947,362.547 105.856,365.007 115.389 C 365.954 119.057,365.838 119.332,364.308 117.041 C 360.074 110.701,352.334 109.147,344.103 112.984 C 342.969 113.513,322.569 125.982,298.770 140.692 C 274.972 155.402,247.475 172.383,237.667 178.427 C 216.213 191.649,213.291 193.548,209.462 196.763 C 202.940 202.240,198.778 208.578,196.925 215.853 L 196.167 218.833 196.167 298.000 C 196.167 372.529,196.201 377.294,196.753 379.333 C 198.205 384.695,201.076 388.680,204.874 390.606 L 206.833 391.600 205.500 391.883 C 199.883 393.076,189.360 391.363,183.167 388.247 C 180.233 386.772,54.599 312.196,51.733 310.230 C 42.648 303.996,36.173 293.557,34.498 282.447 C 33.742 277.426,33.754 124.381,34.512 119.667 C 36.311 108.472,42.681 98.045,51.338 92.127 C 54.607 89.893,179.746 15.639,183.000 14.003 C 190.814 10.075,201.412 8.932,209.771 11.117 M252.570 222.003 C 252.854 222.565,252.992 224.531,252.995 228.083 C 252.998 230.971,253.037 233.331,253.083 233.329 C 253.129 233.327,254.131 233.022,255.310 232.653 C 257.839 231.860,261.618 231.484,263.785 231.809 C 266.253 232.179,266.285 232.469,264.612 239.250 C 262.935 246.042,262.236 247.256,260.257 246.811 C 250.503 244.615,239.019 254.168,240.686 263.091 C 241.358 266.690,243.092 267.566,250.444 268.022 C 264.282 268.879,268.432 272.865,268.467 285.333 C 268.496 295.837,264.476 305.306,256.426 313.692 L 253.288 316.963 253.227 323.113 C 253.156 330.393,253.470 329.768,248.411 332.672 C 242.996 335.779,243.000 335.782,243.000 328.231 C 243.000 322.988,242.959 322.613,242.417 322.852 C 238.409 324.619,230.557 325.212,228.554 323.899 C 227.408 323.148,227.423 322.778,228.835 316.788 C 230.504 309.708,231.212 308.614,233.664 309.328 C 243.592 312.218,256.005 302.768,255.989 292.333 C 255.980 286.798,253.658 285.148,245.167 284.645 C 239.942 284.335,237.181 283.793,234.675 282.587 C 223.739 277.319,226.545 255.176,239.818 242.007 L 242.667 239.181 242.667 233.307 C 242.667 226.057,242.632 226.127,247.668 223.097 C 251.429 220.835,251.923 220.724,252.570 222.003 M318.995 295.250 C 318.992 297.954,318.880 300.333,318.745 300.536 C 318.368 301.103,286.382 320.406,285.736 320.456 C 284.890 320.521,284.691 310.672,285.524 309.980 C 286.550 309.129,318.168 290.344,318.583 290.339 C 318.898 290.335,318.999 291.533,318.995 295.250 " stroke="none" fill="#242d34" fill-rule="evenodd"></path><path id="path1" d="M195.749 10.368 C 191.592 10.851,186.770 12.292,183.000 14.177 C 180.436 15.459,55.158 89.756,52.000 91.868 C 41.747 98.724,35.296 110.317,34.306 123.667 C 33.560 133.722,34.105 280.389,34.902 284.000 C 37.354 295.119,43.758 304.900,52.167 310.372 C 55.282 312.399,179.518 386.104,182.500 387.694 C 188.752 391.028,197.982 392.721,204.808 391.785 L 206.375 391.570 204.684 390.702 C 200.857 388.737,197.714 384.184,196.442 378.762 C 195.501 374.751,195.495 221.737,196.435 217.376 C 197.899 210.585,200.506 205.656,205.315 200.587 C 210.730 194.878,211.451 194.379,237.333 178.428 C 247.142 172.383,274.624 155.410,298.406 140.711 C 322.188 126.011,342.722 113.468,344.039 112.837 C 352.000 109.022,359.607 110.393,364.123 116.459 C 367.570 121.089,362.875 108.274,358.998 102.471 C 356.804 99.187,351.262 93.641,348.167 91.632 C 340.673 86.769,217.595 14.110,215.187 13.128 C 208.810 10.528,202.308 9.605,195.749 10.368 M247.371 223.463 C 242.884 226.195,243.026 225.878,243.012 233.200 L 243.000 239.233 240.978 240.992 C 227.938 252.334,223.788 275.597,233.689 281.848 C 236.186 283.424,238.837 284.047,244.333 284.349 C 253.091 284.831,255.522 286.238,256.181 291.203 C 257.546 301.491,245.332 311.675,234.108 309.606 C 231.099 309.052,230.900 309.304,229.298 315.722 C 227.648 322.328,227.618 323.495,229.083 323.956 C 232.181 324.932,236.393 324.667,240.690 323.225 L 243.000 322.451 243.042 323.642 C 243.489 336.368,243.017 335.592,248.417 332.470 C 253.258 329.671,253.097 330.009,253.023 322.725 L 252.964 316.950 255.985 313.943 C 265.301 304.672,270.172 290.564,267.847 279.591 C 266.190 271.776,262.101 268.981,251.381 268.335 C 242.462 267.798,240.333 266.483,240.333 261.513 C 240.333 253.102,248.989 245.997,258.767 246.382 C 262.576 246.532,262.614 246.486,264.349 239.639 C 265.873 233.620,265.938 232.835,264.947 232.305 C 263.786 231.684,257.238 232.109,254.864 232.961 C 253.782 233.349,252.844 233.667,252.781 233.667 C 252.718 233.667,252.667 231.129,252.667 228.027 C 252.667 220.108,252.756 220.184,247.371 223.463 " stroke="none" fill="#fbfbfb" fill-rule="evenodd"></path><path id="path2" d="M196.417 1.230 C 196.737 1.314,197.262 1.314,197.583 1.230 C 197.904 1.146,197.642 1.077,197.000 1.077 C 196.358 1.077,196.096 1.146,196.417 1.230 M203.083 1.230 C 203.404 1.314,203.929 1.314,204.250 1.230 C 204.571 1.146,204.308 1.077,203.667 1.077 C 203.025 1.077,202.762 1.146,203.083 1.230 M42.063 88.013 C 41.662 88.387,41.333 88.788,41.333 88.904 C 41.333 89.021,41.708 88.764,42.167 88.333 C 42.948 87.599,43.142 87.333,42.896 87.333 C 42.839 87.333,42.464 87.639,42.063 88.013 M360.319 90.083 C 361.701 91.555,362.000 91.820,362.000 91.569 C 362.000 91.516,361.287 90.803,360.417 89.986 L 358.833 88.500 360.319 90.083 M38.167 91.922 C 37.983 92.056,37.613 92.467,37.343 92.833 C 36.982 93.326,37.091 93.289,37.760 92.692 C 38.576 91.965,38.824 91.657,38.583 91.672 C 38.537 91.675,38.350 91.787,38.167 91.922 M46.151 96.417 L 44.833 97.833 46.250 96.516 C 47.567 95.290,47.820 95.000,47.568 95.000 C 47.513 95.000,46.876 95.638,46.151 96.417 M352.088 110.906 C 352.595 110.982,353.345 110.980,353.755 110.901 C 354.165 110.822,353.750 110.760,352.833 110.762 C 351.917 110.765,351.581 110.829,352.088 110.906 M375.164 201.000 C 375.164 244.542,375.203 262.354,375.250 240.583 C 375.297 218.812,375.297 183.187,375.250 161.417 C 375.203 139.646,375.164 157.458,375.164 201.000 M25.164 201.000 C 25.164 243.258,25.203 260.546,25.250 239.417 C 25.297 218.287,25.297 183.712,25.250 162.583 C 25.203 141.454,25.164 158.742,25.164 201.000 M252.802 228.000 C 252.802 231.025,252.853 232.262,252.915 230.750 C 252.976 229.237,252.976 226.762,252.915 225.250 C 252.853 223.737,252.802 224.975,252.802 228.000 M242.664 236.902 C 242.574 238.406,242.620 239.516,242.766 239.369 C 242.912 239.222,242.985 237.992,242.929 236.634 L 242.827 234.167 242.664 236.902 M302.116 299.937 C 293.288 305.214,285.821 309.733,285.524 309.980 C 284.691 310.672,284.890 320.521,285.736 320.456 C 286.382 320.406,318.368 301.103,318.745 300.536 C 319.199 299.851,319.048 290.333,318.583 290.339 C 318.354 290.341,310.944 294.661,302.116 299.937 M250.812 304.083 L 249.833 305.167 250.917 304.188 C 251.512 303.649,252.000 303.162,252.000 303.104 C 252.000 302.847,251.725 303.074,250.812 304.083 M360.324 311.917 L 358.167 314.167 360.417 312.010 C 362.507 310.006,362.819 309.667,362.574 309.667 C 362.523 309.667,361.510 310.679,360.324 311.917 M253.103 319.500 C 253.105 320.600,253.167 321.010,253.242 320.411 C 253.316 319.812,253.314 318.912,253.238 318.411 C 253.162 317.910,253.101 318.400,253.103 319.500 " stroke="none" fill="#81868c" fill-rule="evenodd"></path><path id="path3" d="M354.000 96.500 C 354.622 97.142,355.206 97.667,355.297 97.667 C 355.389 97.667,354.955 97.142,354.333 96.500 C 353.711 95.858,353.128 95.333,353.036 95.333 C 352.944 95.333,353.378 95.858,354.000 96.500 M34.084 124.500 C 34.088 125.233,34.156 125.494,34.236 125.079 C 34.315 124.665,34.312 124.065,34.229 123.746 C 34.146 123.427,34.080 123.767,34.084 124.500 M195.830 298.167 C 195.830 339.967,195.869 357.017,195.917 336.057 C 195.964 315.096,195.964 280.896,195.917 260.057 C 195.869 239.217,195.830 256.367,195.830 298.167 M242.751 229.167 C 242.754 229.900,242.823 230.161,242.902 229.746 C 242.982 229.331,242.979 228.731,242.896 228.413 C 242.812 228.094,242.747 228.433,242.751 229.167 M260.755 231.906 C 261.261 231.982,262.011 231.980,262.421 231.901 C 262.831 231.822,262.417 231.760,261.500 231.762 C 260.583 231.765,260.248 231.829,260.755 231.906 M228.077 267.333 C 228.077 267.975,228.146 268.237,228.230 267.917 C 228.314 267.596,228.314 267.071,228.230 266.750 C 228.146 266.429,228.077 266.692,228.077 267.333 M248.921 268.236 C 249.335 268.315,249.935 268.312,250.254 268.229 C 250.573 268.146,250.233 268.080,249.500 268.084 C 248.767 268.088,248.506 268.156,248.921 268.236 M34.091 277.667 C 34.091 278.492,34.156 278.829,34.235 278.417 C 34.315 278.004,34.315 277.329,34.235 276.917 C 34.156 276.504,34.091 276.842,34.091 277.667 M245.083 284.572 C 245.588 284.648,246.412 284.648,246.917 284.572 C 247.421 284.496,247.008 284.433,246.000 284.433 C 244.992 284.433,244.579 284.496,245.083 284.572 M253.107 324.667 C 253.107 325.858,253.167 326.346,253.241 325.750 C 253.315 325.154,253.315 324.179,253.241 323.583 C 253.167 322.987,253.107 323.475,253.107 324.667 M243.127 329.833 C 243.128 332.033,243.182 332.890,243.247 331.737 C 243.312 330.584,243.312 328.784,243.246 327.737 C 243.180 326.690,243.127 327.633,243.127 329.833 " stroke="none" fill="#a8abae" fill-rule="evenodd"></path><path id="path4" d="M39.655 90.250 L 37.833 92.167 39.750 90.345 C 40.804 89.343,41.667 88.480,41.667 88.428 C 41.667 88.181,41.348 88.469,39.655 90.250 M242.773 232.333 C 242.773 233.525,242.834 234.012,242.908 233.417 C 242.982 232.821,242.982 231.846,242.908 231.250 C 242.834 230.654,242.773 231.142,242.773 232.333 " stroke="none" fill="#8c9094" fill-rule="evenodd"></path></g></svg>