<svg id="svg" version="1.1" xmlns="http://www.w3.org/2000/svg" xmlns:xlink="http://www.w3.org/1999/xlink" width="400" height="146.66666666666669" viewBox="0, 0, 400,146.66666666666669"><g id="svgg"><path id="path0" d="M175.667 0.583 C 175.546 0.728,175.183 0.833,174.801 0.833 C 174.438 0.833,174.031 0.946,173.893 1.083 C 173.727 1.250,173.310 1.333,172.650 1.333 C 171.920 1.333,171.631 1.400,171.560 1.583 C 171.508 1.721,171.328 1.833,171.161 1.833 C 170.994 1.833,170.745 1.946,170.607 2.083 C 170.470 2.221,170.201 2.333,170.010 2.333 C 169.819 2.333,169.535 2.483,169.378 2.667 C 169.199 2.875,168.886 3.000,168.541 3.000 C 168.205 3.000,167.952 3.097,167.894 3.250 C 167.841 3.387,167.656 3.500,167.482 3.500 C 167.309 3.500,167.167 3.612,167.167 3.750 C 167.167 3.906,167.009 4.000,166.745 4.000 C 166.513 4.000,166.280 4.112,166.227 4.250 C 166.174 4.387,166.027 4.500,165.899 4.500 C 165.771 4.500,165.667 4.579,165.667 4.677 C 165.667 4.774,165.592 4.807,165.500 4.750 C 165.408 4.693,165.333 4.718,165.333 4.805 C 165.333 4.893,165.146 5.011,164.917 5.068 C 164.688 5.126,164.500 5.276,164.500 5.402 C 164.500 5.528,164.313 5.678,164.083 5.735 C 163.854 5.793,163.667 5.913,163.667 6.003 C 163.667 6.093,163.552 6.167,163.411 6.167 C 163.271 6.167,163.113 6.279,163.060 6.417 C 163.008 6.554,162.860 6.667,162.732 6.667 C 162.604 6.667,162.500 6.779,162.500 6.917 C 162.500 7.054,162.415 7.167,162.311 7.167 C 162.088 7.167,161.333 7.946,161.333 8.175 C 161.333 8.262,161.221 8.333,161.083 8.333 C 160.946 8.333,160.833 8.446,160.833 8.583 C 160.833 8.721,160.721 8.833,160.583 8.833 C 160.446 8.833,160.333 8.946,160.333 9.083 C 160.333 9.221,160.221 9.333,160.083 9.333 C 159.944 9.333,159.833 9.481,159.833 9.667 C 159.833 9.850,159.683 10.150,159.500 10.333 C 159.317 10.517,159.167 10.742,159.167 10.833 C 159.167 10.925,159.054 11.000,158.917 11.000 C 158.779 11.000,158.667 11.141,158.667 11.313 C 158.667 11.485,158.554 11.719,158.417 11.833 C 158.279 11.947,158.167 12.211,158.167 12.419 C 158.167 12.627,158.054 12.841,157.917 12.894 C 157.779 12.946,157.667 13.142,157.667 13.328 C 157.667 13.520,157.557 13.667,157.412 13.667 C 157.265 13.667,157.117 13.871,157.060 14.156 C 157.007 14.425,156.859 14.685,156.731 14.734 C 156.604 14.783,156.500 14.930,156.500 15.060 C 156.500 15.191,156.387 15.341,156.250 15.394 C 156.085 15.457,156.000 15.718,156.000 16.161 C 156.000 16.648,155.931 16.833,155.750 16.833 C 155.577 16.833,155.500 17.007,155.500 17.399 C 155.500 17.748,155.404 18.001,155.250 18.060 C 155.085 18.124,155.000 18.385,155.000 18.828 C 155.000 19.287,154.927 19.500,154.771 19.500 C 154.531 19.500,154.333 20.194,154.333 21.033 C 154.333 21.303,154.221 21.636,154.083 21.774 C 153.946 21.911,153.831 22.300,153.828 22.637 C 153.825 22.974,153.713 23.396,153.578 23.574 C 153.414 23.790,153.333 24.304,153.333 25.127 C 153.333 25.998,153.260 26.430,153.083 26.607 C 152.946 26.745,152.833 27.143,152.833 27.491 C 152.833 27.852,152.725 28.215,152.583 28.333 C 152.399 28.486,152.333 28.893,152.333 29.877 C 152.333 30.895,152.271 31.258,152.073 31.403 C 151.892 31.536,151.784 31.998,151.716 32.922 C 151.662 33.652,151.517 34.398,151.392 34.579 C 151.268 34.760,151.167 35.159,151.167 35.466 C 151.167 35.773,151.054 36.136,150.917 36.274 C 150.736 36.454,150.665 36.903,150.661 37.887 C 150.658 38.820,150.579 39.352,150.411 39.574 C 150.277 39.751,150.167 40.211,150.167 40.595 C 150.167 41.012,150.066 41.376,149.917 41.500 C 149.779 41.614,149.667 41.848,149.667 42.020 C 149.667 42.322,149.369 42.333,141.104 42.333 C 132.348 42.333,131.500 42.372,131.500 42.771 C 131.500 42.897,131.387 43.000,131.250 43.000 C 131.041 43.000,131.000 43.343,131.000 45.089 C 131.000 46.709,130.949 47.197,130.770 47.265 C 130.629 47.319,130.496 47.751,130.424 48.383 C 130.360 48.950,130.223 49.516,130.119 49.641 C 130.011 49.771,129.902 50.739,129.863 51.914 C 129.761 54.970,128.780 54.667,138.750 54.667 L 147.000 54.667 147.000 56.190 C 147.000 57.384,146.943 57.755,146.737 57.905 C 146.567 58.030,146.441 58.474,146.379 59.174 C 146.327 59.766,146.205 60.301,146.109 60.364 C 146.013 60.426,145.903 60.968,145.864 61.567 C 145.823 62.217,145.702 62.735,145.564 62.849 C 145.401 62.985,145.333 63.452,145.333 64.449 C 145.333 65.478,145.266 65.924,145.083 66.107 C 144.946 66.245,144.833 66.617,144.833 66.934 C 144.833 67.293,144.739 67.547,144.583 67.606 C 144.384 67.683,144.333 68.042,144.333 69.374 C 144.333 70.700,144.279 71.086,144.072 71.237 C 143.929 71.342,143.769 71.763,143.716 72.173 C 143.664 72.582,143.550 73.008,143.462 73.119 C 143.374 73.230,143.261 73.924,143.211 74.660 C 143.154 75.484,143.032 76.071,142.893 76.186 C 142.738 76.315,142.667 76.781,142.667 77.667 C 142.667 78.612,142.600 79.015,142.417 79.167 C 142.266 79.292,142.167 79.657,142.167 80.086 C 142.167 80.565,142.085 80.829,141.917 80.894 C 141.717 80.970,141.667 81.330,141.667 82.667 C 141.667 83.979,141.614 84.364,141.425 84.437 C 141.287 84.489,141.134 84.866,141.070 85.306 C 141.009 85.734,140.884 86.176,140.794 86.289 C 140.704 86.402,140.589 87.151,140.539 87.952 C 140.484 88.839,140.361 89.496,140.224 89.633 C 140.082 89.775,139.998 90.266,139.995 90.970 C 139.991 91.684,139.902 92.199,139.745 92.407 C 139.610 92.585,139.500 93.083,139.500 93.514 C 139.500 94.057,139.423 94.327,139.250 94.394 C 139.052 94.470,139.000 94.820,139.000 96.083 C 139.000 97.323,138.946 97.698,138.758 97.770 C 138.621 97.823,138.467 98.199,138.404 98.640 C 138.342 99.067,138.213 99.515,138.118 99.634 C 138.022 99.754,137.909 100.466,137.867 101.218 C 137.816 102.131,137.715 102.627,137.562 102.717 C 137.397 102.813,137.333 103.242,137.333 104.264 C 137.333 105.366,137.278 105.698,137.083 105.773 C 136.909 105.840,136.833 106.111,136.833 106.667 C 136.833 107.222,136.757 107.493,136.583 107.560 C 136.386 107.636,136.333 107.984,136.333 109.224 C 136.333 110.391,136.271 110.844,136.092 110.993 C 135.958 111.104,135.798 111.544,135.735 111.972 C 135.672 112.400,135.543 112.800,135.448 112.861 C 135.353 112.922,135.241 113.635,135.200 114.445 C 135.148 115.453,135.053 115.959,134.896 116.050 C 134.734 116.144,134.667 116.549,134.667 117.437 C 134.667 118.329,134.595 118.763,134.417 118.940 C 134.279 119.078,134.167 119.363,134.167 119.575 C 134.167 119.786,134.054 120.053,133.917 120.167 C 133.751 120.304,133.667 120.678,133.667 121.276 C 133.667 121.906,133.595 122.205,133.427 122.269 C 133.295 122.320,133.140 122.575,133.083 122.836 C 133.025 123.097,132.871 123.400,132.739 123.509 C 132.608 123.618,132.500 123.878,132.500 124.086 C 132.500 124.294,132.387 124.508,132.250 124.560 C 132.112 124.613,132.000 124.799,132.000 124.974 C 132.000 125.149,131.887 125.386,131.750 125.500 C 131.612 125.614,131.500 125.811,131.500 125.937 C 131.500 126.063,131.387 126.167,131.250 126.167 C 131.083 126.167,131.000 126.333,131.000 126.667 C 131.000 126.942,130.928 127.167,130.841 127.167 C 130.634 127.167,129.833 127.968,129.833 128.174 C 129.833 128.262,129.721 128.333,129.583 128.333 C 129.446 128.333,129.333 128.446,129.333 128.583 C 129.333 128.721,129.221 128.833,129.083 128.833 C 128.946 128.833,128.833 128.946,128.833 129.083 C 128.833 129.221,128.721 129.333,128.583 129.333 C 128.446 129.333,128.333 129.438,128.333 129.565 C 128.333 129.693,128.141 129.846,127.905 129.905 C 127.670 129.964,127.260 130.234,126.994 130.506 C 126.710 130.797,126.337 131.000,126.089 131.000 C 125.825 131.000,125.667 131.094,125.667 131.250 C 125.667 131.417,125.499 131.500,125.161 131.500 C 124.866 131.500,124.616 131.604,124.560 131.750 C 124.507 131.889,124.259 132.000,124.000 132.000 C 123.745 132.000,123.495 132.105,123.446 132.233 C 123.378 132.412,122.846 132.480,121.151 132.525 C 119.577 132.566,118.924 132.643,118.875 132.792 C 118.777 133.085,117.315 133.057,116.727 132.751 C 114.933 131.815,112.833 132.716,112.833 134.422 C 112.833 135.121,112.775 135.333,112.583 135.333 C 112.398 135.333,112.333 135.528,112.333 136.083 C 112.333 136.612,112.265 136.833,112.102 136.833 C 111.954 136.833,111.828 137.118,111.753 137.625 C 111.687 138.060,111.554 138.466,111.457 138.526 C 111.360 138.587,111.244 139.071,111.200 139.603 C 111.156 140.136,111.018 140.673,110.893 140.797 C 110.769 140.922,110.667 141.174,110.667 141.357 C 110.667 141.540,110.551 141.806,110.411 141.946 C 110.210 142.147,110.165 142.531,110.202 143.726 L 110.250 145.250 110.750 145.306 C 111.025 145.337,111.310 145.468,111.383 145.598 C 111.476 145.761,111.835 145.833,112.558 145.833 C 113.164 145.833,113.686 145.920,113.806 146.040 C 113.945 146.178,114.805 146.266,116.423 146.308 C 117.749 146.342,118.833 146.437,118.833 146.519 C 118.833 146.600,120.221 146.667,121.917 146.667 C 123.861 146.667,125.000 146.605,125.000 146.500 C 125.000 146.406,125.472 146.333,126.083 146.333 C 126.935 146.333,127.167 146.280,127.167 146.083 C 127.167 145.880,127.445 145.833,128.672 145.833 C 129.856 145.833,130.198 145.780,130.273 145.583 C 130.338 145.413,130.605 145.333,131.106 145.333 C 131.608 145.333,131.874 145.253,131.940 145.083 C 131.994 144.941,132.243 144.833,132.518 144.833 C 132.818 144.833,133.000 144.746,133.000 144.602 C 133.000 144.456,133.278 144.329,133.760 144.257 C 134.178 144.195,134.561 144.036,134.611 143.905 C 134.661 143.774,134.807 143.667,134.934 143.667 C 135.062 143.667,135.167 143.554,135.167 143.417 C 135.167 143.249,135.334 143.167,135.672 143.167 C 135.967 143.167,136.217 143.063,136.273 142.917 C 136.326 142.779,136.522 142.667,136.709 142.667 C 136.897 142.667,137.305 142.404,137.616 142.083 C 137.928 141.762,138.329 141.500,138.508 141.500 C 138.687 141.500,138.833 141.387,138.833 141.250 C 138.833 141.112,138.948 141.000,139.089 141.000 C 139.229 141.000,139.387 140.888,139.440 140.750 C 139.492 140.613,139.640 140.500,139.768 140.500 C 139.896 140.500,140.000 140.387,140.000 140.250 C 140.000 140.112,140.112 140.000,140.250 140.000 C 140.387 140.000,140.500 139.887,140.500 139.750 C 140.500 139.612,140.612 139.500,140.750 139.500 C 140.887 139.500,141.000 139.396,141.000 139.269 C 141.000 139.143,141.150 139.000,141.333 138.952 C 141.517 138.904,141.667 138.745,141.667 138.599 C 141.667 138.453,141.779 138.333,141.917 138.333 C 142.054 138.333,142.167 138.221,142.167 138.083 C 142.167 137.946,142.279 137.833,142.417 137.833 C 142.554 137.833,142.667 137.721,142.667 137.583 C 142.667 137.446,142.779 137.333,142.917 137.333 C 143.054 137.333,143.167 137.221,143.167 137.083 C 143.167 136.946,143.279 136.833,143.417 136.833 C 143.556 136.833,143.667 136.685,143.667 136.500 C 143.667 136.317,143.771 136.167,143.899 136.167 C 144.026 136.167,144.180 135.969,144.241 135.727 C 144.302 135.485,144.572 135.094,144.842 134.857 C 145.120 134.613,145.333 134.258,145.333 134.041 C 145.333 133.829,145.446 133.613,145.583 133.560 C 145.726 133.506,145.833 133.257,145.833 132.982 C 145.833 132.665,145.919 132.500,146.083 132.500 C 146.221 132.500,146.333 132.415,146.333 132.310 C 146.333 132.206,146.448 132.037,146.587 131.934 C 146.727 131.832,146.888 131.449,146.946 131.083 C 147.003 130.716,147.152 130.357,147.275 130.283 C 147.399 130.210,147.500 130.013,147.500 129.845 C 147.500 129.678,147.612 129.447,147.750 129.333 C 147.903 129.207,148.000 128.841,148.000 128.396 C 148.000 127.859,148.066 127.667,148.250 127.667 C 148.418 127.667,148.500 127.499,148.500 127.155 C 148.500 126.873,148.612 126.530,148.750 126.393 C 148.920 126.222,149.000 125.802,149.000 125.071 C 149.000 124.270,149.058 124.000,149.231 124.000 C 149.529 124.000,149.662 123.481,149.664 122.306 C 149.666 121.755,149.745 121.335,149.854 121.299 C 149.958 121.264,150.080 120.847,150.125 120.371 C 150.171 119.895,150.312 119.421,150.438 119.316 C 150.602 119.179,150.667 118.685,150.667 117.558 C 150.667 116.318,150.719 115.969,150.917 115.894 C 151.078 115.832,151.167 115.574,151.167 115.169 C 151.167 114.814,151.275 114.451,151.417 114.333 C 151.605 114.177,151.667 113.758,151.667 112.646 C 151.667 111.505,151.719 111.167,151.895 111.167 C 152.147 111.167,152.325 110.357,152.337 109.167 C 152.341 108.754,152.454 108.271,152.589 108.093 C 152.723 107.915,152.833 107.479,152.833 107.123 C 152.833 106.767,152.946 106.364,153.083 106.226 C 153.266 106.043,153.333 105.597,153.333 104.560 C 153.333 103.522,153.400 103.076,153.583 102.893 C 153.721 102.755,153.833 102.380,153.833 102.060 C 153.833 101.739,153.946 101.364,154.083 101.226 C 154.270 101.039,154.333 100.579,154.333 99.405 C 154.333 98.183,154.384 97.833,154.563 97.833 C 154.823 97.833,155.000 97.125,155.000 96.082 C 155.000 95.691,155.112 95.157,155.249 94.894 C 155.386 94.631,155.498 94.106,155.499 93.726 C 155.500 93.267,155.584 93.004,155.750 92.940 C 155.946 92.864,156.000 92.525,156.000 91.359 C 156.000 90.242,156.062 89.823,156.250 89.667 C 156.391 89.550,156.500 89.186,156.500 88.833 C 156.500 88.480,156.609 88.117,156.750 88.000 C 156.941 87.841,157.000 87.406,157.000 86.146 C 157.000 84.861,157.050 84.500,157.229 84.500 C 157.473 84.500,157.667 83.803,157.667 82.929 C 157.667 82.638,157.743 82.323,157.837 82.230 C 157.930 82.136,158.054 81.540,158.112 80.905 C 158.175 80.209,158.306 79.697,158.442 79.617 C 158.604 79.521,158.667 79.070,158.667 78.010 C 158.667 76.853,158.721 76.515,158.917 76.440 C 159.087 76.374,159.167 76.108,159.167 75.606 C 159.167 75.105,159.247 74.838,159.417 74.773 C 159.616 74.697,159.667 74.339,159.667 73.014 C 159.667 71.696,159.720 71.320,159.921 71.208 C 160.074 71.122,160.217 70.709,160.281 70.166 C 160.340 69.671,160.487 69.075,160.609 68.842 C 160.731 68.608,160.832 67.956,160.832 67.393 C 160.833 66.637,160.899 66.344,161.083 66.273 C 161.280 66.198,161.333 65.856,161.333 64.672 C 161.333 63.445,161.380 63.167,161.583 63.167 C 161.771 63.167,161.833 62.965,161.833 62.351 C 161.833 61.780,161.908 61.507,162.083 61.440 C 162.280 61.364,162.333 61.021,162.333 59.827 C 162.333 58.744,162.401 58.242,162.568 58.075 C 162.697 57.946,162.850 57.520,162.907 57.128 C 162.964 56.737,163.136 56.023,163.290 55.542 L 163.569 54.667 173.618 54.667 C 182.439 54.667,183.667 54.636,183.667 54.417 C 183.667 54.279,183.773 54.167,183.903 54.167 C 184.035 54.167,184.192 53.927,184.258 53.625 C 184.322 53.327,184.460 53.030,184.563 52.964 C 184.670 52.896,184.775 52.220,184.809 51.381 C 184.851 50.353,184.938 49.877,185.101 49.783 C 185.229 49.710,185.333 49.401,185.333 49.095 C 185.333 48.790,185.435 48.456,185.560 48.353 C 185.711 48.227,185.797 47.715,185.819 46.811 C 185.841 45.890,185.929 45.381,186.093 45.217 C 186.259 45.051,186.333 44.598,186.333 43.759 L 186.333 42.542 185.812 42.438 C 185.526 42.380,180.989 42.333,175.729 42.333 L 166.167 42.333 166.167 41.268 C 166.167 40.474,166.231 40.178,166.417 40.106 C 166.610 40.032,166.667 39.710,166.667 38.692 C 166.667 37.724,166.733 37.319,166.917 37.167 C 167.067 37.042,167.167 36.677,167.167 36.247 C 167.167 35.768,167.248 35.504,167.417 35.440 C 167.614 35.364,167.667 35.016,167.667 33.773 C 167.667 32.594,167.724 32.180,167.896 32.114 C 168.022 32.066,168.179 31.664,168.245 31.222 C 168.311 30.779,168.443 30.322,168.538 30.206 C 168.633 30.090,168.749 29.472,168.795 28.833 C 168.844 28.145,168.971 27.593,169.106 27.482 C 169.241 27.369,169.333 26.964,169.333 26.480 C 169.333 26.032,169.407 25.667,169.497 25.667 C 169.587 25.667,169.712 25.461,169.775 25.210 C 169.838 24.959,169.989 24.653,170.111 24.531 C 170.233 24.409,170.333 24.015,170.333 23.655 C 170.333 23.295,170.395 23.000,170.470 23.000 C 170.686 23.000,171.500 21.671,171.500 21.318 C 171.500 21.143,171.612 21.000,171.750 21.000 C 171.887 21.000,172.000 20.859,172.000 20.687 C 172.000 20.515,172.112 20.281,172.250 20.167 C 172.387 20.053,172.500 19.856,172.500 19.730 C 172.500 19.603,172.612 19.500,172.750 19.500 C 172.887 19.500,173.000 19.428,173.000 19.341 C 173.000 19.134,173.801 18.333,174.008 18.333 C 174.095 18.333,174.167 18.221,174.167 18.083 C 174.167 17.946,174.279 17.833,174.417 17.833 C 174.554 17.833,174.667 17.721,174.667 17.583 C 174.667 17.446,174.779 17.333,174.917 17.333 C 175.054 17.333,175.167 17.237,175.167 17.120 C 175.167 17.002,175.373 16.812,175.625 16.697 C 176.557 16.270,176.833 16.083,176.833 15.877 C 176.833 15.756,177.038 15.667,177.316 15.667 C 177.590 15.667,177.839 15.559,177.894 15.417 C 177.946 15.279,178.179 15.167,178.411 15.167 C 178.675 15.167,178.833 15.073,178.833 14.917 C 178.833 14.722,179.055 14.667,179.825 14.667 C 180.518 14.667,180.857 14.594,180.952 14.425 C 181.064 14.225,181.847 14.174,185.447 14.133 C 190.322 14.077,190.019 14.153,190.130 12.962 C 190.176 12.473,190.313 12.024,190.439 11.950 C 190.564 11.877,190.669 11.614,190.672 11.367 C 190.675 11.119,190.787 10.771,190.922 10.593 C 191.077 10.388,191.167 9.885,191.167 9.218 C 191.167 8.395,191.221 8.167,191.417 8.167 C 191.609 8.167,191.667 7.953,191.667 7.245 C 191.667 6.615,191.739 6.295,191.897 6.235 C 192.023 6.186,192.175 5.795,192.235 5.365 C 192.295 4.935,192.454 4.438,192.589 4.260 C 193.418 3.163,192.664 1.333,191.382 1.333 C 190.932 1.333,190.670 1.249,190.606 1.083 C 190.541 0.913,190.275 0.833,189.776 0.833 C 189.326 0.833,188.960 0.736,188.833 0.583 C 188.521 0.208,175.979 0.208,175.667 0.583 M200.333 28.023 C 200.333 28.311,200.213 28.634,200.067 28.742 C 199.888 28.873,199.771 29.302,199.711 30.050 C 199.660 30.687,199.524 31.244,199.394 31.352 C 199.243 31.477,199.167 31.920,199.167 32.669 C 199.167 33.519,199.105 33.821,198.917 33.894 C 198.733 33.964,198.667 34.253,198.667 34.977 C 198.667 35.701,198.600 35.990,198.417 36.060 C 198.225 36.134,198.167 36.449,198.167 37.411 C 198.167 38.416,198.117 38.667,197.917 38.667 C 197.722 38.667,197.667 38.891,197.667 39.690 C 197.667 40.436,197.594 40.766,197.400 40.908 C 197.219 41.041,197.105 41.473,197.043 42.260 C 196.987 42.977,196.867 43.467,196.727 43.550 C 196.568 43.643,196.500 44.055,196.500 44.925 C 196.500 45.918,196.450 46.167,196.250 46.167 C 196.054 46.167,196.000 46.396,196.000 47.232 C 196.000 48.026,195.936 48.322,195.750 48.394 C 195.558 48.467,195.500 48.783,195.500 49.745 C 195.500 50.749,195.450 51.000,195.250 51.000 C 195.053 51.000,195.000 51.231,195.000 52.083 C 195.000 52.889,194.942 53.167,194.772 53.167 C 194.523 53.167,194.338 53.987,194.335 55.107 C 194.334 55.566,194.249 55.830,194.083 55.894 C 193.902 55.963,193.832 56.254,193.828 56.953 C 193.825 57.535,193.726 58.045,193.578 58.240 C 193.428 58.439,193.333 58.939,193.333 59.537 C 193.333 60.249,193.266 60.536,193.083 60.606 C 192.893 60.680,192.833 60.991,192.833 61.917 C 192.833 62.842,192.774 63.154,192.583 63.227 C 192.402 63.297,192.333 63.582,192.333 64.268 C 192.333 64.942,192.257 65.269,192.067 65.408 C 191.885 65.541,191.771 65.973,191.710 66.760 C 191.654 67.477,191.534 67.967,191.393 68.050 C 191.242 68.139,191.167 68.517,191.167 69.187 C 191.167 69.857,191.084 70.274,190.917 70.440 C 190.747 70.610,190.667 71.030,190.667 71.744 C 190.667 72.527,190.602 72.822,190.417 72.894 C 190.225 72.967,190.167 73.283,190.167 74.245 C 190.167 75.249,190.117 75.500,189.917 75.500 C 189.720 75.500,189.667 75.731,189.667 76.583 C 189.667 77.389,189.608 77.667,189.438 77.667 C 189.189 77.667,189.005 78.487,189.002 79.607 C 189.001 80.066,188.916 80.330,188.750 80.394 C 188.569 80.463,188.499 80.754,188.495 81.453 C 188.491 82.035,188.392 82.545,188.245 82.740 C 188.090 82.945,188.000 83.449,188.000 84.115 C 188.000 84.939,187.946 85.167,187.750 85.167 C 187.549 85.167,187.500 85.426,187.500 86.500 C 187.500 87.574,187.451 87.833,187.250 87.833 C 187.056 87.833,187.000 88.055,187.000 88.825 C 187.000 89.562,186.931 89.855,186.733 89.966 C 186.544 90.072,186.439 90.453,186.376 91.266 C 186.321 91.978,186.200 92.467,186.060 92.550 C 185.909 92.639,185.833 93.017,185.833 93.687 C 185.833 94.357,185.750 94.774,185.583 94.940 C 185.414 95.110,185.333 95.530,185.333 96.244 C 185.333 97.027,185.269 97.322,185.083 97.394 C 184.892 97.467,184.833 97.783,184.833 98.745 C 184.833 99.749,184.783 100.000,184.583 100.000 C 184.387 100.000,184.333 100.231,184.333 101.083 C 184.333 101.891,184.275 102.167,184.104 102.167 C 183.837 102.167,183.667 102.880,183.667 104.003 C 183.667 104.556,183.591 104.827,183.417 104.894 C 183.236 104.963,183.167 105.247,183.167 105.923 C 183.167 106.531,183.079 106.944,182.917 107.107 C 182.743 107.281,182.667 107.708,182.667 108.512 C 182.667 109.427,182.615 109.667,182.417 109.667 C 182.222 109.667,182.166 109.896,182.161 110.708 C 182.158 111.359,182.064 111.871,181.911 112.074 C 181.777 112.251,181.667 112.720,181.667 113.115 L 181.667 113.833 188.883 113.833 C 197.094 113.833,196.500 113.953,196.500 112.300 C 196.500 111.404,196.552 111.167,196.750 111.167 C 196.951 111.167,197.000 110.907,197.000 109.833 C 197.000 108.809,197.053 108.500,197.231 108.500 C 197.503 108.500,197.661 107.995,197.664 107.113 C 197.666 106.763,197.779 106.364,197.917 106.226 C 198.091 106.052,198.167 105.626,198.167 104.821 C 198.167 103.906,198.218 103.667,198.417 103.667 C 198.613 103.667,198.667 103.437,198.667 102.601 C 198.667 101.808,198.731 101.511,198.917 101.440 C 199.108 101.366,199.167 101.051,199.167 100.089 C 199.167 99.084,199.217 98.833,199.417 98.833 C 199.615 98.833,199.667 98.593,199.667 97.667 C 199.667 96.722,199.730 96.437,200.000 96.167 C 200.242 95.924,200.333 95.611,200.333 95.020 C 200.333 94.501,200.424 94.133,200.583 94.000 C 200.761 93.853,200.833 93.464,200.833 92.664 C 200.833 91.815,200.895 91.512,201.083 91.440 C 201.267 91.369,201.333 91.081,201.333 90.359 C 201.333 89.687,201.413 89.308,201.583 89.167 C 201.761 89.019,201.833 88.628,201.833 87.813 C 201.833 86.905,201.885 86.667,202.083 86.667 C 202.282 86.667,202.333 86.426,202.333 85.500 C 202.333 84.858,202.401 84.333,202.484 84.333 C 202.709 84.333,203.000 83.372,203.000 82.630 C 203.000 82.270,203.112 81.864,203.250 81.726 C 203.424 81.552,203.500 81.126,203.500 80.321 C 203.500 79.406,203.552 79.167,203.750 79.167 C 203.946 79.167,204.000 78.937,204.000 78.101 C 204.000 77.308,204.064 77.011,204.250 76.940 C 204.442 76.866,204.500 76.551,204.500 75.589 C 204.500 74.584,204.550 74.333,204.750 74.333 C 204.945 74.333,205.000 74.109,205.000 73.310 C 205.000 72.564,205.072 72.234,205.267 72.092 C 205.448 71.959,205.562 71.527,205.623 70.740 C 205.679 70.023,205.800 69.533,205.940 69.450 C 206.099 69.357,206.167 68.945,206.167 68.075 C 206.167 67.082,206.217 66.833,206.417 66.833 C 206.611 66.833,206.667 66.611,206.667 65.828 C 206.667 65.088,206.733 64.798,206.917 64.727 C 207.107 64.654,207.167 64.342,207.167 63.417 C 207.167 62.491,207.226 62.180,207.417 62.106 C 207.604 62.035,207.667 61.736,207.667 60.922 C 207.667 60.109,207.725 59.833,207.896 59.833 C 208.152 59.833,208.333 59.128,208.333 58.134 C 208.333 57.771,208.446 57.364,208.583 57.226 C 208.757 57.053,208.833 56.628,208.833 55.839 C 208.833 54.982,208.895 54.679,209.083 54.606 C 209.267 54.536,209.333 54.247,209.333 53.523 C 209.333 52.799,209.400 52.510,209.583 52.440 C 209.775 52.366,209.833 52.051,209.833 51.089 C 209.833 50.084,209.883 49.833,210.083 49.833 C 210.278 49.833,210.333 49.609,210.333 48.810 C 210.333 48.064,210.406 47.734,210.600 47.592 C 210.781 47.459,210.895 47.027,210.957 46.240 C 211.013 45.523,211.133 45.033,211.273 44.950 C 211.430 44.858,211.500 44.458,211.500 43.653 C 211.500 42.773,211.561 42.466,211.750 42.394 C 211.936 42.322,212.000 42.026,212.000 41.232 C 212.000 40.396,212.054 40.167,212.250 40.167 C 212.451 40.167,212.500 39.907,212.500 38.833 C 212.500 37.759,212.549 37.500,212.750 37.500 C 212.947 37.500,213.000 37.269,213.000 36.417 C 213.000 35.611,213.058 35.333,213.228 35.333 C 213.470 35.333,213.662 34.519,213.665 33.479 C 213.666 33.146,213.779 32.781,213.917 32.667 C 214.086 32.526,214.167 32.149,214.167 31.500 C 214.167 30.851,214.247 30.474,214.417 30.333 C 214.600 30.181,214.667 29.777,214.667 28.813 L 214.667 27.500 207.500 27.500 L 200.333 27.500 200.333 28.023 M286.958 56.282 L 286.167 56.352 286.167 58.164 C 286.167 59.553,286.225 60.035,286.417 60.226 C 286.610 60.419,286.667 60.909,286.667 62.373 C 286.667 63.783,286.729 64.353,286.911 64.593 C 287.091 64.831,287.157 65.403,287.161 66.755 C 287.165 68.029,287.236 68.693,287.394 68.921 C 287.545 69.139,287.649 69.971,287.703 71.396 C 287.769 73.161,287.833 73.570,288.059 73.696 C 288.292 73.827,288.333 74.177,288.333 76.008 C 288.333 77.816,288.374 78.167,288.583 78.167 C 288.793 78.167,288.833 78.528,288.833 80.422 C 288.833 82.273,288.878 82.694,289.083 82.773 C 289.289 82.852,289.333 83.281,289.333 85.190 C 289.333 87.099,289.378 87.527,289.583 87.606 C 289.787 87.685,289.833 88.086,289.833 89.773 C 289.833 91.460,289.880 91.862,290.083 91.940 C 290.281 92.015,290.333 92.361,290.333 93.578 C 290.333 95.611,290.483 96.667,290.773 96.667 C 290.954 96.667,291.000 97.153,291.000 99.083 C 291.000 101.120,291.039 101.500,291.250 101.500 C 291.459 101.500,291.500 101.852,291.500 103.667 C 291.500 105.481,291.541 105.833,291.750 105.833 C 291.961 105.833,292.000 106.209,292.000 108.218 C 292.000 110.057,292.056 110.677,292.245 110.926 C 292.401 111.133,292.491 111.648,292.495 112.353 C 292.499 113.210,292.577 113.553,292.845 113.894 L 293.191 114.333 300.595 114.333 C 307.889 114.333,308.000 114.328,308.000 114.000 C 308.000 113.817,308.074 113.667,308.163 113.667 C 308.253 113.667,308.373 113.485,308.429 113.262 C 308.484 113.040,308.636 112.817,308.765 112.767 C 308.896 112.717,309.000 112.453,309.000 112.172 C 309.000 111.846,309.084 111.667,309.237 111.667 C 309.367 111.667,309.523 111.442,309.583 111.167 C 309.644 110.892,309.760 110.667,309.842 110.667 C 309.923 110.667,310.185 110.256,310.422 109.753 C 310.660 109.251,310.925 108.797,311.011 108.743 C 311.096 108.690,311.167 108.499,311.167 108.318 C 311.167 108.137,311.279 107.946,311.417 107.894 C 311.559 107.839,311.667 107.590,311.667 107.316 C 311.667 106.998,311.752 106.833,311.917 106.833 C 312.054 106.833,312.167 106.695,312.167 106.526 C 312.167 106.356,312.317 106.045,312.500 105.833 C 312.683 105.622,312.833 105.318,312.833 105.159 C 312.833 104.999,312.946 104.826,313.083 104.773 C 313.229 104.717,313.333 104.467,313.333 104.172 C 313.333 103.834,313.416 103.667,313.583 103.667 C 313.750 103.667,313.833 103.500,313.833 103.167 C 313.833 102.833,313.917 102.667,314.083 102.667 C 314.249 102.667,314.333 102.501,314.333 102.175 C 314.333 101.905,314.427 101.623,314.542 101.550 C 314.825 101.369,315.500 100.391,315.500 100.162 C 315.500 100.060,315.612 99.864,315.750 99.726 C 315.887 99.589,316.000 99.340,316.000 99.173 C 316.000 99.006,316.112 98.826,316.250 98.773 C 316.387 98.720,316.500 98.485,316.500 98.250 C 316.500 98.015,316.612 97.780,316.750 97.727 C 316.893 97.672,317.000 97.424,317.000 97.149 C 317.000 96.848,317.087 96.667,317.232 96.667 C 317.359 96.667,317.513 96.470,317.573 96.230 C 317.634 95.990,317.792 95.684,317.925 95.551 C 318.058 95.418,318.167 95.173,318.167 95.006 C 318.167 94.839,318.279 94.659,318.417 94.606 C 318.554 94.554,318.667 94.324,318.667 94.097 C 318.667 93.869,318.779 93.621,318.916 93.544 C 319.052 93.467,319.181 93.206,319.201 92.964 C 319.221 92.722,319.297 92.561,319.370 92.606 C 319.443 92.651,319.547 92.552,319.600 92.386 C 319.757 91.902,319.818 91.779,320.161 91.250 C 320.690 90.433,321.333 89.155,321.333 88.921 C 321.333 88.801,321.446 88.659,321.583 88.606 C 321.721 88.554,321.833 88.321,321.833 88.089 C 321.833 87.825,321.927 87.667,322.083 87.667 C 322.250 87.667,322.333 87.500,322.333 87.167 C 322.333 86.840,322.418 86.667,322.576 86.667 C 322.721 86.667,322.862 86.433,322.928 86.083 C 322.990 85.749,323.136 85.500,323.269 85.500 C 323.415 85.500,323.500 85.316,323.500 85.000 C 323.500 84.667,323.583 84.500,323.750 84.500 C 323.915 84.500,324.000 84.335,324.000 84.018 C 324.000 83.743,324.107 83.494,324.250 83.440 C 324.387 83.387,324.500 83.229,324.500 83.089 C 324.500 82.948,324.612 82.833,324.750 82.833 C 324.917 82.833,325.000 82.667,325.000 82.333 C 325.000 82.058,325.074 81.833,325.164 81.833 C 325.255 81.833,325.435 81.580,325.564 81.270 C 325.693 80.961,325.882 80.656,325.983 80.594 C 326.084 80.531,326.167 80.305,326.167 80.091 C 326.167 79.877,326.279 79.659,326.417 79.606 C 326.554 79.554,326.667 79.329,326.667 79.106 C 326.667 78.884,326.779 78.659,326.917 78.606 C 327.063 78.550,327.167 78.301,327.167 78.005 C 327.167 77.667,327.249 77.500,327.417 77.500 C 327.583 77.500,327.667 77.333,327.667 77.000 C 327.667 76.679,327.751 76.500,327.903 76.500 C 328.034 76.500,328.188 76.281,328.247 76.014 C 328.407 75.284,328.833 75.202,328.833 75.901 C 328.833 76.208,328.946 76.553,329.083 76.667 C 329.268 76.820,329.333 77.229,329.333 78.239 C 329.333 79.180,329.409 79.703,329.578 79.926 C 329.741 80.143,329.824 80.667,329.828 81.505 C 329.831 82.288,329.919 82.883,330.062 83.088 C 330.194 83.279,330.322 84.034,330.366 84.894 C 330.426 86.048,330.503 86.405,330.721 86.527 C 330.951 86.656,331.000 86.958,331.000 88.240 C 331.000 89.471,331.052 89.818,331.250 89.894 C 331.449 89.970,331.500 90.330,331.500 91.667 C 331.500 93.004,331.551 93.363,331.750 93.440 C 331.947 93.515,332.000 93.861,332.000 95.083 C 332.000 96.305,332.053 96.651,332.250 96.727 C 332.447 96.802,332.500 97.144,332.500 98.333 C 332.500 99.522,332.553 99.864,332.750 99.940 C 332.940 100.013,333.000 100.324,333.000 101.243 C 333.000 102.459,333.238 103.500,333.516 103.500 C 333.599 103.500,333.667 104.252,333.667 105.172 C 333.667 106.504,333.717 106.863,333.917 106.940 C 334.117 107.017,334.167 107.382,334.167 108.773 C 334.167 110.164,334.217 110.530,334.417 110.606 C 334.613 110.682,334.667 111.021,334.667 112.190 C 334.667 113.358,334.720 113.698,334.917 113.773 C 335.054 113.826,335.167 113.973,335.167 114.101 C 335.167 114.296,336.311 114.333,342.292 114.330 L 349.417 114.328 349.792 113.932 C 349.998 113.714,350.167 113.386,350.167 113.203 C 350.167 113.019,350.279 112.826,350.417 112.773 C 350.563 112.717,350.667 112.467,350.667 112.172 C 350.667 111.834,350.749 111.667,350.917 111.667 C 351.083 111.667,351.167 111.500,351.167 111.167 C 351.167 110.833,351.250 110.667,351.417 110.667 C 351.579 110.667,351.667 110.504,351.667 110.204 C 351.667 109.947,351.815 109.614,352.000 109.455 C 352.183 109.298,352.333 109.027,352.333 108.853 C 352.333 108.678,352.446 108.492,352.583 108.440 C 352.721 108.387,352.833 108.201,352.833 108.026 C 352.833 107.851,352.946 107.614,353.083 107.500 C 353.221 107.386,353.333 107.184,353.333 107.051 C 353.333 106.918,353.446 106.697,353.583 106.560 C 353.721 106.422,353.833 106.173,353.833 106.006 C 353.833 105.839,353.946 105.659,354.083 105.606 C 354.221 105.554,354.333 105.329,354.333 105.106 C 354.333 104.884,354.446 104.659,354.583 104.606 C 354.721 104.554,354.833 104.389,354.833 104.240 C 354.833 104.091,354.983 103.779,355.167 103.545 C 355.350 103.312,355.500 102.982,355.500 102.811 C 355.500 102.640,355.574 102.500,355.663 102.500 C 355.753 102.500,355.877 102.294,355.938 102.042 C 356.000 101.790,356.151 101.435,356.275 101.255 C 356.399 101.074,356.500 100.825,356.500 100.701 C 356.500 100.577,356.613 100.364,356.750 100.226 C 356.887 100.089,357.000 99.792,357.000 99.566 C 357.000 99.341,357.110 99.114,357.245 99.062 C 357.380 99.010,357.538 98.718,357.595 98.412 C 357.653 98.106,357.805 97.816,357.933 97.767 C 358.062 97.717,358.167 97.495,358.167 97.273 C 358.167 97.051,358.279 96.826,358.417 96.773 C 358.563 96.717,358.667 96.467,358.667 96.172 C 358.667 95.834,358.749 95.667,358.917 95.667 C 359.083 95.667,359.167 95.500,359.167 95.167 C 359.167 94.833,359.250 94.667,359.417 94.667 C 359.591 94.667,359.667 94.491,359.667 94.083 C 359.667 93.690,359.744 93.500,359.903 93.500 C 360.034 93.500,360.188 93.281,360.247 93.014 C 360.306 92.747,360.462 92.486,360.594 92.436 C 360.725 92.385,360.833 92.152,360.833 91.917 C 360.833 91.682,360.946 91.446,361.083 91.394 C 361.226 91.339,361.333 91.090,361.333 90.816 C 361.333 90.498,361.419 90.333,361.583 90.333 C 361.748 90.333,361.833 90.169,361.833 89.851 C 361.833 89.576,361.941 89.328,362.083 89.273 C 362.229 89.217,362.333 88.967,362.333 88.672 C 362.333 88.351,362.418 88.167,362.565 88.167 C 362.693 88.167,362.847 87.970,362.907 87.730 C 362.967 87.490,363.125 87.184,363.258 87.051 C 363.391 86.918,363.500 86.663,363.500 86.483 C 363.500 86.303,363.613 86.113,363.750 86.060 C 363.893 86.006,364.000 85.757,364.000 85.482 C 364.000 85.165,364.085 85.000,364.250 85.000 C 364.415 85.000,364.500 84.835,364.500 84.518 C 364.500 84.243,364.607 83.994,364.750 83.940 C 364.887 83.887,365.000 83.662,365.000 83.440 C 365.000 83.217,365.105 82.995,365.234 82.946 C 365.363 82.896,365.518 82.632,365.578 82.359 C 365.638 82.085,365.795 81.820,365.927 81.769 C 366.059 81.719,366.167 81.495,366.167 81.273 C 366.167 81.051,366.279 80.826,366.417 80.773 C 366.563 80.717,366.667 80.467,366.667 80.172 C 366.667 79.834,366.749 79.667,366.917 79.667 C 367.081 79.667,367.167 79.502,367.167 79.184 C 367.167 78.910,367.274 78.661,367.417 78.606 C 367.563 78.550,367.667 78.301,367.667 78.005 C 367.667 77.685,367.751 77.500,367.899 77.500 C 368.026 77.500,368.180 77.303,368.240 77.063 C 368.300 76.823,368.459 76.518,368.592 76.385 C 368.725 76.252,368.833 75.969,368.833 75.756 C 368.833 75.543,368.946 75.326,369.083 75.273 C 369.221 75.220,369.333 74.995,369.333 74.773 C 369.333 74.551,369.446 74.326,369.583 74.273 C 369.727 74.218,369.833 73.969,369.833 73.690 C 369.833 73.410,369.940 73.161,370.083 73.106 C 370.221 73.054,370.333 72.829,370.333 72.606 C 370.333 72.384,370.439 72.162,370.568 72.112 C 370.696 72.063,370.851 71.798,370.912 71.523 C 370.972 71.248,371.129 70.934,371.261 70.824 C 371.392 70.715,371.502 70.504,371.505 70.355 C 371.508 70.205,371.621 69.938,371.755 69.760 C 371.890 69.582,372.000 69.226,372.000 68.968 C 372.000 68.663,372.087 68.500,372.250 68.500 C 372.417 68.500,372.500 68.333,372.500 68.000 C 372.500 67.667,372.583 67.500,372.750 67.500 C 372.902 67.500,373.000 67.345,373.000 67.104 C 373.000 66.886,373.120 66.608,373.267 66.486 C 373.414 66.364,373.602 66.111,373.684 65.924 C 373.766 65.736,373.902 65.471,373.988 65.333 C 374.073 65.196,374.305 64.727,374.503 64.293 C 374.700 63.858,374.931 63.460,375.014 63.408 C 375.098 63.356,375.167 63.166,375.167 62.985 C 375.167 62.804,375.279 62.613,375.417 62.560 C 375.559 62.506,375.667 62.257,375.667 61.982 C 375.667 61.717,375.731 61.500,375.810 61.500 C 375.978 61.500,376.833 59.901,376.833 59.586 C 376.833 59.467,376.946 59.326,377.083 59.273 C 377.221 59.220,377.333 58.995,377.333 58.773 C 377.333 58.551,377.446 58.326,377.583 58.273 C 377.748 58.210,377.833 57.949,377.833 57.505 C 377.833 57.019,377.764 56.833,377.583 56.833 C 377.446 56.833,377.333 56.720,377.333 56.582 C 377.333 56.360,376.491 56.335,370.375 56.373 C 364.916 56.407,363.426 56.462,363.458 56.625 C 363.481 56.740,363.406 56.815,363.292 56.792 C 363.167 56.767,363.062 56.967,363.031 57.292 C 363.000 57.618,362.887 57.833,362.747 57.833 C 362.615 57.833,362.469 58.079,362.408 58.405 C 362.349 58.720,362.195 59.017,362.067 59.067 C 361.938 59.116,361.833 59.338,361.833 59.560 C 361.833 59.783,361.721 60.008,361.583 60.060 C 361.437 60.116,361.333 60.366,361.333 60.661 C 361.333 60.999,361.251 61.167,361.083 61.167 C 360.919 61.167,360.833 61.331,360.833 61.649 C 360.833 61.924,360.726 62.172,360.583 62.227 C 360.446 62.280,360.333 62.515,360.333 62.750 C 360.333 62.985,360.225 63.219,360.094 63.269 C 359.962 63.320,359.806 63.580,359.747 63.847 C 359.688 64.115,359.579 64.333,359.505 64.333 C 359.430 64.333,359.320 64.530,359.260 64.770 C 359.200 65.010,359.041 65.316,358.908 65.449 C 358.775 65.582,358.667 65.865,358.667 66.077 C 358.667 66.290,358.554 66.508,358.417 66.560 C 358.279 66.613,358.167 66.838,358.167 67.060 C 358.167 67.283,358.054 67.508,357.917 67.560 C 357.771 67.616,357.667 67.866,357.667 68.161 C 357.667 68.499,357.584 68.667,357.417 68.667 C 357.279 68.667,357.166 68.798,357.166 68.958 C 357.165 69.119,357.015 69.475,356.833 69.750 C 356.651 70.025,356.502 70.448,356.501 70.691 C 356.500 70.933,356.387 71.174,356.250 71.227 C 356.104 71.283,356.000 71.533,356.000 71.828 C 356.000 72.166,355.917 72.333,355.750 72.333 C 355.583 72.333,355.500 72.500,355.500 72.833 C 355.500 73.167,355.417 73.333,355.250 73.333 C 355.075 73.333,355.000 73.509,355.000 73.917 C 355.000 74.310,354.923 74.500,354.763 74.500 C 354.633 74.500,354.478 74.719,354.420 74.986 C 354.361 75.253,354.205 75.514,354.073 75.564 C 353.941 75.615,353.833 75.848,353.833 76.083 C 353.833 76.318,353.721 76.554,353.583 76.606 C 353.441 76.661,353.333 76.910,353.333 77.184 C 353.333 77.502,353.248 77.667,353.083 77.667 C 352.916 77.667,352.833 77.834,352.833 78.172 C 352.833 78.467,352.729 78.717,352.583 78.773 C 352.444 78.827,352.333 79.074,352.333 79.333 C 352.333 79.589,352.225 79.839,352.093 79.890 C 351.960 79.941,351.801 80.255,351.738 80.588 C 351.676 80.921,351.522 81.233,351.396 81.281 C 351.270 81.329,351.167 81.578,351.167 81.833 C 351.167 82.092,351.056 82.340,350.917 82.394 C 350.771 82.450,350.667 82.699,350.667 82.995 C 350.667 83.333,350.584 83.500,350.417 83.500 C 350.252 83.500,350.167 83.665,350.167 83.982 C 350.167 84.257,350.059 84.506,349.917 84.560 C 349.771 84.616,349.667 84.866,349.667 85.161 C 349.667 85.482,349.582 85.667,349.435 85.667 C 349.307 85.667,349.153 85.863,349.093 86.103 C 349.033 86.344,348.875 86.649,348.742 86.782 C 348.609 86.915,348.500 87.159,348.500 87.325 C 348.500 87.490,348.387 87.719,348.250 87.833 C 348.113 87.947,348.000 88.211,348.000 88.419 C 348.000 88.627,347.887 88.841,347.750 88.894 C 347.613 88.946,347.500 89.182,347.500 89.417 C 347.500 89.652,347.387 89.887,347.250 89.940 C 347.107 89.994,347.000 90.243,347.000 90.518 C 347.000 90.835,346.915 91.000,346.750 91.000 C 346.613 91.000,346.500 91.131,346.499 91.292 C 346.498 91.452,346.349 91.808,346.167 92.083 C 345.985 92.358,345.835 92.715,345.834 92.875 C 345.834 93.035,345.721 93.167,345.583 93.167 C 345.380 93.167,345.333 92.888,345.333 91.661 C 345.333 90.477,345.280 90.136,345.083 90.060 C 344.883 89.984,344.833 89.619,344.833 88.244 C 344.833 87.012,344.769 86.459,344.606 86.296 C 344.460 86.150,344.334 85.427,344.256 84.284 C 344.163 82.921,344.079 82.500,343.901 82.500 C 343.713 82.500,343.667 82.109,343.667 80.520 C 343.667 78.964,343.613 78.496,343.417 78.333 C 343.224 78.173,343.167 77.730,343.167 76.391 C 343.167 75.003,343.117 74.637,342.917 74.560 C 342.718 74.484,342.667 74.129,342.667 72.827 C 342.667 71.679,342.600 71.124,342.443 70.967 C 342.298 70.822,342.176 70.066,342.098 68.833 C 342.032 67.783,341.898 66.828,341.801 66.711 C 341.704 66.594,341.588 65.805,341.544 64.958 C 341.500 64.110,341.371 63.267,341.257 63.083 C 341.144 62.900,341.008 62.009,340.954 61.104 C 340.901 60.198,340.777 59.377,340.679 59.279 C 340.580 59.180,340.500 58.744,340.500 58.308 C 340.500 57.803,340.415 57.468,340.266 57.383 C 340.137 57.310,340.006 57.063,339.974 56.833 L 339.917 56.417 332.542 56.373 C 326.055 56.335,325.167 56.360,325.167 56.582 C 325.167 56.720,325.052 56.833,324.912 56.833 C 324.765 56.833,324.617 57.038,324.560 57.323 C 324.507 57.592,324.359 57.852,324.231 57.901 C 324.104 57.950,324.000 58.217,324.000 58.495 C 324.000 58.833,323.917 59.000,323.750 59.000 C 323.612 59.000,323.500 59.104,323.500 59.232 C 323.500 59.360,323.387 59.508,323.250 59.560 C 323.112 59.613,323.000 59.848,323.000 60.083 C 323.000 60.318,322.892 60.552,322.760 60.602 C 322.628 60.653,322.474 60.907,322.417 61.167 C 322.360 61.426,322.205 61.680,322.073 61.731 C 321.941 61.781,321.833 62.005,321.833 62.227 C 321.833 62.449,321.721 62.674,321.583 62.727 C 321.437 62.783,321.333 63.033,321.333 63.328 C 321.333 63.666,321.251 63.833,321.083 63.833 C 320.917 63.833,320.833 64.000,320.833 64.333 C 320.833 64.667,320.750 64.833,320.583 64.833 C 320.417 64.833,320.333 65.000,320.333 65.333 C 320.333 65.627,320.246 65.833,320.122 65.833 C 320.005 65.833,319.724 66.188,319.497 66.622 C 319.269 67.056,318.990 67.511,318.875 67.634 C 318.760 67.757,318.667 68.039,318.667 68.262 C 318.667 68.511,318.570 68.667,318.417 68.667 C 318.250 68.667,318.167 68.833,318.167 69.167 C 318.167 69.500,318.083 69.667,317.917 69.667 C 317.750 69.667,317.667 69.833,317.667 70.167 C 317.667 70.488,317.582 70.667,317.430 70.667 C 317.300 70.667,317.144 70.892,317.083 71.167 C 317.023 71.442,316.907 71.667,316.825 71.667 C 316.743 71.667,316.482 72.078,316.244 72.580 C 316.007 73.082,315.742 73.537,315.656 73.590 C 315.570 73.643,315.500 73.869,315.500 74.093 C 315.500 74.344,315.404 74.500,315.250 74.500 C 315.096 74.500,315.000 74.656,315.000 74.908 C 315.000 75.133,314.906 75.377,314.792 75.450 C 314.677 75.523,314.442 75.846,314.270 76.167 C 314.098 76.487,313.775 77.087,313.553 77.500 C 313.331 77.912,313.078 78.321,312.991 78.408 C 312.904 78.495,312.833 78.731,312.833 78.932 C 312.833 79.133,312.721 79.341,312.583 79.394 C 312.446 79.446,312.333 79.679,312.333 79.911 C 312.333 80.165,312.239 80.333,312.097 80.333 C 311.966 80.333,311.812 80.552,311.753 80.819 C 311.694 81.087,311.538 81.347,311.406 81.398 C 311.271 81.450,311.167 81.709,311.167 81.995 C 311.167 82.333,311.084 82.500,310.917 82.500 C 310.750 82.500,310.667 82.667,310.667 83.000 C 310.667 83.333,310.583 83.500,310.417 83.500 C 310.250 83.500,310.167 83.667,310.167 84.000 C 310.167 84.333,310.083 84.500,309.917 84.500 C 309.751 84.500,309.667 84.666,309.667 84.994 C 309.667 85.309,309.552 85.550,309.350 85.658 C 309.175 85.751,308.868 86.166,308.668 86.581 C 308.468 86.995,308.235 87.333,308.152 87.333 C 308.068 87.333,308.000 87.558,308.000 87.833 C 308.000 88.167,307.917 88.333,307.750 88.333 C 307.583 88.333,307.500 88.500,307.500 88.833 C 307.500 89.167,307.417 89.333,307.250 89.333 C 307.083 89.333,307.000 89.501,307.000 89.839 C 307.000 90.119,306.896 90.384,306.765 90.434 C 306.636 90.483,306.440 90.744,306.328 91.012 C 306.217 91.280,306.060 91.500,305.980 91.500 C 305.899 91.500,305.833 91.618,305.833 91.762 C 305.833 91.906,305.721 92.136,305.583 92.274 C 305.446 92.411,305.333 92.668,305.333 92.845 C 305.333 93.022,305.231 93.167,305.106 93.167 C 304.936 93.167,304.858 92.769,304.796 91.587 C 304.751 90.718,304.636 89.912,304.542 89.795 C 304.443 89.673,304.342 88.226,304.304 86.386 C 304.247 83.662,304.195 83.141,303.952 82.873 C 303.704 82.598,303.667 82.146,303.667 79.382 C 303.667 76.764,303.623 76.171,303.417 76.000 C 303.210 75.828,303.167 75.221,303.167 72.474 C 303.167 69.679,303.127 69.141,302.917 69.060 C 302.706 68.979,302.667 68.436,302.667 65.597 C 302.667 62.895,302.618 62.167,302.422 61.907 C 302.234 61.659,302.176 61.036,302.172 59.240 C 302.164 55.896,303.050 56.254,294.722 56.231 C 290.887 56.220,287.394 56.243,286.958 56.282 M382.167 57.333 L 382.167 58.333 383.750 58.333 L 385.333 58.333 385.333 62.341 L 385.333 66.349 386.375 66.300 L 387.417 66.250 387.461 62.292 L 387.506 58.333 388.836 58.333 L 390.167 58.333 390.167 57.333 L 390.167 56.333 386.167 56.333 L 382.167 56.333 382.167 57.333 M390.667 61.326 L 390.667 66.333 391.750 66.333 L 392.833 66.333 392.833 64.250 C 392.833 62.509,392.874 62.167,393.083 62.167 C 393.269 62.167,393.333 62.361,393.333 62.917 C 393.333 63.472,393.398 63.667,393.583 63.667 C 393.757 63.667,393.833 63.841,393.833 64.236 C 393.833 65.239,393.935 65.333,395.018 65.333 C 395.746 65.333,396.000 65.273,396.000 65.101 C 396.000 64.973,396.113 64.826,396.250 64.773 C 396.421 64.707,396.500 64.439,396.500 63.922 C 396.500 63.362,396.565 63.167,396.750 63.167 C 396.933 63.167,397.000 62.977,397.000 62.457 C 397.000 61.927,397.085 61.694,397.333 61.539 C 397.661 61.334,397.667 61.372,397.667 63.832 L 397.667 66.333 398.417 66.333 L 399.167 66.333 399.167 61.325 L 399.167 56.317 398.125 56.367 C 397.156 56.413,397.079 56.446,397.026 56.833 C 396.994 57.063,396.863 57.310,396.734 57.383 C 396.605 57.457,396.500 57.730,396.500 57.990 C 396.500 58.258,396.391 58.506,396.250 58.560 C 396.087 58.623,396.000 58.883,396.000 59.310 C 396.000 59.738,395.913 59.998,395.750 60.060 C 395.579 60.126,395.500 60.394,395.500 60.911 C 395.500 61.799,395.094 61.976,394.917 61.167 C 394.856 60.892,394.700 60.667,394.570 60.667 C 394.411 60.667,394.333 60.476,394.333 60.083 C 394.333 59.676,394.258 59.500,394.083 59.500 C 393.894 59.500,393.833 59.296,393.833 58.667 C 393.833 58.052,393.770 57.833,393.593 57.833 C 393.429 57.833,393.336 57.607,393.301 57.125 L 393.250 56.417 391.958 56.368 L 390.667 56.319 390.667 61.326 M268.495 66.078 C 267.841 66.732,267.478 67.000,267.250 67.000 C 267.112 67.000,267.000 67.112,267.000 67.250 C 267.000 67.387,266.887 67.500,266.750 67.500 C 266.612 67.500,266.500 67.579,266.500 67.675 C 266.500 67.772,266.275 67.929,266.000 68.025 C 265.725 68.121,265.500 68.267,265.500 68.350 C 265.500 68.432,265.406 68.501,265.292 68.503 C 265.038 68.506,264.333 69.226,264.333 69.482 C 264.333 69.583,264.116 69.667,263.851 69.667 C 263.576 69.667,263.328 69.774,263.273 69.917 C 263.220 70.054,263.062 70.167,262.922 70.167 C 262.782 70.167,262.667 70.279,262.667 70.417 C 262.667 70.554,262.562 70.667,262.434 70.667 C 262.307 70.667,262.159 70.779,262.106 70.917 C 262.054 71.054,261.856 71.167,261.667 71.167 C 261.478 71.167,261.281 71.276,261.229 71.410 C 261.178 71.544,260.993 71.699,260.818 71.755 C 260.643 71.810,260.500 71.963,260.500 72.095 C 260.500 72.226,260.433 72.333,260.351 72.333 C 260.064 72.333,259.994 72.884,260.246 73.162 C 260.386 73.317,260.500 73.531,260.500 73.638 C 260.500 73.745,260.607 73.833,260.737 73.833 C 260.867 73.833,261.023 74.058,261.083 74.333 C 261.144 74.608,261.300 74.833,261.430 74.833 C 261.560 74.833,261.667 74.983,261.667 75.167 C 261.667 75.352,261.778 75.500,261.917 75.500 C 262.083 75.500,262.167 75.667,262.167 76.000 C 262.167 76.333,262.250 76.500,262.417 76.500 C 262.590 76.500,262.667 76.675,262.667 77.071 C 262.667 77.386,262.779 77.755,262.917 77.893 C 263.054 78.030,263.167 78.364,263.167 78.634 C 263.167 78.905,263.279 79.219,263.417 79.333 C 263.558 79.450,263.667 79.814,263.667 80.166 C 263.667 81.130,263.851 81.833,264.104 81.833 C 264.457 81.833,264.435 85.972,264.081 86.232 C 263.919 86.350,263.789 86.836,263.720 87.581 C 263.660 88.222,263.511 88.846,263.389 88.968 C 263.267 89.090,263.167 89.485,263.167 89.845 C 263.167 90.316,263.096 90.500,262.917 90.500 C 262.752 90.500,262.667 90.664,262.667 90.980 C 262.667 91.243,262.554 91.553,262.417 91.667 C 262.279 91.781,262.167 92.017,262.167 92.192 C 262.167 92.367,262.054 92.554,261.917 92.606 C 261.774 92.661,261.667 92.910,261.667 93.184 C 261.667 93.502,261.581 93.667,261.417 93.667 C 261.279 93.667,261.167 93.742,261.167 93.833 C 261.167 93.925,261.017 94.150,260.833 94.333 C 260.650 94.517,260.500 94.779,260.500 94.917 C 260.500 95.054,260.387 95.167,260.250 95.167 C 260.112 95.167,260.000 95.282,260.000 95.422 C 260.000 95.562,259.887 95.720,259.750 95.773 C 259.612 95.826,259.500 95.973,259.500 96.101 C 259.500 96.229,259.387 96.333,259.250 96.333 C 259.112 96.333,259.000 96.446,259.000 96.583 C 259.000 96.721,258.922 96.833,258.828 96.833 C 258.733 96.833,258.435 97.058,258.167 97.333 C 257.898 97.608,257.600 97.833,257.506 97.833 C 257.411 97.833,257.333 97.940,257.333 98.070 C 257.333 98.200,257.108 98.356,256.833 98.417 C 256.558 98.477,256.333 98.633,256.333 98.763 C 256.333 98.893,256.229 99.000,256.101 99.000 C 255.973 99.000,255.826 99.112,255.773 99.250 C 255.720 99.388,255.485 99.500,255.250 99.500 C 255.015 99.500,254.780 99.612,254.727 99.750 C 254.674 99.888,254.449 100.000,254.227 100.000 C 254.005 100.000,253.780 100.112,253.727 100.250 C 253.674 100.389,253.426 100.500,253.169 100.500 C 252.915 100.500,252.622 100.603,252.517 100.729 C 252.413 100.855,252.028 101.006,251.664 101.065 C 251.235 101.133,251.000 101.258,251.000 101.419 C 251.000 101.621,250.707 101.667,249.417 101.667 C 248.120 101.667,247.833 101.712,247.833 101.917 C 247.833 102.055,247.686 102.167,247.503 102.167 C 247.187 102.167,247.172 102.029,247.128 98.708 L 247.083 95.250 246.520 95.196 C 246.055 95.152,245.860 95.246,245.396 95.738 C 245.087 96.065,244.682 96.333,244.495 96.333 C 244.309 96.333,244.113 96.446,244.060 96.583 C 244.008 96.721,243.860 96.833,243.732 96.833 C 243.604 96.833,243.500 96.946,243.500 97.083 C 243.500 97.221,243.387 97.333,243.250 97.333 C 243.112 97.333,243.000 97.446,243.000 97.583 C 243.000 97.723,242.852 97.833,242.665 97.833 C 242.481 97.833,242.202 97.983,242.045 98.167 C 241.888 98.350,241.663 98.500,241.546 98.500 C 241.429 98.500,241.333 98.612,241.333 98.750 C 241.333 98.888,241.221 99.000,241.083 99.000 C 240.946 99.000,240.833 99.112,240.833 99.250 C 240.833 99.417,240.667 99.500,240.333 99.500 C 240.000 99.500,239.833 99.583,239.833 99.750 C 239.833 99.888,239.718 100.000,239.578 100.000 C 239.438 100.000,239.280 100.112,239.227 100.250 C 239.174 100.388,239.038 100.500,238.925 100.500 C 238.811 100.500,238.583 100.650,238.417 100.833 C 238.251 101.017,238.014 101.167,237.891 101.167 C 237.768 101.167,237.667 101.279,237.667 101.417 C 237.667 101.554,237.552 101.667,237.411 101.667 C 237.271 101.667,237.113 101.779,237.060 101.917 C 237.008 102.054,236.860 102.167,236.732 102.167 C 236.604 102.167,236.500 102.279,236.500 102.417 C 236.500 102.573,236.342 102.667,236.078 102.667 C 235.846 102.667,235.613 102.779,235.560 102.917 C 235.508 103.054,235.360 103.167,235.232 103.167 C 235.104 103.167,235.000 103.279,235.000 103.417 C 235.000 103.554,234.887 103.667,234.750 103.667 C 234.612 103.667,234.350 103.817,234.167 104.000 C 233.983 104.183,233.721 104.333,233.583 104.333 C 233.446 104.333,233.333 104.446,233.333 104.583 C 233.333 104.721,233.221 104.833,233.083 104.833 C 232.946 104.833,232.833 104.946,232.833 105.083 C 232.833 105.221,232.689 105.333,232.512 105.333 C 232.335 105.333,232.078 105.446,231.940 105.583 C 231.803 105.721,231.629 105.835,231.554 105.836 C 231.359 105.840,230.667 106.596,230.667 106.804 C 230.667 106.900,230.460 107.002,230.208 107.031 C 229.369 107.127,229.507 109.000,230.354 109.000 C 230.526 109.000,230.667 109.107,230.667 109.237 C 230.667 109.367,230.897 109.524,231.178 109.586 C 231.459 109.648,231.730 109.804,231.779 109.932 C 231.829 110.061,232.086 110.167,232.351 110.167 C 232.669 110.167,232.833 110.252,232.833 110.417 C 232.833 110.583,233.000 110.667,233.333 110.667 C 233.667 110.667,233.833 110.750,233.833 110.917 C 233.833 111.091,234.009 111.167,234.417 111.167 C 234.824 111.167,235.000 111.242,235.000 111.417 C 235.000 111.576,235.160 111.667,235.440 111.667 C 235.682 111.667,235.963 111.781,236.066 111.920 C 236.168 112.060,236.551 112.221,236.917 112.279 C 237.284 112.337,237.643 112.485,237.717 112.609 C 237.804 112.756,238.184 112.833,238.824 112.833 C 239.536 112.833,239.823 112.901,239.894 113.083 C 239.969 113.280,240.308 113.333,241.474 113.333 C 242.591 113.333,243.011 113.395,243.167 113.583 C 243.339 113.791,243.964 113.833,246.854 113.833 C 249.836 113.833,250.333 113.798,250.333 113.583 C 250.333 113.379,250.620 113.333,251.917 113.333 C 253.213 113.333,253.500 113.288,253.500 113.083 C 253.500 112.889,253.721 112.833,254.492 112.833 C 255.147 112.833,255.529 112.757,255.617 112.609 C 255.690 112.485,256.050 112.337,256.416 112.279 C 256.782 112.221,257.166 112.060,257.268 111.920 C 257.370 111.781,257.651 111.667,257.893 111.667 C 258.173 111.667,258.333 111.576,258.333 111.417 C 258.333 111.249,258.501 111.167,258.839 111.167 C 259.134 111.167,259.384 111.063,259.440 110.917 C 259.494 110.774,259.743 110.667,260.018 110.667 C 260.335 110.667,260.500 110.581,260.500 110.417 C 260.500 110.250,260.667 110.167,261.000 110.167 C 261.321 110.167,261.500 110.082,261.500 109.930 C 261.500 109.800,261.730 109.643,262.011 109.581 C 262.292 109.519,262.563 109.363,262.612 109.234 C 262.662 109.105,262.835 109.000,262.997 109.000 C 263.160 109.000,263.386 108.888,263.500 108.750 C 263.614 108.612,263.811 108.500,263.937 108.500 C 264.063 108.500,264.167 108.388,264.167 108.250 C 264.167 108.112,264.282 108.000,264.422 108.000 C 264.562 108.000,264.720 107.887,264.773 107.750 C 264.826 107.612,264.973 107.500,265.101 107.500 C 265.229 107.500,265.333 107.388,265.333 107.250 C 265.333 107.112,265.446 107.000,265.583 107.000 C 265.721 107.000,265.983 106.850,266.167 106.667 C 266.350 106.483,266.575 106.333,266.667 106.333 C 266.758 106.333,266.833 106.221,266.833 106.083 C 266.833 105.946,266.908 105.833,267.000 105.833 C 267.304 105.833,268.442 104.563,268.765 103.864 C 268.940 103.485,269.136 103.173,269.200 103.171 C 269.360 103.165,270.167 102.406,270.167 102.261 C 270.167 102.196,270.279 102.030,270.417 101.893 C 270.554 101.755,270.667 101.498,270.667 101.321 C 270.667 101.145,270.779 101.000,270.917 101.000 C 271.054 101.000,271.167 100.888,271.167 100.750 C 271.167 100.612,271.279 100.500,271.417 100.500 C 271.583 100.500,271.667 100.333,271.667 100.000 C 271.667 99.679,271.751 99.500,271.903 99.500 C 272.034 99.500,272.191 99.270,272.252 98.989 C 272.314 98.708,272.470 98.437,272.599 98.388 C 272.728 98.338,272.833 98.188,272.833 98.054 C 272.833 97.919,272.946 97.697,273.083 97.560 C 273.221 97.422,273.333 97.098,273.333 96.839 C 273.333 96.575,273.443 96.327,273.583 96.273 C 273.729 96.217,273.833 95.967,273.833 95.672 C 273.833 95.334,273.916 95.167,274.083 95.167 C 274.252 95.167,274.333 94.998,274.333 94.651 C 274.333 94.368,274.483 93.945,274.667 93.712 C 274.853 93.475,275.000 93.036,275.000 92.716 C 275.000 92.401,275.112 92.030,275.250 91.893 C 275.415 91.728,275.500 91.313,275.500 90.675 C 275.500 90.018,275.580 89.641,275.750 89.500 C 275.962 89.324,276.000 88.510,276.000 84.083 C 276.000 79.656,275.962 78.843,275.750 78.667 C 275.584 78.528,275.500 78.155,275.500 77.547 C 275.500 77.045,275.392 76.436,275.260 76.192 C 275.128 75.949,274.975 75.469,274.919 75.125 C 274.856 74.735,274.727 74.500,274.576 74.500 C 274.396 74.500,274.333 74.285,274.333 73.667 C 274.333 73.037,274.272 72.833,274.083 72.833 C 273.919 72.833,273.833 72.669,273.833 72.351 C 273.833 72.076,273.726 71.828,273.583 71.773 C 273.437 71.717,273.333 71.467,273.333 71.172 C 273.333 70.834,273.251 70.667,273.083 70.667 C 272.917 70.667,272.833 70.500,272.833 70.167 C 272.833 69.846,272.749 69.667,272.597 69.667 C 272.466 69.667,272.309 69.437,272.248 69.155 C 272.186 68.874,272.030 68.604,271.901 68.554 C 271.772 68.505,271.667 68.283,271.667 68.060 C 271.667 67.838,271.554 67.613,271.417 67.560 C 271.279 67.508,271.167 67.360,271.167 67.232 C 271.167 67.104,271.054 67.000,270.917 67.000 C 270.779 67.000,270.667 66.885,270.667 66.745 C 270.667 66.604,270.554 66.446,270.417 66.394 C 270.279 66.341,270.167 66.193,270.167 66.066 C 270.167 65.744,268.819 65.754,268.495 66.078 " stroke="none" fill="#0494e4" fill-rule="evenodd"></path><path id="path1" d="M101.667 71.417 L 101.667 114.333 109.083 114.333 L 116.500 114.333 116.500 71.417 L 116.500 28.500 109.083 28.500 L 101.667 28.500 101.667 71.417 M26.440 54.917 C 26.366 55.108,26.051 55.167,25.089 55.167 C 24.206 55.167,23.846 55.226,23.875 55.365 C 23.898 55.474,23.804 55.582,23.667 55.604 C 23.529 55.626,23.135 55.690,22.792 55.746 C 22.403 55.810,22.167 55.940,22.167 56.091 C 22.167 56.257,21.983 56.333,21.583 56.333 C 21.176 56.333,21.000 56.409,21.000 56.583 C 21.000 56.769,20.806 56.833,20.250 56.833 C 19.694 56.833,19.500 56.898,19.500 57.083 C 19.500 57.221,19.387 57.333,19.250 57.333 C 19.112 57.333,19.000 57.446,19.000 57.583 C 19.000 57.750,18.833 57.833,18.500 57.833 C 18.222 57.833,17.852 57.981,17.667 58.167 C 17.483 58.350,17.221 58.500,17.083 58.500 C 16.946 58.500,16.833 58.612,16.833 58.750 C 16.833 58.887,16.721 59.000,16.583 59.000 C 16.446 59.000,16.333 59.112,16.333 59.250 C 16.333 59.387,16.218 59.500,16.078 59.500 C 15.938 59.500,15.780 59.612,15.727 59.750 C 15.674 59.887,15.527 60.000,15.399 60.000 C 15.271 60.000,15.167 60.112,15.167 60.250 C 15.167 60.387,15.054 60.500,14.917 60.500 C 14.779 60.500,14.667 60.612,14.667 60.750 C 14.667 60.887,14.554 61.000,14.417 61.000 C 14.278 61.000,14.167 61.148,14.167 61.333 C 14.167 61.517,14.056 61.667,13.921 61.667 C 13.717 61.667,13.667 61.223,13.629 59.042 L 13.583 56.417 6.792 56.373 L 0.000 56.330 0.000 85.331 L 0.000 114.333 7.083 114.333 L 14.167 114.333 14.167 95.417 C 14.167 78.713,14.196 76.500,14.417 76.500 C 14.602 76.500,14.667 76.305,14.667 75.745 C 14.667 75.227,14.745 74.959,14.917 74.894 C 15.059 74.839,15.167 74.590,15.167 74.316 C 15.167 73.998,15.252 73.833,15.417 73.833 C 15.581 73.833,15.667 73.669,15.667 73.353 C 15.667 73.012,15.764 72.847,16.000 72.785 C 16.183 72.737,16.333 72.578,16.333 72.432 C 16.333 72.286,16.446 72.167,16.583 72.167 C 16.750 72.167,16.833 72.000,16.833 71.667 C 16.833 71.333,16.917 71.167,17.083 71.167 C 17.221 71.167,17.333 71.054,17.333 70.917 C 17.333 70.760,17.491 70.667,17.755 70.667 C 17.987 70.667,18.220 70.554,18.273 70.417 C 18.326 70.279,18.455 70.165,18.559 70.164 C 18.800 70.160,19.500 69.431,19.500 69.185 C 19.500 69.083,19.725 69.000,20.000 69.000 C 20.333 69.000,20.500 68.917,20.500 68.750 C 20.500 68.561,20.704 68.500,21.333 68.500 C 21.963 68.500,22.167 68.439,22.167 68.250 C 22.167 68.037,22.630 68.000,25.333 68.000 C 28.037 68.000,28.500 68.037,28.500 68.250 C 28.500 68.439,28.704 68.500,29.333 68.500 C 29.963 68.500,30.167 68.561,30.167 68.750 C 30.167 68.917,30.333 69.000,30.667 69.000 C 30.942 69.000,31.167 69.083,31.167 69.185 C 31.167 69.441,31.871 70.160,32.125 70.164 C 32.240 70.165,32.333 70.279,32.333 70.417 C 32.333 70.554,32.446 70.667,32.583 70.667 C 32.721 70.667,32.833 70.779,32.833 70.917 C 32.833 71.054,32.946 71.167,33.083 71.167 C 33.221 71.167,33.333 71.279,33.333 71.417 C 33.333 71.554,33.446 71.667,33.583 71.667 C 33.721 71.667,33.833 71.809,33.833 71.982 C 33.833 72.156,33.946 72.341,34.083 72.394 C 34.221 72.446,34.333 72.649,34.333 72.844 C 34.333 73.058,34.465 73.232,34.667 73.285 C 34.937 73.356,35.000 73.512,35.000 74.108 C 35.000 74.608,35.080 74.875,35.250 74.940 C 35.451 75.017,35.500 75.391,35.500 76.851 C 35.500 78.354,35.543 78.667,35.750 78.667 C 35.971 78.667,36.000 80.759,36.000 96.500 L 36.000 114.333 42.917 114.333 C 48.954 114.333,49.833 114.302,49.833 114.083 C 49.833 113.946,49.946 113.833,50.083 113.833 C 50.304 113.833,50.333 111.648,50.333 95.167 C 50.333 78.133,50.357 76.500,50.601 76.500 C 50.768 76.500,50.834 76.408,50.775 76.255 C 50.723 76.121,50.753 75.966,50.841 75.912 C 50.928 75.858,51.000 75.593,51.000 75.323 C 51.000 74.999,51.084 74.833,51.250 74.833 C 51.417 74.833,51.500 74.667,51.500 74.333 C 51.500 74.000,51.583 73.833,51.750 73.833 C 51.917 73.833,52.000 73.667,52.000 73.333 C 52.000 73.000,52.083 72.833,52.250 72.833 C 52.387 72.833,52.500 72.718,52.500 72.578 C 52.500 72.438,52.612 72.280,52.750 72.227 C 52.887 72.174,53.000 72.027,53.000 71.899 C 53.000 71.771,53.112 71.667,53.250 71.667 C 53.387 71.667,53.500 71.554,53.500 71.417 C 53.500 71.279,53.615 71.167,53.755 71.167 C 53.896 71.167,54.054 71.054,54.106 70.917 C 54.159 70.779,54.307 70.667,54.434 70.667 C 54.562 70.667,54.667 70.554,54.667 70.417 C 54.667 70.279,54.779 70.167,54.917 70.167 C 55.054 70.167,55.167 70.054,55.167 69.917 C 55.167 69.779,55.279 69.667,55.417 69.667 C 55.556 69.667,55.667 69.519,55.667 69.333 C 55.667 69.063,55.778 69.000,56.250 69.000 C 56.657 69.000,56.833 68.925,56.833 68.750 C 56.833 68.565,57.028 68.500,57.583 68.500 C 58.139 68.500,58.333 68.435,58.333 68.250 C 58.333 68.037,58.778 68.000,61.333 68.000 C 63.889 68.000,64.333 68.037,64.333 68.250 C 64.333 68.434,64.526 68.500,65.066 68.500 C 65.563 68.500,65.828 68.580,65.894 68.750 C 65.950 68.896,66.199 69.000,66.495 69.000 C 66.848 69.000,67.000 69.081,67.000 69.268 C 67.000 69.437,67.092 69.500,67.250 69.440 C 67.387 69.387,67.500 69.416,67.500 69.505 C 67.500 69.594,67.612 69.667,67.750 69.667 C 67.887 69.667,68.000 69.779,68.000 69.917 C 68.000 70.054,68.112 70.167,68.250 70.167 C 68.387 70.167,68.500 70.279,68.500 70.417 C 68.500 70.554,68.604 70.667,68.732 70.667 C 68.860 70.667,69.008 70.779,69.060 70.917 C 69.113 71.054,69.271 71.167,69.411 71.167 C 69.552 71.167,69.667 71.279,69.667 71.417 C 69.667 71.554,69.779 71.667,69.917 71.667 C 70.084 71.667,70.167 71.834,70.167 72.172 C 70.167 72.467,70.271 72.717,70.417 72.773 C 70.559 72.828,70.667 73.076,70.667 73.351 C 70.667 73.669,70.752 73.833,70.917 73.833 C 71.102 73.833,71.167 74.028,71.167 74.589 C 71.167 75.106,71.245 75.374,71.417 75.440 C 71.637 75.524,71.667 77.788,71.667 94.421 C 71.667 113.406,71.676 113.833,72.101 113.833 C 72.229 113.833,72.333 113.946,72.333 114.083 C 72.333 114.302,73.213 114.333,79.250 114.333 L 86.167 114.333 86.167 93.911 C 86.167 75.912,86.137 73.478,85.917 73.394 C 85.720 73.318,85.667 72.978,85.667 71.800 C 85.667 70.442,85.635 70.294,85.333 70.215 C 85.044 70.139,85.000 69.988,85.000 69.064 C 85.000 68.229,84.946 68.000,84.750 68.000 C 84.566 68.000,84.500 67.808,84.500 67.268 C 84.500 66.771,84.420 66.505,84.250 66.440 C 84.104 66.384,84.000 66.134,84.000 65.839 C 84.000 65.501,83.917 65.333,83.750 65.333 C 83.583 65.333,83.500 65.167,83.500 64.833 C 83.500 64.518,83.415 64.333,83.269 64.333 C 83.136 64.333,82.990 64.084,82.928 63.750 C 82.862 63.401,82.721 63.167,82.576 63.167 C 82.442 63.167,82.333 63.054,82.333 62.917 C 82.333 62.779,82.221 62.667,82.083 62.667 C 81.917 62.667,81.833 62.500,81.833 62.167 C 81.833 61.833,81.750 61.667,81.583 61.667 C 81.446 61.667,81.333 61.583,81.333 61.480 C 81.333 61.238,80.095 60.000,79.853 60.000 C 79.750 60.000,79.667 59.887,79.667 59.750 C 79.667 59.612,79.554 59.500,79.417 59.500 C 79.279 59.500,79.167 59.387,79.167 59.250 C 79.167 59.112,79.054 59.000,78.917 59.000 C 78.779 59.000,78.667 58.893,78.667 58.763 C 78.667 58.633,78.448 58.478,78.181 58.420 C 77.913 58.361,77.653 58.205,77.602 58.073 C 77.550 57.937,77.291 57.833,77.005 57.833 C 76.667 57.833,76.500 57.751,76.500 57.583 C 76.500 57.446,76.396 57.333,76.268 57.333 C 76.140 57.333,75.992 57.221,75.940 57.083 C 75.884 56.937,75.634 56.833,75.339 56.833 C 75.001 56.833,74.833 56.751,74.833 56.583 C 74.833 56.399,74.641 56.333,74.103 56.333 C 73.512 56.333,73.355 56.269,73.285 56.000 C 73.214 55.728,73.058 55.667,72.432 55.667 C 71.863 55.667,71.667 55.603,71.667 55.417 C 71.667 55.215,71.407 55.167,70.333 55.167 C 69.259 55.167,69.000 55.118,69.000 54.917 C 69.000 54.702,68.481 54.667,65.333 54.667 C 62.185 54.667,61.667 54.702,61.667 54.917 C 61.667 55.118,61.407 55.167,60.333 55.167 C 59.259 55.167,59.000 55.215,59.000 55.417 C 59.000 55.605,58.798 55.667,58.180 55.667 C 57.205 55.667,56.833 55.787,56.833 56.101 C 56.833 56.249,56.649 56.333,56.328 56.333 C 56.033 56.333,55.783 56.437,55.727 56.583 C 55.672 56.726,55.424 56.833,55.149 56.833 C 54.831 56.833,54.667 56.919,54.667 57.083 C 54.667 57.250,54.500 57.333,54.167 57.333 C 53.833 57.333,53.667 57.417,53.667 57.583 C 53.667 57.744,53.503 57.834,53.208 57.836 C 52.764 57.839,52.000 58.447,52.000 58.797 C 52.000 58.889,51.813 59.011,51.583 59.068 C 51.354 59.126,51.167 59.247,51.167 59.337 C 51.167 59.426,51.017 59.500,50.833 59.500 C 50.648 59.500,50.500 59.611,50.500 59.750 C 50.500 59.887,50.406 60.001,50.292 60.003 C 50.038 60.006,49.333 60.726,49.333 60.982 C 49.333 61.083,49.221 61.167,49.083 61.167 C 48.917 61.167,48.833 61.333,48.833 61.667 C 48.833 62.000,48.750 62.167,48.583 62.167 C 48.446 62.167,48.333 62.279,48.333 62.417 C 48.333 62.554,48.250 62.667,48.148 62.667 C 47.892 62.667,47.173 63.371,47.170 63.625 C 47.168 63.740,47.054 63.833,46.917 63.833 C 46.778 63.833,46.667 63.685,46.667 63.500 C 46.667 63.315,46.556 63.167,46.417 63.167 C 46.250 63.167,46.167 63.000,46.167 62.667 C 46.167 62.333,46.083 62.167,45.917 62.167 C 45.779 62.167,45.667 62.054,45.667 61.917 C 45.667 61.778,45.519 61.667,45.333 61.667 C 45.111 61.667,45.000 61.556,45.000 61.333 C 45.000 61.148,44.889 61.000,44.750 61.000 C 44.612 61.000,44.500 60.887,44.500 60.750 C 44.500 60.612,44.396 60.500,44.268 60.500 C 44.141 60.500,43.988 60.310,43.930 60.077 C 43.871 59.841,43.642 59.586,43.412 59.498 C 43.185 59.412,43.000 59.265,43.000 59.171 C 43.000 59.077,42.850 59.000,42.667 59.000 C 42.444 59.000,42.333 58.889,42.333 58.667 C 42.333 58.481,42.222 58.333,42.083 58.333 C 41.946 58.333,41.833 58.221,41.833 58.083 C 41.833 57.917,41.667 57.833,41.333 57.833 C 41.000 57.833,40.833 57.750,40.833 57.583 C 40.833 57.444,40.685 57.333,40.500 57.333 C 40.315 57.333,40.167 57.222,40.167 57.083 C 40.167 56.898,39.972 56.833,39.417 56.833 C 38.861 56.833,38.667 56.769,38.667 56.583 C 38.667 56.422,38.504 56.333,38.207 56.333 C 37.927 56.333,37.665 56.203,37.539 56.000 C 37.389 55.760,37.150 55.667,36.683 55.667 C 36.261 55.667,36.002 55.580,35.940 55.417 C 35.866 55.225,35.551 55.167,34.589 55.167 C 33.584 55.167,33.333 55.117,33.333 54.917 C 33.333 54.703,32.845 54.667,29.934 54.667 C 27.067 54.667,26.521 54.706,26.440 54.917 M287.488 56.123 C 287.299 56.373,287.301 56.386,287.500 56.208 C 287.678 56.050,289.189 56.000,293.833 56.000 C 298.484 56.000,299.986 56.049,300.154 56.208 C 300.332 56.376,300.360 56.368,300.299 56.167 C 300.172 55.751,287.802 55.709,287.488 56.123 " stroke="none" fill="#343434" fill-rule="evenodd"></path><path id="path2" d="M243.051 54.904 C 242.948 55.087,242.531 55.156,241.383 55.179 C 240.263 55.202,239.829 55.271,239.765 55.438 C 239.709 55.585,239.409 55.667,238.932 55.667 C 238.522 55.667,238.139 55.743,238.082 55.836 C 238.024 55.929,237.905 55.961,237.818 55.907 C 237.730 55.853,237.679 55.908,237.704 56.029 C 237.736 56.183,237.507 56.266,236.949 56.301 C 236.443 56.334,236.115 56.441,236.057 56.593 C 236.006 56.726,235.749 56.833,235.482 56.833 C 235.165 56.833,235.000 56.919,235.000 57.083 C 235.000 57.256,234.826 57.333,234.434 57.333 C 234.086 57.333,233.832 57.429,233.773 57.583 C 233.720 57.721,233.549 57.833,233.393 57.833 C 233.237 57.833,232.979 57.952,232.819 58.096 C 232.660 58.240,232.429 58.374,232.306 58.392 C 231.936 58.448,231.655 58.680,231.757 58.845 C 231.810 58.930,231.621 59.000,231.338 59.000 C 231.034 59.000,230.784 59.102,230.727 59.250 C 230.674 59.387,230.527 59.500,230.399 59.500 C 230.271 59.500,230.167 59.612,230.167 59.750 C 230.167 59.917,230.000 60.000,229.667 60.000 C 229.333 60.000,229.167 60.083,229.167 60.250 C 229.167 60.387,229.052 60.500,228.911 60.500 C 228.771 60.500,228.615 60.607,228.565 60.738 C 228.514 60.869,228.254 61.053,227.987 61.146 C 227.719 61.240,227.500 61.432,227.500 61.575 C 227.500 61.717,227.406 61.815,227.292 61.792 C 227.177 61.769,227.102 61.844,227.125 61.958 C 227.148 62.073,227.052 62.167,226.911 62.167 C 226.771 62.167,226.613 62.279,226.560 62.417 C 226.508 62.554,226.391 62.667,226.302 62.667 C 226.100 62.667,224.833 63.972,224.833 64.180 C 224.833 64.264,224.730 64.333,224.603 64.333 C 224.476 64.333,224.329 64.499,224.276 64.701 C 224.223 64.903,224.123 65.011,224.052 64.941 C 223.982 64.871,223.838 65.062,223.732 65.365 C 223.627 65.669,223.456 65.898,223.353 65.875 C 223.251 65.852,223.176 65.890,223.186 65.958 C 223.239 66.291,223.150 66.509,222.999 66.416 C 222.907 66.359,222.781 66.448,222.720 66.614 C 222.659 66.781,222.509 66.977,222.388 67.050 C 222.266 67.123,222.167 67.332,222.167 67.514 C 222.167 67.695,222.054 67.887,221.917 67.940 C 221.779 67.992,221.667 68.178,221.667 68.351 C 221.667 68.525,221.579 68.648,221.472 68.625 C 221.365 68.602,221.204 68.827,221.115 69.125 C 221.025 69.423,220.850 69.667,220.726 69.667 C 220.588 69.667,220.500 69.854,220.500 70.149 C 220.500 70.424,220.393 70.672,220.250 70.727 C 220.112 70.780,220.000 71.015,220.000 71.250 C 220.000 71.485,219.887 71.720,219.750 71.773 C 219.607 71.828,219.500 72.076,219.500 72.351 C 219.500 72.669,219.415 72.833,219.250 72.833 C 219.068 72.833,219.000 73.021,219.000 73.522 C 219.000 74.012,218.900 74.298,218.653 74.512 C 218.430 74.706,218.319 74.980,218.344 75.281 C 218.390 75.857,218.189 76.367,217.969 76.231 C 217.879 76.175,217.821 76.270,217.839 76.440 C 217.938 77.377,217.821 78.167,217.583 78.167 C 217.375 78.167,217.333 78.499,217.333 80.157 C 217.333 81.481,217.269 82.187,217.141 82.266 C 217.012 82.346,216.993 82.308,217.082 82.151 C 217.183 81.974,217.166 81.962,217.013 82.103 C 216.723 82.370,216.829 86.601,217.125 86.542 C 217.281 86.510,217.333 86.952,217.333 88.316 C 217.333 89.776,217.382 90.150,217.583 90.227 C 217.770 90.299,217.833 90.598,217.833 91.411 C 217.833 92.229,217.907 92.573,218.127 92.794 C 218.288 92.955,218.394 93.223,218.362 93.390 C 218.286 93.784,218.662 94.689,218.853 94.571 C 218.934 94.521,219.000 94.747,219.000 95.073 C 219.000 95.490,219.075 95.667,219.250 95.667 C 219.427 95.667,219.500 95.846,219.500 96.279 C 219.500 96.615,219.612 97.014,219.749 97.166 C 219.887 97.318,220.016 97.642,220.036 97.888 C 220.056 98.133,220.169 98.333,220.286 98.333 C 220.404 98.333,220.500 98.436,220.500 98.561 C 220.500 98.686,220.648 98.976,220.828 99.205 C 221.008 99.434,221.105 99.673,221.043 99.734 C 220.982 99.796,221.097 99.890,221.299 99.943 C 221.571 100.014,221.667 100.164,221.667 100.519 C 221.667 100.835,221.752 101.000,221.917 101.000 C 222.054 101.000,222.167 101.097,222.167 101.216 C 222.167 101.335,222.388 101.616,222.660 101.841 C 222.931 102.066,223.156 102.344,223.160 102.458 C 223.164 102.583,223.395 102.667,223.736 102.667 C 224.432 102.667,224.863 102.516,224.739 102.316 C 224.688 102.234,224.801 102.167,224.990 102.167 C 225.184 102.167,225.333 102.058,225.333 101.917 C 225.333 101.779,225.446 101.667,225.583 101.667 C 225.721 101.667,225.833 101.587,225.833 101.490 C 225.833 101.393,225.909 101.360,226.001 101.417 C 226.093 101.474,226.214 101.404,226.269 101.261 C 226.324 101.117,226.438 101.000,226.523 101.000 C 226.608 101.000,226.892 100.781,227.153 100.514 C 227.414 100.247,227.805 100.001,228.022 99.969 C 228.239 99.936,228.398 99.817,228.375 99.704 C 228.352 99.592,228.483 99.500,228.667 99.500 C 228.852 99.500,229.000 99.389,229.000 99.250 C 229.000 99.112,229.120 99.000,229.266 99.000 C 229.412 99.000,229.570 98.850,229.618 98.667 C 229.675 98.449,229.846 98.333,230.108 98.333 C 230.329 98.333,230.554 98.221,230.606 98.083 C 230.659 97.946,230.807 97.833,230.934 97.833 C 231.062 97.833,231.167 97.722,231.167 97.587 C 231.167 97.451,231.354 97.293,231.583 97.235 C 231.813 97.178,232.000 97.064,232.000 96.982 C 232.000 96.900,232.152 96.833,232.339 96.833 C 232.525 96.833,232.725 96.702,232.784 96.542 C 232.843 96.381,232.991 96.190,233.112 96.117 C 233.409 95.938,233.393 95.558,233.083 95.440 C 232.946 95.387,232.833 95.234,232.833 95.100 C 232.833 94.745,232.119 93.682,231.875 93.674 C 231.760 93.670,231.667 93.517,231.667 93.333 C 231.667 93.150,231.573 93.019,231.458 93.042 C 231.338 93.066,231.226 92.873,231.194 92.583 C 231.163 92.308,231.032 92.023,230.902 91.950 C 230.773 91.877,230.667 91.638,230.667 91.420 C 230.667 91.202,230.554 90.911,230.417 90.774 C 230.279 90.636,230.167 90.283,230.167 89.989 C 230.167 89.694,230.057 89.370,229.923 89.268 C 229.771 89.152,229.668 88.741,229.647 88.167 C 229.616 87.313,229.372 86.249,229.341 86.833 C 229.330 87.056,229.310 87.056,229.167 86.833 C 228.815 86.289,228.962 81.382,229.333 81.285 C 229.621 81.210,229.667 81.058,229.667 80.182 C 229.667 79.391,229.722 79.167,229.917 79.167 C 230.090 79.167,230.167 78.993,230.167 78.601 C 230.167 78.252,230.262 77.999,230.417 77.940 C 230.582 77.876,230.667 77.615,230.667 77.172 C 230.667 76.686,230.736 76.500,230.917 76.500 C 231.083 76.500,231.167 76.333,231.167 76.000 C 231.167 75.677,231.251 75.500,231.405 75.500 C 231.536 75.500,231.669 75.331,231.701 75.125 C 231.732 74.919,231.850 74.769,231.962 74.792 C 232.075 74.815,232.159 74.777,232.149 74.708 C 232.102 74.386,232.398 73.833,232.617 73.833 C 232.751 73.833,232.831 73.742,232.793 73.630 C 232.756 73.518,232.881 73.270,233.071 73.080 C 233.261 72.889,233.606 72.508,233.837 72.232 C 234.068 71.957,234.392 71.680,234.556 71.617 C 234.720 71.554,234.808 71.427,234.751 71.335 C 234.694 71.242,234.801 71.167,234.990 71.167 C 235.179 71.167,235.315 71.075,235.292 70.962 C 235.269 70.850,235.419 70.732,235.625 70.701 C 235.831 70.669,236.000 70.574,236.000 70.488 C 236.000 70.223,236.638 69.680,237.079 69.570 C 237.311 69.511,237.500 69.359,237.500 69.232 C 237.500 69.104,237.650 69.000,237.833 69.000 C 238.019 69.000,238.167 68.889,238.167 68.750 C 238.167 68.583,238.333 68.500,238.667 68.500 C 239.000 68.500,239.167 68.417,239.167 68.250 C 239.167 68.071,239.350 68.000,239.813 68.000 C 240.184 68.000,240.548 67.894,240.667 67.750 C 240.781 67.612,241.090 67.500,241.354 67.500 C 241.669 67.500,241.833 67.414,241.833 67.250 C 241.833 67.112,241.927 66.995,242.042 66.989 C 244.753 66.839,244.570 66.869,244.356 66.611 C 244.206 66.430,244.357 66.381,245.165 66.352 L 246.160 66.316 246.205 69.783 L 246.250 73.250 246.876 73.302 C 247.325 73.339,247.531 73.280,247.603 73.093 C 247.657 72.950,247.803 72.833,247.926 72.833 C 248.049 72.833,248.210 72.738,248.283 72.621 C 248.357 72.505,248.623 72.319,248.875 72.208 C 249.127 72.098,249.333 71.931,249.333 71.837 C 249.333 71.743,249.446 71.667,249.583 71.667 C 249.721 71.667,249.833 71.554,249.833 71.417 C 249.833 71.279,249.946 71.167,250.083 71.167 C 250.221 71.167,250.333 71.054,250.333 70.917 C 250.333 70.761,250.491 70.667,250.749 70.667 C 250.999 70.667,251.371 70.452,251.686 70.125 C 251.972 69.827,252.273 69.602,252.354 69.625 C 252.434 69.648,252.500 69.517,252.500 69.333 C 252.500 69.074,252.611 69.000,253.000 69.000 C 253.333 69.000,253.500 68.917,253.500 68.750 C 253.500 68.611,253.648 68.500,253.833 68.500 C 254.019 68.500,254.167 68.389,254.167 68.250 C 254.167 68.112,254.279 68.000,254.417 68.000 C 254.554 68.000,254.667 67.887,254.667 67.750 C 254.667 67.612,254.814 67.500,254.997 67.500 C 255.179 67.500,255.598 67.237,255.928 66.917 C 256.258 66.596,256.597 66.333,256.681 66.333 C 256.765 66.333,256.833 66.221,256.833 66.083 C 256.833 65.927,256.991 65.833,257.255 65.833 C 257.487 65.833,257.720 65.721,257.773 65.583 C 257.826 65.446,257.973 65.333,258.101 65.333 C 258.229 65.333,258.333 65.221,258.333 65.083 C 258.333 64.946,258.442 64.833,258.575 64.833 C 258.708 64.833,258.877 64.739,258.950 64.625 C 259.023 64.510,259.287 64.311,259.536 64.183 C 259.785 64.055,259.949 63.886,259.901 63.808 C 259.853 63.730,259.968 63.667,260.157 63.667 C 260.351 63.667,260.500 63.558,260.500 63.417 C 260.500 63.279,260.612 63.167,260.750 63.167 C 260.887 63.167,261.000 63.054,261.000 62.917 C 261.000 62.752,261.165 62.667,261.482 62.667 C 261.757 62.667,262.006 62.559,262.060 62.417 C 262.113 62.279,262.262 62.167,262.392 62.167 C 262.522 62.167,262.669 62.009,262.719 61.817 C 262.770 61.624,262.891 61.516,262.989 61.576 C 263.093 61.641,263.167 61.544,263.167 61.343 C 263.167 61.149,263.275 61.000,263.417 61.000 C 263.602 61.000,263.667 60.806,263.667 60.250 C 263.667 59.528,263.648 59.500,263.167 59.500 C 262.833 59.500,262.667 59.417,262.667 59.250 C 262.667 59.112,262.552 59.000,262.411 59.000 C 262.271 59.000,262.113 58.887,262.060 58.750 C 262.008 58.612,261.822 58.500,261.649 58.500 C 261.475 58.500,261.183 58.350,261.000 58.167 C 260.817 57.983,260.526 57.833,260.354 57.833 C 260.182 57.833,259.951 57.725,259.842 57.593 C 259.732 57.461,259.442 57.330,259.196 57.302 C 258.948 57.273,258.768 57.158,258.792 57.042 C 258.820 56.902,258.609 56.833,258.155 56.833 C 257.774 56.833,257.367 56.724,257.226 56.583 C 257.089 56.446,256.682 56.333,256.321 56.333 C 255.851 56.333,255.667 56.263,255.667 56.083 C 255.667 55.946,255.648 55.831,255.625 55.827 C 255.602 55.824,255.133 55.777,254.583 55.722 C 254.033 55.667,253.530 55.539,253.464 55.436 C 253.339 55.239,253.209 55.221,251.750 55.188 C 251.073 55.172,250.833 55.104,250.833 54.927 C 250.833 54.565,243.253 54.542,243.051 54.904 M287.609 56.125 C 287.538 56.239,292.444 56.236,297.917 56.119 C 299.108 56.094,297.294 56.056,293.885 56.036 C 290.476 56.016,287.651 56.056,287.609 56.125 M342.039 68.000 C 342.039 68.321,342.073 68.452,342.115 68.292 C 342.157 68.131,342.157 67.869,342.115 67.708 C 342.073 67.548,342.039 67.679,342.039 68.000 M344.205 83.667 C 344.205 83.987,344.240 84.119,344.282 83.958 C 344.323 83.798,344.323 83.535,344.282 83.375 C 344.240 83.215,344.205 83.346,344.205 83.667 M113.645 146.042 C 113.771 146.202,114.071 146.323,114.312 146.311 L 114.750 146.288 114.333 146.211 C 114.104 146.169,113.804 146.048,113.667 145.942 C 113.449 145.775,113.446 145.788,113.645 146.042 " stroke="none" fill="#44ccec" fill-rule="evenodd"></path><path id="path3" d="" stroke="none" fill="#2498bc" fill-rule="evenodd"></path><path id="path4" d="" stroke="none" fill="#2498bc" fill-rule="evenodd"></path></g></svg>