<svg id="svg" version="1.1" xmlns="http://www.w3.org/2000/svg" xmlns:xlink="http://www.w3.org/1999/xlink" width="400" height="400" viewBox="0, 0, 400,400"><g id="svgg"><path id="path0" d="M181.518 39.708 C 171.354 44.790,163.037 49.039,163.037 49.151 C 163.037 49.263,171.749 53.709,182.396 59.032 L 201.755 68.709 219.550 59.229 C 229.337 54.016,237.348 49.616,237.353 49.451 C 237.358 49.287,228.956 44.949,218.681 39.811 L 200.000 30.469 181.518 39.708 M123.912 68.486 L 102.969 78.986 107.529 81.407 C 110.036 82.739,118.985 87.274,127.414 91.486 L 142.740 99.144 163.178 88.486 C 174.419 82.624,183.743 77.713,183.898 77.573 C 184.225 77.277,146.260 57.931,145.417 57.964 C 145.108 57.976,135.431 62.711,123.912 68.486 M237.342 67.392 C 227.573 72.547,219.429 76.916,219.244 77.101 C 219.059 77.285,228.024 82.031,239.167 87.647 L 259.428 97.857 277.966 88.591 C 288.161 83.495,296.503 79.189,296.503 79.024 C 296.503 78.858,287.189 74.065,275.804 68.371 L 255.104 58.020 237.342 67.392 M180.933 96.637 C 169.787 102.497,160.671 107.473,160.676 107.692 C 160.681 107.912,169.520 112.525,180.318 117.944 L 199.952 127.795 220.855 117.346 C 232.352 111.599,241.758 106.775,241.758 106.627 C 241.758 106.407,201.481 85.838,201.265 85.947 C 201.228 85.966,192.079 90.776,180.933 96.637 M287.812 101.583 L 268.531 111.196 268.531 136.517 C 268.531 150.444,268.666 161.835,268.831 161.831 C 268.996 161.827,277.762 157.439,288.312 152.080 L 307.493 142.337 307.595 117.123 C 307.652 103.255,307.562 91.922,307.396 91.939 C 307.229 91.956,298.417 96.296,287.812 101.583 M230.270 130.191 L 208.192 141.255 208.192 166.565 C 208.192 181.310,208.341 191.819,208.550 191.742 C 208.747 191.668,218.907 186.674,231.127 180.643 L 253.347 169.678 253.347 144.379 C 253.347 124.395,253.242 119.086,252.847 119.103 C 252.572 119.116,242.413 124.105,230.270 130.191 M287.621 169.543 L 268.549 179.221 268.540 204.695 C 268.534 221.487,268.668 230.170,268.933 230.170 C 269.153 230.170,277.965 225.854,288.513 220.579 L 307.692 210.987 307.692 185.414 C 307.692 165.215,307.587 159.843,307.193 159.853 C 306.918 159.860,298.111 164.221,287.621 169.543 M230.470 198.224 L 208.192 209.392 208.192 234.966 C 208.192 249.031,208.282 260.539,208.393 260.539 C 208.504 260.539,218.664 255.504,230.970 249.350 L 253.347 238.160 253.347 212.587 C 253.347 198.521,253.212 187.023,253.047 187.035 C 252.882 187.047,242.722 192.082,230.470 198.224 " stroke="none" fill="#4caccc" fill-rule="evenodd"></path><path id="path1" d="M92.317 148.751 L 92.327 207.193 105.648 214.286 C 112.976 218.187,119.174 221.379,119.423 221.379 C 119.754 221.379,119.902 213.461,119.977 191.683 L 120.080 161.986 138.861 198.152 C 161.468 241.683,160.788 240.569,167.233 244.638 C 172.875 248.200,191.230 259.298,191.909 259.559 C 192.576 259.814,192.605 256.905,192.509 200.543 L 192.408 141.259 177.223 133.603 L 162.038 125.947 161.838 158.452 L 161.638 190.957 153.259 173.101 C 132.309 128.458,121.443 105.682,120.789 105.039 C 120.223 104.483,92.950 90.310,92.445 90.310 C 92.369 90.310,92.312 116.608,92.317 148.751 M45.155 315.884 L 45.155 350.450 52.344 350.450 L 59.534 350.450 59.637 329.025 L 59.740 307.600 76.089 328.259 C 85.080 339.621,92.894 349.217,93.452 349.584 C 94.251 350.108,95.679 350.277,100.180 350.379 L 105.894 350.509 105.894 315.914 L 105.894 281.319 98.705 281.319 L 91.515 281.319 91.412 302.736 L 91.309 324.153 75.029 303.567 C 55.533 278.915,58.141 281.319,50.895 281.319 L 45.155 281.319 45.155 315.884 M247.752 315.860 L 247.752 350.450 255.944 350.450 L 264.136 350.450 264.136 338.902 L 264.136 327.355 272.228 327.164 C 281.169 326.952,283.043 326.604,288.015 324.229 C 303.973 316.608,304.278 292.307,288.511 284.588 C 282.390 281.591,282.296 281.579,264.036 281.416 L 247.752 281.270 247.752 315.860 M277.480 294.342 C 285.919 297.264,285.685 311.765,277.157 314.298 C 275.834 314.691,273.352 314.885,269.658 314.885 L 264.136 314.885 264.136 304.035 L 264.136 293.185 269.830 293.425 C 273.583 293.583,276.191 293.896,277.480 294.342 M191.269 300.503 C 188.797 300.938,185.648 302.478,183.541 304.282 C 181.518 306.014,181.643 306.020,181.086 304.161 C 180.238 301.331,179.661 301.099,173.486 301.099 L 168.032 301.099 167.929 325.774 L 167.826 350.450 175.422 350.450 L 183.017 350.450 183.017 332.696 L 183.017 314.943 184.515 313.706 C 188.269 310.605,193.606 311.192,195.504 314.914 C 196.137 316.155,196.203 317.893,196.203 333.367 L 196.204 350.450 203.784 350.450 L 211.364 350.450 211.476 333.096 C 211.601 313.829,211.455 314.864,214.341 312.712 C 216.064 311.428,220.532 311.531,221.985 312.889 C 224.209 314.966,224.176 314.656,224.176 333.247 L 224.176 350.450 231.768 350.450 L 239.361 350.450 239.355 332.967 C 239.347 311.534,238.961 309.291,234.512 304.842 C 227.835 298.165,212.579 299.112,207.458 306.521 C 206.155 308.407,206.146 308.408,205.251 306.746 C 202.702 302.012,197.042 299.485,191.269 300.503 M114.161 301.157 C 113.579 301.739,113.866 334.507,114.479 337.397 C 117.345 350.924,132.057 355.791,143.204 346.899 C 144.958 345.500,145.253 345.544,145.595 347.255 C 146.151 350.036,147.167 350.450,153.431 350.450 L 159.047 350.450 158.944 325.774 L 158.841 301.099 151.349 300.990 L 143.856 300.881 143.856 318.437 L 143.856 335.993 142.609 337.042 C 138.287 340.679,131.951 340.492,129.734 336.663 C 129.411 336.107,129.210 330.592,129.071 318.482 L 128.871 301.099 121.654 300.990 C 117.684 300.931,114.313 301.005,114.161 301.157 M302.498 301.271 C 302.498 301.476,306.745 311.321,311.937 323.149 C 317.128 334.978,321.460 345.034,321.563 345.497 C 321.681 346.030,320.052 349.899,317.118 356.055 C 314.571 361.400,312.488 365.832,312.488 365.903 C 312.488 365.975,315.374 366.034,318.901 366.034 C 326.328 366.034,327.141 365.787,328.368 363.153 C 330.225 359.167,354.446 301.768,354.446 301.354 C 354.446 300.468,342.096 300.757,340.585 301.678 C 338.888 302.713,339.073 302.285,334.226 316.343 C 331.888 323.124,329.855 328.894,329.710 329.166 C 329.564 329.438,327.841 325.392,325.881 320.175 C 319.056 302.003,319.222 302.380,317.671 301.599 C 316.123 300.819,302.498 300.525,302.498 301.271 " stroke="none" fill="#4c74cc" fill-rule="evenodd"></path><path id="path2" d="" stroke="none" fill="#4c7ccc" fill-rule="evenodd"></path><path id="path3" d="" stroke="none" fill="#4cb0cc" fill-rule="evenodd"></path><path id="path4" d="M293.881 320.180 L 292.707 321.479 294.006 320.305 C 294.720 319.659,295.305 319.075,295.305 319.006 C 295.305 318.697,294.975 318.969,293.881 320.180 " stroke="none" fill="#5074cc" fill-rule="evenodd"></path></g></svg>