<svg id="svg" version="1.1" xmlns="http://www.w3.org/2000/svg" xmlns:xlink="http://www.w3.org/1999/xlink" width="400" height="533.3333333333334" viewBox="0, 0, 400,533.3333333333334"><g id="svgg"><path id="path0" d="M141.667 227.167 L 141.667 249.667 164.667 249.667 L 187.667 249.667 187.667 227.167 L 187.667 204.667 164.667 204.667 L 141.667 204.667 141.667 227.167 " stroke="none" fill="#fccc04" fill-rule="evenodd"></path><path id="path1" d="M213.667 305.500 L 213.667 328.000 236.833 328.000 L 260.000 328.000 260.000 305.500 L 260.000 283.000 236.833 283.000 L 213.667 283.000 213.667 305.500 " stroke="none" fill="#ec048c" fill-rule="evenodd"></path><path id="path2" d="M285.667 215.167 L 285.667 373.333 308.833 373.333 L 332.000 373.333 332.000 215.167 L 332.000 57.000 308.833 57.000 L 285.667 57.000 285.667 215.167 M141.667 129.333 L 141.667 177.000 164.667 177.000 L 187.667 177.000 187.667 129.333 L 187.667 81.667 164.667 81.667 L 141.667 81.667 141.667 129.333 M68.000 318.167 L 68.000 476.333 91.167 476.333 L 114.333 476.333 114.333 318.167 L 114.333 160.000 91.167 160.000 L 68.000 160.000 68.000 318.167 M213.667 207.667 L 213.667 255.333 236.833 255.333 L 260.000 255.333 260.000 207.667 L 260.000 160.000 236.833 160.000 L 213.667 160.000 213.667 207.667 M141.667 324.833 L 141.667 372.667 164.667 372.667 L 187.667 372.667 187.667 324.833 L 187.667 277.000 164.667 277.000 L 141.667 277.000 141.667 324.833 M213.667 403.333 L 213.667 451.000 236.833 451.000 L 260.000 451.000 260.000 403.333 L 260.000 355.667 236.833 355.667 L 213.667 355.667 213.667 403.333 " stroke="none" fill="#0c0454" fill-rule="evenodd"></path><path id="path3" d="" stroke="none" fill="#486c48" fill-rule="evenodd"></path><path id="path4" d="" stroke="none" fill="#480474" fill-rule="evenodd"></path></g></svg>