<svg id="svg" version="1.1" xmlns="http://www.w3.org/2000/svg" xmlns:xlink="http://www.w3.org/1999/xlink" width="400" height="428.67608581894297" viewBox="0, 0, 400,428.67608581894297"><g id="svgg"><path id="path0" d="M228.571 98.952 C 228.571 134.017,228.535 132.705,229.510 132.705 C 229.668 132.705,229.922 132.824,230.074 132.968 C 230.226 133.113,230.798 133.457,231.345 133.734 C 231.892 134.010,232.339 134.316,232.339 134.413 C 232.339 134.510,232.438 134.589,232.558 134.589 C 232.774 134.589,234.994 135.787,236.630 136.786 C 237.091 137.067,237.860 137.487,238.339 137.720 C 238.818 137.952,239.343 138.274,239.505 138.436 C 239.667 138.598,240.264 138.979,240.831 139.282 C 242.016 139.916,243.217 140.602,244.270 141.247 C 244.673 141.494,245.474 141.946,246.049 142.252 C 246.625 142.557,247.165 142.913,247.250 143.042 C 247.337 143.174,247.406 143.185,247.410 143.066 C 247.414 142.927,247.467 142.927,247.570 143.066 C 247.655 143.182,248.054 143.453,248.456 143.669 C 248.859 143.885,249.613 144.303,250.131 144.596 C 250.649 144.890,251.261 145.233,251.491 145.358 C 251.722 145.483,252.176 145.764,252.500 145.982 C 252.825 146.200,253.362 146.528,253.693 146.711 C 254.388 147.094,256.063 148.013,256.832 148.431 C 257.121 148.589,257.654 148.930,258.015 149.189 C 258.377 149.448,258.752 149.660,258.850 149.660 C 258.947 149.661,259.568 149.988,260.231 150.387 C 260.893 150.786,261.945 151.397,262.570 151.745 C 263.194 152.092,264.536 152.893,265.552 153.524 C 266.568 154.155,267.776 154.863,268.237 155.095 C 268.697 155.328,269.451 155.737,269.911 156.003 C 270.372 156.269,271.313 156.801,272.004 157.186 C 272.695 157.571,273.307 157.942,273.365 158.011 C 273.422 158.081,273.799 158.303,274.202 158.506 C 274.605 158.708,275.358 159.124,275.877 159.429 C 276.395 159.735,277.101 160.152,277.446 160.355 C 277.792 160.559,278.545 160.978,279.121 161.286 C 279.696 161.595,280.309 161.967,280.481 162.114 C 280.654 162.260,281.313 162.655,281.947 162.991 C 282.580 163.326,283.334 163.757,283.623 163.948 C 283.912 164.138,284.832 164.655,285.667 165.096 C 286.502 165.538,287.374 166.060,287.604 166.256 C 287.833 166.453,288.100 166.614,288.196 166.614 C 288.347 166.614,290.004 167.548,292.622 169.109 C 293.025 169.350,293.913 169.879,294.596 170.286 C 295.279 170.692,296.315 171.280,296.898 171.592 C 297.482 171.903,298.006 172.206,298.064 172.264 C 298.121 172.323,298.592 172.596,299.110 172.873 C 299.628 173.149,300.194 173.488,300.366 173.627 C 300.539 173.766,300.963 174.022,301.308 174.197 C 302.611 174.856,304.040 175.662,304.343 175.908 C 304.516 176.049,305.269 176.477,306.018 176.861 C 306.766 177.244,307.520 177.674,307.692 177.816 C 307.865 177.958,308.636 178.405,309.405 178.809 C 310.175 179.213,311.084 179.743,311.426 179.986 C 311.768 180.230,312.144 180.429,312.262 180.429 C 312.380 180.429,312.601 180.552,312.753 180.703 C 312.905 180.853,313.925 181.469,315.018 182.073 C 316.112 182.676,317.384 183.403,317.844 183.688 C 318.305 183.973,318.917 184.316,319.205 184.451 C 319.492 184.586,319.869 184.807,320.042 184.943 C 320.215 185.078,320.780 185.425,321.298 185.714 C 321.816 186.003,322.805 186.573,323.496 186.980 C 324.186 187.387,325.411 188.071,326.217 188.499 C 327.023 188.928,327.729 189.345,327.786 189.425 C 327.844 189.505,328.598 189.933,329.461 190.375 C 330.324 190.817,331.172 191.294,331.345 191.434 C 331.773 191.782,333.400 192.729,334.187 193.088 C 334.542 193.250,334.954 193.529,335.102 193.708 C 335.251 193.888,335.480 194.035,335.610 194.035 C 335.741 194.035,336.716 194.553,337.778 195.186 C 338.839 195.819,339.792 196.337,339.896 196.337 C 340.000 196.337,340.195 196.470,340.330 196.633 C 340.548 196.895,342.263 197.802,342.541 197.802 C 342.600 197.802,342.648 182.988,342.648 164.882 L 342.648 131.961 338.123 129.351 C 335.635 127.915,333.209 126.517,332.733 126.244 C 332.257 125.971,330.973 125.229,329.880 124.595 C 328.786 123.960,327.514 123.228,327.054 122.967 C 326.593 122.707,324.144 121.293,321.612 119.826 C 319.079 118.359,315.829 116.482,314.390 115.655 C 307.923 111.939,301.523 108.246,299.215 106.899 C 297.834 106.092,295.526 104.755,294.087 103.927 C 292.648 103.099,290.246 101.716,288.749 100.852 C 287.253 99.989,284.757 98.549,283.203 97.652 C 281.648 96.756,279.482 95.505,278.388 94.874 C 277.295 94.242,276.023 93.510,275.563 93.247 C 275.102 92.985,273.878 92.276,272.841 91.672 C 271.805 91.068,269.780 89.896,268.341 89.068 C 265.416 87.383,261.086 84.886,258.085 83.152 C 256.991 82.520,255.720 81.788,255.259 81.526 C 254.799 81.263,253.574 80.555,252.538 79.953 C 251.502 79.350,250.277 78.644,249.817 78.383 C 249.356 78.122,248.132 77.415,247.096 76.813 C 246.060 76.211,244.835 75.504,244.375 75.243 C 243.914 74.982,242.690 74.274,241.654 73.670 C 240.617 73.066,238.875 72.057,237.781 71.427 C 236.688 70.797,235.510 70.116,235.165 69.914 C 234.487 69.516,230.908 67.459,229.461 66.636 L 228.571 66.130 228.571 98.952 M-0.000 165.150 C -0.000 196.476,0.019 198.240,0.366 198.347 C 0.568 198.409,0.874 198.544,1.047 198.646 C 1.219 198.749,2.161 199.275,3.140 199.816 C 4.118 200.357,5.185 201.020,5.511 201.289 C 5.836 201.559,6.224 201.779,6.372 201.779 C 6.520 201.779,6.892 201.976,7.198 202.217 C 7.505 202.458,7.870 202.674,8.011 202.696 C 8.252 202.735,9.397 203.416,9.628 203.658 C 9.734 203.768,10.189 204.027,11.931 204.968 C 13.702 205.924,14.547 206.427,14.878 206.719 C 15.060 206.880,15.360 207.012,15.546 207.012 C 15.731 207.012,15.936 207.098,16.001 207.203 C 16.066 207.308,16.849 207.790,17.740 208.275 C 18.632 208.760,19.661 209.380,20.028 209.654 C 20.394 209.928,20.809 210.152,20.950 210.152 C 21.091 210.152,21.515 210.387,21.892 210.675 C 22.269 210.963,22.682 211.198,22.810 211.198 C 22.938 211.198,23.156 211.300,23.295 211.423 C 23.576 211.673,24.631 212.312,26.374 213.287 C 27.007 213.641,27.996 214.214,28.571 214.560 C 29.147 214.906,29.853 215.302,30.141 215.440 C 30.429 215.577,30.712 215.752,30.769 215.828 C 30.827 215.905,31.298 216.184,31.816 216.449 C 32.334 216.715,32.805 216.984,32.862 217.048 C 32.920 217.112,33.297 217.326,33.700 217.525 C 34.539 217.939,36.072 218.828,36.839 219.345 C 37.127 219.539,37.975 220.016,38.723 220.406 C 39.471 220.795,40.187 221.216,40.312 221.341 C 40.438 221.466,41.191 221.894,41.987 222.292 C 42.782 222.690,43.480 223.074,43.537 223.146 C 43.636 223.268,44.009 223.486,46.572 224.924 C 47.148 225.247,47.666 225.577,47.724 225.657 C 47.781 225.738,48.158 225.952,48.561 226.133 C 48.964 226.315,49.765 226.752,50.340 227.106 C 50.916 227.460,51.669 227.892,52.015 228.067 C 52.360 228.241,53.161 228.704,53.794 229.096 C 55.112 229.910,56.867 230.874,57.031 230.874 C 57.093 230.874,57.143 216.047,57.143 197.925 L 57.143 164.975 55.311 163.943 C 54.304 163.375,52.915 162.581,52.224 162.180 C 49.048 160.332,39.980 155.094,35.793 152.688 C 34.354 151.861,32.329 150.690,31.293 150.086 C 30.256 149.483,29.032 148.774,28.571 148.512 C 28.111 148.249,25.568 146.782,22.920 145.251 C 20.272 143.720,16.881 141.763,15.385 140.902 C 13.888 140.041,11.439 138.630,9.942 137.767 C 8.446 136.904,6.374 135.709,5.338 135.112 C 4.301 134.515,2.959 133.731,2.354 133.371 C 1.749 133.010,0.972 132.569,0.627 132.391 L -0.000 132.067 -0.000 165.150 M169.545 166.058 C 168.681 166.553,165.479 168.400,162.428 170.162 C 159.377 171.923,156.504 173.579,156.044 173.841 C 155.583 174.103,153.134 175.516,150.602 176.982 C 145.420 179.980,140.015 183.100,137.206 184.716 C 134.964 186.005,126.800 190.723,122.972 192.941 C 121.476 193.808,119.027 195.216,117.531 196.069 C 116.036 196.922,114.646 197.770,114.444 197.953 C 113.930 198.418,113.864 395.422,114.378 395.936 C 114.543 396.101,115.161 396.495,115.749 396.810 C 117.531 397.765,117.998 398.032,118.614 398.445 C 118.939 398.663,119.534 399.008,119.937 399.210 C 120.340 399.413,120.999 399.777,121.402 400.019 C 121.805 400.262,122.512 400.661,122.972 400.908 C 123.433 401.155,124.116 401.581,124.490 401.854 C 124.864 402.128,125.170 402.286,125.170 402.205 C 125.170 402.123,125.565 402.348,126.049 402.703 C 126.532 403.058,127.017 403.349,127.128 403.349 C 127.238 403.349,127.637 403.585,128.014 403.872 C 128.392 404.160,128.840 404.396,129.011 404.396 C 129.182 404.396,129.353 404.472,129.391 404.566 C 129.430 404.660,129.979 405.020,130.612 405.366 C 132.670 406.492,133.432 406.945,133.768 407.243 C 133.950 407.404,134.171 407.535,134.260 407.535 C 134.349 407.535,135.221 408.006,136.199 408.582 C 137.177 409.158,138.031 409.628,138.095 409.628 C 138.160 409.628,138.504 409.846,138.860 410.112 C 139.217 410.378,139.811 410.718,140.181 410.867 C 140.552 411.017,140.964 411.270,141.097 411.430 C 141.230 411.590,141.508 411.722,141.714 411.722 C 141.921 411.722,142.121 411.802,142.159 411.899 C 142.198 411.997,142.653 412.315,143.171 412.606 C 144.038 413.093,145.930 414.178,147.462 415.068 C 148.072 415.421,150.383 416.796,151.230 417.308 C 151.460 417.448,152.072 417.788,152.590 418.065 C 153.108 418.343,154.474 419.115,155.625 419.783 C 156.777 420.450,158.055 421.164,158.467 421.370 C 158.879 421.576,159.338 421.891,159.487 422.070 C 159.636 422.250,159.917 422.397,160.112 422.397 C 160.306 422.397,160.662 422.580,160.902 422.804 C 161.142 423.027,161.655 423.354,162.040 423.529 C 162.426 423.704,163.213 424.133,163.789 424.484 C 164.364 424.834,165.212 425.321,165.672 425.566 C 166.133 425.811,166.557 426.082,166.614 426.169 C 166.672 426.256,167.049 426.477,167.452 426.660 C 168.195 426.999,168.835 427.359,170.197 428.205 C 170.614 428.464,171.014 428.676,171.087 428.676 C 171.160 428.676,171.219 399.006,171.219 362.742 C 171.219 320.304,171.292 296.808,171.422 296.808 C 171.693 296.808,172.410 297.213,182.522 303.084 C 185.585 304.862,188.754 306.692,191.418 308.220 C 192.569 308.880,194.712 310.115,196.180 310.964 C 205.530 316.369,207.392 317.444,210.989 319.512 C 212.428 320.340,214.830 321.725,216.327 322.592 C 220.996 325.295,227.399 328.969,227.891 329.228 L 228.362 329.476 228.362 296.649 L 228.362 263.823 226.321 262.659 C 225.199 262.019,223.009 260.760,221.455 259.861 C 219.901 258.963,217.734 257.713,216.641 257.083 C 215.547 256.454,214.369 255.774,214.024 255.572 C 213.679 255.371,212.831 254.879,212.140 254.480 C 211.450 254.081,209.283 252.829,207.326 251.697 C 205.369 250.565,202.567 248.948,201.101 248.103 C 199.634 247.258,197.185 245.847,195.658 244.966 C 194.132 244.086,191.988 242.852,190.895 242.222 C 189.801 241.593,188.530 240.855,188.069 240.582 C 187.609 240.309,186.450 239.638,185.494 239.091 C 183.641 238.029,183.309 237.839,180.220 236.057 C 179.126 235.427,177.289 234.369,176.138 233.707 C 174.987 233.045,173.410 232.126,172.633 231.665 L 171.221 230.827 171.168 197.992 L 171.115 165.156 169.545 166.058 " stroke="none" fill="#e45c2b" fill-rule="evenodd"></path><path id="path1" d="M227.316 0.457 C 225.961 1.298,224.912 1.880,224.333 2.113 C 224.016 2.240,223.757 2.417,223.757 2.507 C 223.757 2.597,223.451 2.792,223.077 2.942 C 222.703 3.091,222.115 3.408,221.772 3.647 C 221.428 3.886,220.957 4.188,220.725 4.318 C 219.620 4.937,218.131 5.745,217.373 6.137 C 216.913 6.376,216.489 6.636,216.431 6.715 C 216.330 6.855,214.457 7.948,213.605 8.365 C 213.375 8.478,212.716 8.853,212.140 9.198 C 211.565 9.543,210.623 10.076,210.047 10.382 C 209.471 10.689,208.953 11.004,208.896 11.083 C 208.838 11.162,207.625 11.879,206.201 12.677 C 204.776 13.476,203.175 14.386,202.642 14.700 C 202.110 15.015,201.215 15.517,200.653 15.817 C 200.091 16.116,199.526 16.452,199.397 16.563 C 199.268 16.674,198.873 16.925,198.518 17.121 C 198.163 17.317,197.054 17.949,196.052 18.524 C 195.051 19.100,193.975 19.715,193.662 19.891 C 192.270 20.674,190.892 21.477,189.534 22.297 C 188.728 22.784,187.410 23.533,186.604 23.962 C 185.798 24.391,184.997 24.855,184.825 24.994 C 184.652 25.133,184.275 25.358,183.987 25.495 C 183.700 25.632,182.522 26.305,181.371 26.992 C 180.220 27.678,178.783 28.494,178.179 28.805 C 177.575 29.117,177.080 29.451,177.080 29.547 C 177.080 29.644,176.979 29.723,176.855 29.723 C 176.732 29.723,175.420 30.429,173.940 31.293 C 172.461 32.156,171.181 32.862,171.097 32.862 C 171.013 32.862,170.636 33.098,170.259 33.386 C 169.881 33.673,169.437 33.909,169.270 33.909 C 169.104 33.909,168.858 34.042,168.723 34.204 C 168.589 34.366,168.177 34.651,167.808 34.836 C 167.439 35.022,166.525 35.541,165.777 35.989 C 165.029 36.438,163.851 37.107,163.161 37.477 C 162.470 37.848,161.669 38.314,161.381 38.514 C 161.094 38.714,160.481 39.080,160.021 39.328 C 159.560 39.576,158.750 40.036,158.221 40.350 C 156.617 41.301,152.799 43.489,151.020 44.476 C 150.445 44.795,149.825 45.186,149.643 45.344 C 149.462 45.501,149.163 45.631,148.981 45.631 C 148.798 45.631,148.617 45.713,148.578 45.813 C 148.540 45.914,148.038 46.248,147.462 46.556 C 146.886 46.864,145.897 47.432,145.264 47.819 C 144.052 48.559,143.126 49.084,141.915 49.721 C 141.512 49.933,141.064 50.223,140.920 50.366 C 140.775 50.510,140.445 50.692,140.187 50.773 C 139.929 50.853,139.440 51.114,139.101 51.353 C 138.762 51.592,138.196 51.940,137.845 52.125 C 137.493 52.311,136.735 52.732,136.159 53.062 C 135.583 53.391,134.924 53.762,134.694 53.888 C 134.464 54.013,134.040 54.264,133.752 54.446 C 132.483 55.249,129.184 57.143,129.054 57.143 C 128.974 57.143,128.610 57.365,128.243 57.636 C 127.877 57.907,126.871 58.508,126.007 58.970 C 125.144 59.432,123.919 60.118,123.286 60.494 C 121.616 61.487,120.778 61.969,119.828 62.485 C 119.364 62.736,118.342 63.332,117.556 63.810 C 116.770 64.287,116.098 64.678,116.063 64.678 C 116.028 64.678,115.047 65.243,113.884 65.934 C 112.721 66.625,111.676 67.190,111.562 67.190 C 111.448 67.190,111.355 67.275,111.355 67.379 C 111.355 67.483,111.096 67.667,110.780 67.789 C 110.463 67.911,109.733 68.294,109.158 68.641 C 108.172 69.234,107.561 69.590,105.285 70.893 C 104.767 71.190,104.108 71.582,103.820 71.765 C 103.532 71.948,103.250 72.103,103.192 72.109 C 103.134 72.115,102.381 72.538,101.518 73.050 C 99.495 74.249,99.064 74.496,97.731 75.219 C 97.125 75.548,96.497 75.948,96.337 76.108 C 96.177 76.269,95.949 76.400,95.831 76.400 C 95.713 76.400,95.337 76.599,94.995 76.842 C 94.653 77.086,93.744 77.616,92.974 78.020 C 92.205 78.424,91.434 78.869,91.261 79.010 C 91.088 79.150,90.147 79.706,89.168 80.244 C 87.316 81.264,87.032 81.429,85.819 82.182 C 85.416 82.432,84.427 82.985,83.621 83.412 C 82.815 83.838,82.014 84.312,81.842 84.465 C 81.669 84.618,81.292 84.842,81.004 84.963 C 80.717 85.084,80.010 85.468,79.435 85.817 C 78.859 86.165,77.964 86.686,77.446 86.974 C 76.928 87.262,76.363 87.584,76.190 87.690 C 76.018 87.796,74.935 88.422,73.783 89.080 C 72.632 89.739,71.455 90.426,71.167 90.609 C 70.584 90.978,70.352 91.109,68.550 92.087 C 67.860 92.462,67.146 92.901,66.964 93.062 C 66.782 93.223,66.488 93.354,66.310 93.354 C 66.131 93.354,65.875 93.487,65.740 93.650 C 65.605 93.813,65.099 94.147,64.615 94.392 C 64.132 94.638,63.218 95.160,62.585 95.554 C 61.952 95.948,61.245 96.364,61.015 96.480 C 60.785 96.595,60.031 97.023,59.341 97.430 C 58.650 97.837,57.661 98.410,57.143 98.704 C 56.625 98.998,55.730 99.515,55.154 99.852 C 54.579 100.189,53.825 100.612,53.480 100.793 C 52.713 101.194,52.059 101.569,50.026 102.774 C 47.829 104.077,46.865 104.626,46.259 104.919 C 45.971 105.058,45.688 105.232,45.631 105.305 C 45.573 105.378,45.102 105.652,44.584 105.913 C 44.066 106.174,43.595 106.457,43.537 106.542 C 43.480 106.626,42.962 106.945,42.386 107.250 C 41.811 107.555,40.869 108.086,40.293 108.430 C 39.717 108.773,38.987 109.157,38.671 109.283 C 38.354 109.409,38.095 109.586,38.095 109.676 C 38.095 109.766,37.789 109.961,37.415 110.111 C 37.041 110.260,36.457 110.573,36.118 110.807 C 35.779 111.042,35.214 111.385,34.862 111.571 C 33.872 112.094,32.207 113.048,31.394 113.558 C 30.990 113.812,30.189 114.270,29.615 114.576 C 29.041 114.882,28.195 115.368,27.734 115.656 C 27.274 115.943,26.661 116.289,26.374 116.424 C 26.086 116.559,25.709 116.782,25.536 116.919 C 25.364 117.057,24.751 117.422,24.176 117.730 C 23.600 118.039,22.847 118.461,22.501 118.669 C 22.156 118.877,20.931 119.590,19.780 120.255 C 18.629 120.919,17.345 121.661,16.927 121.903 C 16.508 122.146,15.661 122.634,15.043 122.987 C 12.978 124.169,12.413 124.499,11.067 125.308 C 10.330 125.750,9.447 126.253,9.103 126.426 C 8.759 126.599,8.353 126.858,8.201 127.002 C 8.049 127.145,7.849 127.263,7.756 127.263 C 7.664 127.263,6.725 127.781,5.670 128.414 C 4.615 129.048,3.692 129.566,3.619 129.566 C 3.546 129.566,3.338 129.695,3.156 129.854 C 2.974 130.012,2.188 130.476,1.408 130.886 L -0.009 131.630 0.695 132.168 C 1.083 132.464,1.450 132.705,1.510 132.705 C 1.571 132.705,2.692 133.331,4.002 134.095 C 5.312 134.859,6.761 135.697,7.221 135.957 C 7.682 136.217,8.906 136.924,9.942 137.527 C 10.979 138.131,13.004 139.303,14.443 140.132 C 15.882 140.961,18.284 142.344,19.780 143.206 C 21.277 144.068,23.773 145.511,25.327 146.412 C 26.881 147.314,29.048 148.568,30.141 149.199 C 31.235 149.831,33.331 151.040,34.799 151.887 C 36.266 152.734,38.668 154.118,40.136 154.962 C 41.604 155.805,44.076 157.233,45.631 158.134 C 48.700 159.913,52.963 162.368,55.499 163.817 C 56.379 164.319,57.155 164.731,57.225 164.731 C 57.294 164.731,69.808 157.539,85.033 148.749 C 100.259 139.959,123.454 126.572,136.578 119.001 C 149.702 111.429,161.617 104.548,163.056 103.709 C 164.495 102.870,173.302 97.781,182.627 92.400 C 191.952 87.019,200.759 81.937,202.198 81.107 C 203.637 80.276,208.205 77.639,212.350 75.247 C 216.494 72.854,221.840 69.772,224.231 68.397 L 228.576 65.896 238.255 71.488 C 243.578 74.563,248.263 77.268,248.666 77.497 C 249.588 78.023,314.442 115.433,315.437 116.014 C 320.634 119.045,333.490 126.474,338.880 129.561 C 340.549 130.517,342.108 131.426,342.344 131.580 C 342.727 131.831,342.942 131.764,344.333 130.960 C 348.785 128.386,356.403 123.987,361.800 120.873 C 365.139 118.946,369.990 116.147,372.580 114.652 C 375.170 113.156,378.608 111.178,380.220 110.255 C 381.832 109.331,384.233 107.941,385.557 107.164 C 386.881 106.388,388.294 105.568,388.697 105.342 C 391.240 103.916,399.523 99.121,399.744 98.946 C 400.041 98.713,400.036 98.709,398.093 97.670 C 397.473 97.338,396.918 96.996,396.860 96.909 C 396.803 96.822,396.426 96.602,396.023 96.420 C 395.620 96.238,394.914 95.853,394.453 95.564 C 393.555 95.000,392.417 94.340,390.581 93.318 C 389.948 92.965,389.398 92.594,389.360 92.492 C 389.321 92.391,389.115 92.308,388.901 92.308 C 388.687 92.308,388.459 92.222,388.394 92.117 C 388.329 92.012,387.547 91.520,386.655 91.023 C 385.764 90.527,384.882 90.024,384.697 89.906 C 384.511 89.788,383.899 89.430,383.336 89.110 C 382.773 88.790,381.889 88.282,381.371 87.981 C 380.853 87.680,380.147 87.279,379.801 87.089 C 379.456 86.900,378.938 86.597,378.650 86.416 C 377.992 86.003,374.959 84.243,374.085 83.769 C 373.725 83.572,372.613 82.941,371.615 82.365 C 370.617 81.790,369.425 81.108,368.965 80.851 C 368.506 80.593,368.024 80.297,367.895 80.193 C 367.766 80.088,367.002 79.651,366.196 79.222 C 364.767 78.461,363.692 77.828,362.201 76.871 C 361.798 76.612,361.338 76.400,361.180 76.400 C 361.022 76.400,360.862 76.316,360.823 76.213 C 360.753 76.023,358.971 74.964,357.823 74.428 C 357.478 74.267,356.947 73.940,356.644 73.702 C 356.341 73.463,355.870 73.172,355.598 73.053 C 355.325 72.935,354.631 72.555,354.055 72.208 C 353.480 71.862,352.844 71.522,352.643 71.453 C 352.441 71.384,352.276 71.244,352.276 71.143 C 352.276 71.041,352.185 70.958,352.074 70.958 C 351.836 70.958,349.583 69.711,347.567 68.464 C 347.106 68.179,346.211 67.671,345.578 67.334 C 344.449 66.735,343.358 66.087,341.897 65.149 C 341.494 64.890,341.068 64.678,340.950 64.678 C 340.832 64.678,340.427 64.443,340.050 64.155 C 339.673 63.867,339.279 63.628,339.174 63.623 C 339.070 63.618,338.325 63.193,337.520 62.679 C 336.714 62.165,335.913 61.683,335.740 61.607 C 335.568 61.531,334.663 61.014,333.730 60.457 C 332.796 59.901,331.977 59.445,331.909 59.445 C 331.840 59.445,331.366 59.163,330.854 58.817 C 330.342 58.472,329.826 58.189,329.707 58.189 C 329.588 58.189,329.361 58.059,329.201 57.900 C 329.042 57.740,328.494 57.400,327.983 57.143 C 327.472 56.886,326.889 56.531,326.688 56.353 C 326.486 56.176,326.321 56.086,326.321 56.153 C 326.321 56.276,324.115 55.025,323.680 54.656 C 323.551 54.546,322.986 54.211,322.424 53.911 C 321.862 53.611,321.120 53.195,320.774 52.986 C 319.981 52.507,318.246 51.520,317.425 51.080 C 317.080 50.895,316.532 50.567,316.207 50.351 C 315.613 49.956,315.248 49.747,313.407 48.748 C 312.854 48.448,312.072 48.003,311.669 47.759 C 311.266 47.515,310.513 47.072,309.995 46.775 C 309.477 46.478,308.488 45.909,307.797 45.510 C 307.106 45.112,306.400 44.726,306.227 44.653 C 306.054 44.580,305.772 44.406,305.599 44.265 C 305.426 44.125,304.814 43.747,304.239 43.425 C 302.925 42.690,300.027 41.028,297.042 39.299 C 295.431 38.366,293.748 37.414,292.412 36.682 C 291.664 36.272,290.816 35.775,290.529 35.577 C 289.749 35.042,288.673 34.415,287.441 33.780 C 286.837 33.468,286.342 33.134,286.342 33.038 C 286.342 32.941,286.185 32.862,285.992 32.862 C 285.800 32.862,285.494 32.730,285.312 32.568 C 285.130 32.407,284.228 31.876,283.307 31.389 C 282.386 30.903,281.491 30.389,281.319 30.248 C 281.146 30.108,280.557 29.774,280.010 29.507 C 279.464 29.239,279.016 28.952,279.016 28.869 C 279.016 28.785,278.757 28.615,278.441 28.490 C 278.124 28.365,277.394 27.984,276.818 27.644 C 276.243 27.304,275.301 26.772,274.725 26.463 C 274.150 26.153,273.632 25.842,273.574 25.771 C 273.480 25.654,272.616 25.161,271.239 24.437 C 270.966 24.293,270.461 23.979,270.117 23.739 C 269.774 23.499,269.336 23.246,269.145 23.177 C 268.954 23.109,268.168 22.669,267.397 22.201 C 266.626 21.733,265.949 21.350,265.893 21.350 C 265.836 21.350,265.539 21.173,265.234 20.956 C 264.928 20.739,264.019 20.209,263.213 19.779 C 261.782 19.014,260.701 18.378,259.218 17.425 C 258.815 17.166,258.348 16.954,258.180 16.954 C 258.013 16.954,257.875 16.875,257.875 16.777 C 257.875 16.679,257.485 16.423,257.008 16.208 C 256.530 15.993,256.029 15.706,255.894 15.571 C 255.759 15.436,255.184 15.074,254.616 14.766 C 253.313 14.061,251.225 12.872,248.728 11.414 C 247.161 10.499,246.678 10.220,245.178 9.365 C 244.208 8.812,243.877 8.624,243.066 8.165 C 242.865 8.052,242.323 7.756,241.863 7.509 C 241.402 7.262,240.979 6.991,240.921 6.907 C 240.863 6.822,240.345 6.502,239.770 6.196 C 238.791 5.676,238.232 5.361,236.264 4.222 C 235.832 3.972,235.126 3.569,234.694 3.327 C 234.262 3.084,233.815 2.811,233.700 2.719 C 233.585 2.627,233.066 2.323,232.548 2.044 C 231.151 1.290,229.985 0.614,229.519 0.289 C 228.927 -0.125,228.158 -0.067,227.316 0.457 M200.247 214.207 C 184.610 223.230,171.800 230.689,171.780 230.783 C 171.759 230.877,172.967 231.656,174.464 232.514 C 175.960 233.371,178.080 234.591,179.173 235.224 C 180.267 235.857,182.339 237.054,183.778 237.883 C 185.217 238.712,187.666 240.125,189.220 241.022 C 190.774 241.920,193.223 243.332,194.662 244.161 C 196.102 244.990,198.503 246.375,200.000 247.238 C 201.497 248.102,204.275 249.704,206.175 250.799 C 208.074 251.894,210.570 253.338,211.722 254.007 C 212.873 254.677,214.710 255.741,215.803 256.371 C 216.897 257.001,218.993 258.209,220.460 259.056 C 221.928 259.903,224.359 261.299,225.862 262.158 L 228.595 263.719 235.334 259.831 C 239.040 257.693,243.391 255.184,245.003 254.256 C 246.614 253.328,248.687 252.126,249.608 251.584 C 250.529 251.042,258.676 246.340,267.713 241.135 C 276.750 235.929,284.514 231.432,284.965 231.141 L 285.786 230.611 285.070 230.252 C 284.019 229.725,280.637 227.740,280.272 227.437 C 280.099 227.293,279.346 226.864,278.598 226.483 C 277.849 226.102,276.909 225.568,276.508 225.297 C 276.107 225.026,275.691 224.804,275.583 224.804 C 275.475 224.804,275.237 224.672,275.056 224.511 C 274.874 224.349,274.254 223.957,273.679 223.639 C 271.707 222.549,271.325 222.329,269.918 221.474 C 269.142 221.003,268.447 220.613,268.372 220.609 C 268.298 220.604,267.577 220.179,266.771 219.665 C 265.965 219.151,265.165 218.677,264.992 218.612 C 264.819 218.547,264.537 218.410,264.364 218.308 C 264.062 218.128,262.888 217.455,261.120 216.447 C 260.659 216.185,260.134 215.838,259.952 215.677 C 259.770 215.516,259.508 215.385,259.368 215.385 C 259.229 215.385,258.859 215.209,258.547 214.995 C 257.917 214.562,255.612 213.221,254.003 212.351 C 253.428 212.039,252.815 211.675,252.643 211.541 C 252.470 211.408,251.999 211.115,251.596 210.890 C 249.784 209.882,247.839 208.768,246.259 207.836 C 245.683 207.497,244.976 207.104,244.689 206.963 C 244.401 206.822,244.118 206.651,244.061 206.582 C 244.003 206.514,243.815 206.394,243.642 206.316 C 243.469 206.237,242.857 205.896,242.282 205.558 C 241.706 205.220,240.835 204.741,240.345 204.494 C 239.856 204.247,239.456 203.958,239.456 203.854 C 239.456 203.749,239.357 203.663,239.237 203.663 C 239.058 203.663,236.737 202.384,235.249 201.465 C 235.063 201.350,234.355 200.948,233.677 200.572 C 232.999 200.196,231.879 199.557,231.188 199.151 C 230.497 198.746,229.767 198.360,229.566 198.293 C 229.364 198.227,229.199 198.089,229.199 197.987 C 229.199 197.535,227.157 198.679,200.247 214.207 " stroke="none" fill="#fbc33b" fill-rule="evenodd"></path><path id="path2" d="M226.374 67.283 C 224.477 68.390,176.187 96.298,169.754 100.004 C 167.855 101.099,164.464 103.054,162.219 104.349 C 159.974 105.643,157.807 106.890,157.405 107.118 C 157.002 107.347,155.824 108.029,154.788 108.634 C 153.752 109.240,152.527 109.949,152.067 110.210 C 151.606 110.471,150.382 111.179,149.346 111.783 C 148.310 112.387,146.803 113.256,145.997 113.713 C 145.191 114.171,143.684 115.042,142.648 115.649 C 141.612 116.257,136.714 119.083,131.763 121.929 C 126.813 124.776,122.245 127.413,121.612 127.789 C 120.979 128.165,118.906 129.366,117.007 130.458 C 115.107 131.550,111.104 133.858,108.111 135.588 C 103.214 138.418,87.427 147.530,74.935 154.737 C 72.344 156.231,68.106 158.680,65.515 160.179 C 58.397 164.299,57.501 164.800,57.260 164.800 C 57.105 164.800,57.038 174.743,57.038 197.929 L 57.038 231.058 58.189 230.416 C 58.823 230.063,59.765 229.535,60.283 229.242 C 60.801 228.949,61.507 228.557,61.852 228.371 C 62.198 228.185,62.746 227.856,63.071 227.640 C 63.823 227.141,64.757 226.615,65.873 226.064 C 66.358 225.825,66.811 225.536,66.882 225.423 C 66.952 225.309,67.309 225.081,67.675 224.917 C 68.042 224.752,68.624 224.448,68.969 224.242 C 72.342 222.225,73.315 221.664,73.440 221.664 C 73.520 221.664,73.814 221.499,74.094 221.298 C 74.373 221.096,75.188 220.602,75.905 220.199 C 77.896 219.080,80.442 217.618,80.819 217.379 C 81.004 217.260,81.616 216.904,82.179 216.586 C 83.468 215.859,84.832 215.064,86.385 214.136 C 87.052 213.738,87.928 213.244,88.331 213.038 C 88.734 212.833,89.487 212.414,90.005 212.106 C 90.523 211.798,91.296 211.350,91.723 211.111 C 92.150 210.871,93.233 210.238,94.130 209.704 C 96.284 208.422,97.427 207.767,98.677 207.099 C 99.244 206.796,99.834 206.423,99.987 206.270 C 100.141 206.116,100.595 205.872,100.996 205.727 C 101.398 205.582,101.727 205.394,101.727 205.310 C 101.727 205.225,101.915 205.097,102.146 205.023 C 102.376 204.950,103.766 204.167,105.235 203.283 C 106.704 202.398,108.423 201.400,109.055 201.064 C 109.687 200.728,110.532 200.233,110.933 199.965 C 111.334 199.696,111.749 199.477,111.855 199.477 C 111.961 199.477,112.357 199.241,112.734 198.953 C 113.112 198.666,113.491 198.430,113.578 198.430 C 113.665 198.430,113.930 198.253,114.168 198.036 C 114.405 197.819,118.885 195.167,124.123 192.143 C 133.153 186.931,134.978 185.878,141.706 181.999 C 143.260 181.103,146.651 179.145,149.241 177.647 C 151.832 176.150,155.505 174.029,157.405 172.936 C 159.304 171.842,163.196 169.596,166.054 167.944 C 168.912 166.292,171.291 164.940,171.340 164.940 C 171.389 164.940,171.429 179.737,171.429 197.823 L 171.429 230.706 172.214 230.238 C 172.645 229.981,173.375 229.557,173.836 229.297 C 174.296 229.037,175.521 228.329,176.557 227.723 C 177.593 227.117,179.618 225.946,181.057 225.121 C 182.496 224.295,184.945 222.883,186.499 221.982 C 188.053 221.081,191.162 219.289,193.407 217.999 C 195.651 216.709,201.115 213.555,205.547 210.989 C 209.979 208.424,215.113 205.457,216.954 204.397 C 218.796 203.337,221.575 201.734,223.129 200.835 C 224.683 199.935,226.520 198.878,227.211 198.486 C 227.902 198.093,228.549 197.692,228.649 197.594 C 228.855 197.393,228.594 66.132,228.388 66.164 C 228.316 66.175,227.410 66.679,226.374 67.283 M373.626 114.199 C 359.178 122.532,347.169 129.462,346.939 129.600 C 345.109 130.690,343.009 131.868,342.893 131.868 C 342.816 131.868,342.777 146.753,342.806 164.946 L 342.860 198.024 343.853 197.457 C 345.765 196.367,346.959 195.675,349.451 194.214 C 351.971 192.737,358.516 188.974,360.384 187.930 C 360.932 187.623,361.476 187.288,361.591 187.187 C 361.706 187.085,361.956 186.942,362.147 186.869 C 362.338 186.796,363.139 186.339,363.926 185.853 C 364.714 185.367,365.782 184.747,366.300 184.475 C 366.818 184.202,367.572 183.777,367.975 183.530 C 368.668 183.104,369.083 182.862,371.324 181.574 C 371.842 181.277,372.737 180.757,373.312 180.419 C 373.888 180.082,374.736 179.605,375.196 179.360 C 375.891 178.990,378.229 177.624,379.487 176.851 C 379.660 176.745,380.037 176.547,380.324 176.410 C 380.612 176.274,380.989 176.048,381.162 175.909 C 381.334 175.771,382.115 175.314,382.895 174.895 C 383.676 174.476,385.230 173.584,386.349 172.913 C 387.468 172.243,388.854 171.442,389.430 171.134 C 390.005 170.827,391.371 170.046,392.465 169.400 C 393.558 168.754,394.736 168.071,395.081 167.883 C 395.426 167.695,395.945 167.384,396.232 167.193 C 396.520 167.002,397.325 166.535,398.021 166.154 C 398.717 165.774,399.448 165.365,399.644 165.245 C 399.979 165.041,399.998 162.947,399.948 132.037 L 399.895 99.047 373.626 114.199 M283.098 232.420 C 279.650 234.403,275.599 236.742,273.365 238.039 C 271.342 239.213,267.863 241.221,263.056 243.989 C 258.082 246.854,250.317 251.335,247.514 252.959 C 246.363 253.626,244.220 254.864,242.752 255.710 C 238.430 258.200,234.890 260.245,232.653 261.542 C 231.502 262.210,230.089 263.003,229.513 263.305 L 228.467 263.853 228.520 296.784 C 228.562 323.106,228.520 329.694,228.310 329.610 C 228.166 329.552,215.332 322.160,199.791 313.184 L 171.533 296.863 171.481 362.700 C 171.452 398.910,171.479 428.587,171.542 428.650 C 171.605 428.713,171.817 428.666,172.014 428.544 C 172.210 428.423,172.936 428.012,173.626 427.631 C 174.317 427.251,174.914 426.859,174.952 426.761 C 174.990 426.663,175.171 426.583,175.354 426.583 C 175.537 426.583,175.835 426.449,176.017 426.286 C 176.343 425.994,177.219 425.479,179.278 424.371 C 179.853 424.061,180.381 423.719,180.450 423.611 C 180.519 423.503,180.711 423.396,180.875 423.371 C 181.040 423.347,181.469 423.118,181.829 422.862 C 182.188 422.606,182.531 422.397,182.590 422.397 C 182.649 422.397,183.435 421.960,184.336 421.426 C 185.775 420.575,191.563 417.231,193.616 416.066 C 194.019 415.837,194.599 415.472,194.904 415.255 C 195.210 415.039,195.604 414.861,195.781 414.861 C 195.958 414.861,196.157 414.775,196.222 414.669 C 196.287 414.563,196.787 414.220,197.333 413.907 C 198.666 413.141,200.073 412.352,200.837 411.940 C 201.183 411.754,201.731 411.425,202.056 411.209 C 202.718 410.769,203.621 410.257,204.710 409.703 C 205.113 409.499,205.596 409.205,205.783 409.051 C 206.100 408.792,206.808 408.391,208.373 407.584 C 208.718 407.406,209.278 407.067,209.617 406.831 C 210.204 406.423,210.953 405.998,212.350 405.284 C 212.695 405.107,213.119 404.848,213.291 404.709 C 213.464 404.570,214.218 404.128,214.966 403.726 C 216.287 403.018,219.354 401.254,219.990 400.838 C 220.162 400.724,220.727 400.394,221.245 400.105 C 222.393 399.463,223.757 398.669,225.370 397.705 C 226.037 397.306,226.913 396.817,227.316 396.618 C 227.718 396.418,228.213 396.122,228.414 395.959 C 228.760 395.679,228.781 393.846,228.781 362.804 C 228.781 326.240,228.639 329.750,230.141 329.042 C 230.487 328.880,230.911 328.638,231.083 328.505 C 231.256 328.373,232.057 327.910,232.862 327.477 C 233.668 327.044,234.476 326.560,234.658 326.401 C 234.840 326.242,235.099 326.112,235.234 326.112 C 235.368 326.112,235.479 326.002,235.479 325.868 C 235.479 325.733,235.538 325.683,235.610 325.755 C 235.682 325.827,236.146 325.608,236.641 325.267 C 237.136 324.927,237.759 324.553,238.027 324.436 C 238.295 324.319,238.844 324.023,239.246 323.778 C 239.649 323.533,240.403 323.097,240.921 322.809 C 241.439 322.520,242.098 322.129,242.386 321.938 C 242.674 321.747,243.145 321.474,243.433 321.331 C 243.721 321.189,244.427 320.792,245.003 320.451 C 245.578 320.109,246.285 319.717,246.572 319.580 C 246.860 319.442,247.378 319.137,247.723 318.901 C 248.418 318.426,249.691 317.686,250.654 317.198 C 250.999 317.023,251.800 316.564,252.433 316.177 C 253.066 315.791,254.103 315.194,254.736 314.851 C 255.369 314.507,256.403 313.886,257.033 313.471 C 257.664 313.056,258.252 312.716,258.340 312.716 C 258.428 312.716,259.182 312.292,260.014 311.774 C 260.847 311.256,261.594 310.832,261.675 310.832 C 261.756 310.832,262.559 310.384,263.459 309.835 C 264.360 309.287,265.332 308.721,265.620 308.577 C 265.908 308.432,266.614 308.020,267.190 307.660 C 267.766 307.300,268.613 306.799,269.074 306.547 C 270.071 306.001,270.973 305.479,272.527 304.552 C 273.161 304.174,274.055 303.659,274.516 303.407 C 275.561 302.835,276.493 302.295,277.970 301.407 C 278.603 301.026,279.451 300.534,279.853 300.313 C 281.551 299.382,281.965 299.145,283.794 298.062 L 285.714 296.926 285.714 264.004 C 285.714 245.898,285.644 231.086,285.557 231.089 C 285.471 231.092,284.364 231.691,283.098 232.420 " stroke="none" fill="#ec8c1c" fill-rule="evenodd"></path><path id="path3" d="M342.597 165.044 C 342.567 183.176,342.614 198.012,342.700 198.012 C 342.786 198.012,342.857 183.176,342.857 165.044 C 342.857 146.913,342.811 132.077,342.754 132.077 C 342.697 132.077,342.626 146.913,342.597 165.044 M170.885 165.181 C 170.793 165.331,170.828 165.366,170.978 165.274 C 171.160 165.161,171.219 173.200,171.219 197.987 C 171.219 216.061,171.290 230.893,171.376 230.946 C 171.463 231.000,171.509 216.170,171.480 197.992 C 171.447 177.671,171.351 164.940,171.230 164.940 C 171.123 164.940,170.967 165.049,170.885 165.181 M134.328 186.200 C 133.545 186.625,133.593 186.802,134.380 186.395 C 134.725 186.216,135.008 186.025,135.008 185.971 C 135.008 185.836,134.985 185.843,134.328 186.200 M228.362 296.711 L 228.362 329.476 227.891 329.248 C 227.439 329.028,227.436 329.032,227.827 329.345 C 228.050 329.524,228.309 329.670,228.402 329.670 C 228.495 329.670,228.571 314.882,228.571 296.808 C 228.571 278.734,228.524 263.946,228.467 263.946 C 228.409 263.946,228.362 278.690,228.362 296.711 M171.323 362.742 C 171.323 399.063,171.347 413.922,171.376 395.761 C 171.406 377.601,171.406 347.883,171.376 329.723 C 171.347 311.562,171.323 326.421,171.323 362.742 " stroke="none" fill="#ec6c25" fill-rule="evenodd"></path><path id="path4" d="M223.496 68.775 C 222.713 69.199,222.761 69.376,223.548 68.969 C 223.893 68.791,224.176 68.600,224.176 68.545 C 224.176 68.410,224.153 68.418,223.496 68.775 M220.565 70.449 C 219.783 70.874,219.830 71.051,220.617 70.644 C 220.963 70.465,221.245 70.274,221.245 70.220 C 221.245 70.085,221.223 70.093,220.565 70.449 M208.634 77.357 C 207.852 77.781,207.899 77.958,208.687 77.551 C 209.032 77.372,209.314 77.182,209.314 77.127 C 209.314 76.992,209.292 77.000,208.634 77.357 M203.192 80.496 C 202.410 80.921,202.457 81.098,203.244 80.691 C 203.590 80.512,203.872 80.321,203.872 80.267 C 203.872 80.132,203.850 80.140,203.192 80.496 M200.262 82.171 C 199.479 82.596,199.527 82.772,200.314 82.365 C 200.659 82.187,200.942 81.996,200.942 81.941 C 200.942 81.807,200.919 81.814,200.262 82.171 M188.331 89.078 C 187.548 89.503,187.596 89.680,188.383 89.273 C 188.728 89.094,189.011 88.903,189.011 88.849 C 189.011 88.714,188.988 88.722,188.331 89.078 M182.889 92.218 C 182.106 92.643,182.154 92.819,182.941 92.412 C 183.286 92.234,183.569 92.043,183.569 91.988 C 183.569 91.854,183.546 91.861,182.889 92.218 M172.840 98.037 C 171.834 98.656,171.553 98.948,172.370 98.525 C 173.027 98.186,173.912 97.554,173.731 97.554 C 173.673 97.554,173.272 97.771,172.840 98.037 M168.027 100.800 C 167.245 101.225,167.292 101.401,168.080 100.994 C 168.425 100.816,168.707 100.625,168.707 100.570 C 168.707 100.436,168.685 100.443,168.027 100.800 M165.097 102.475 C 164.314 102.899,164.362 103.076,165.149 102.669 C 165.495 102.490,165.777 102.299,165.777 102.245 C 165.777 102.110,165.755 102.118,165.097 102.475 M393.250 102.684 C 392.467 103.108,392.515 103.285,393.302 102.878 C 393.647 102.699,393.930 102.509,393.930 102.454 C 393.930 102.319,393.907 102.327,393.250 102.684 M388.015 105.686 C 387.178 106.222,387.024 106.440,387.755 106.052 C 388.632 105.587,389.048 105.289,388.802 105.304 C 388.687 105.310,388.333 105.482,388.015 105.686 M152.695 109.681 C 152.350 109.910,152.161 110.095,152.276 110.093 C 152.486 110.090,153.624 109.274,153.428 109.268 C 153.370 109.266,153.040 109.452,152.695 109.681 M378.912 110.959 C 378.307 111.311,377.813 111.647,377.813 111.706 C 377.813 111.823,379.674 110.788,380.000 110.490 C 380.355 110.166,380.033 110.305,378.912 110.959 M147.094 112.899 C 146.088 113.517,145.808 113.809,146.625 113.386 C 147.281 113.047,148.166 112.415,147.985 112.415 C 147.928 112.415,147.527 112.633,147.094 112.899 M372.946 114.405 C 372.164 114.830,372.211 115.007,372.998 114.600 C 373.344 114.421,373.626 114.230,373.626 114.176 C 373.626 114.041,373.604 114.049,372.946 114.405 M141.652 116.038 C 140.646 116.657,140.365 116.949,141.183 116.526 C 141.839 116.187,142.724 115.555,142.543 115.555 C 142.486 115.555,142.084 115.772,141.652 116.038 M368.237 117.125 C 367.747 117.419,367.347 117.708,367.347 117.768 C 367.347 117.881,368.759 117.079,369.116 116.764 C 369.475 116.446,369.140 116.584,368.237 117.125 M358.085 122.987 C 357.302 123.412,357.350 123.589,358.137 123.182 C 358.482 123.003,358.765 122.812,358.765 122.758 C 358.765 122.623,358.743 122.630,358.085 122.987 M355.154 124.662 C 354.372 125.086,354.419 125.263,355.207 124.856 C 355.552 124.677,355.835 124.487,355.835 124.432 C 355.835 124.297,355.812 124.305,355.154 124.662 M352.643 126.127 C 351.860 126.552,351.908 126.728,352.695 126.321 C 353.040 126.143,353.323 125.952,353.323 125.897 C 353.323 125.763,353.300 125.770,352.643 126.127 M121.348 127.760 C 120.343 128.378,120.062 128.670,120.879 128.248 C 121.535 127.909,122.420 127.277,122.240 127.276 C 122.182 127.276,121.781 127.494,121.348 127.760 M345.735 130.104 C 344.953 130.529,345.000 130.705,345.788 130.298 C 346.133 130.120,346.415 129.929,346.415 129.874 C 346.415 129.740,346.393 129.747,345.735 130.104 M114.024 131.988 C 113.242 132.412,113.289 132.589,114.076 132.182 C 114.422 132.004,114.704 131.813,114.704 131.758 C 114.704 131.623,114.682 131.631,114.024 131.988 M105.651 136.802 C 104.869 137.227,104.917 137.403,105.704 136.996 C 106.049 136.818,106.332 136.627,106.332 136.572 C 106.332 136.438,106.309 136.445,105.651 136.802 M103.140 138.267 C 102.357 138.692,102.405 138.869,103.192 138.462 C 103.537 138.283,103.820 138.092,103.820 138.038 C 103.820 137.903,103.797 137.910,103.140 138.267 M100.209 139.942 C 99.427 140.366,99.474 140.543,100.262 140.136 C 100.607 139.957,100.890 139.767,100.890 139.712 C 100.890 139.577,100.867 139.585,100.209 139.942 M85.348 148.524 C 84.565 148.948,84.613 149.125,85.400 148.718 C 85.746 148.539,86.028 148.349,86.028 148.294 C 86.028 148.159,86.006 148.167,85.348 148.524 M79.276 152.041 C 78.270 152.659,77.990 152.951,78.807 152.528 C 79.463 152.189,80.348 151.557,80.167 151.557 C 80.110 151.557,79.709 151.774,79.276 152.041 M69.857 157.483 C 68.851 158.101,68.571 158.393,69.388 157.970 C 70.044 157.631,70.929 156.999,70.748 156.999 C 70.691 156.999,70.290 157.217,69.857 157.483 M60.438 162.925 C 59.432 163.543,59.151 163.835,59.969 163.413 C 60.625 163.073,61.510 162.441,61.329 162.441 C 61.272 162.441,60.870 162.659,60.438 162.925 M226.635 198.759 C 225.853 199.184,225.900 199.361,226.688 198.953 C 227.033 198.775,227.316 198.584,227.316 198.529 C 227.316 198.395,227.293 198.402,226.635 198.759 M220.670 202.220 C 220.065 202.572,219.571 202.909,219.571 202.968 C 219.571 203.084,221.432 202.049,221.758 201.751 C 222.113 201.428,221.791 201.566,220.670 202.220 M214.704 205.662 C 213.812 206.182,213.082 206.659,213.082 206.722 C 213.082 206.785,213.388 206.653,213.762 206.429 C 214.137 206.204,214.890 205.764,215.437 205.450 C 215.984 205.136,216.431 204.841,216.431 204.794 C 216.431 204.658,216.404 204.672,214.704 205.662 M191.470 219.063 C 190.688 219.487,190.736 219.664,191.523 219.257 C 191.868 219.078,192.151 218.888,192.151 218.833 C 192.151 218.698,192.128 218.706,191.470 219.063 M190.005 219.900 C 189.223 220.324,189.270 220.501,190.058 220.094 C 190.403 219.916,190.686 219.725,190.686 219.670 C 190.686 219.535,190.663 219.543,190.005 219.900 M184.563 223.040 C 183.781 223.464,183.828 223.641,184.615 223.234 C 184.961 223.055,185.243 222.865,185.243 222.810 C 185.243 222.675,185.221 222.683,184.563 223.040 M180.586 225.342 C 179.804 225.767,179.851 225.943,180.638 225.536 C 180.984 225.358,181.266 225.167,181.266 225.112 C 181.266 224.978,181.244 224.985,180.586 225.342 M179.121 226.179 C 178.338 226.604,178.386 226.781,179.173 226.374 C 179.519 226.195,179.801 226.004,179.801 225.950 C 179.801 225.815,179.779 225.823,179.121 226.179 M172.894 229.846 C 172.546 230.130,172.511 230.201,172.789 230.058 C 173.472 229.705,173.850 229.415,173.626 229.417 C 173.511 229.417,173.182 229.611,172.894 229.846 M285.086 231.094 L 284.563 231.513 285.139 231.265 C 285.455 231.128,285.714 230.937,285.714 230.840 C 285.714 230.602,285.685 230.613,285.086 231.094 M283.778 231.831 C 282.996 232.255,283.043 232.432,283.830 232.025 C 284.176 231.847,284.458 231.656,284.458 231.601 C 284.458 231.466,284.436 231.474,283.778 231.831 M279.801 234.133 C 279.019 234.558,279.066 234.735,279.853 234.328 C 280.199 234.149,280.481 233.958,280.481 233.904 C 280.481 233.769,280.459 233.776,279.801 234.133 M278.336 234.971 C 277.553 235.395,277.601 235.572,278.388 235.165 C 278.734 234.986,279.016 234.795,279.016 234.741 C 279.016 234.606,278.994 234.614,278.336 234.971 M274.776 237.022 C 273.770 237.640,273.489 237.932,274.307 237.510 C 274.963 237.171,275.848 236.539,275.667 236.539 C 275.610 236.539,275.208 236.756,274.776 237.022 M272.894 238.110 C 272.111 238.535,272.159 238.712,272.946 238.305 C 273.291 238.126,273.574 237.935,273.574 237.881 C 273.574 237.746,273.552 237.753,272.894 238.110 M270.799 239.325 C 269.793 239.943,269.512 240.235,270.330 239.812 C 270.986 239.473,271.871 238.841,271.690 238.841 C 271.633 238.841,271.231 239.059,270.799 239.325 M268.917 240.413 C 268.134 240.837,268.182 241.014,268.969 240.607 C 269.314 240.428,269.597 240.238,269.597 240.183 C 269.597 240.048,269.575 240.056,268.917 240.413 M267.452 241.250 C 266.669 241.675,266.717 241.851,267.504 241.444 C 267.849 241.266,268.132 241.075,268.132 241.020 C 268.132 240.886,268.109 240.893,267.452 241.250 M265.357 242.464 C 264.351 243.083,264.070 243.375,264.887 242.952 C 265.544 242.613,266.429 241.981,266.248 241.981 C 266.190 241.981,265.789 242.198,265.357 242.464 M263.475 243.552 C 262.692 243.977,262.740 244.154,263.527 243.747 C 263.872 243.568,264.155 243.377,264.155 243.323 C 264.155 243.188,264.132 243.196,263.475 243.552 M259.914 245.604 C 258.909 246.222,258.628 246.514,259.445 246.092 C 260.101 245.753,260.987 245.121,260.806 245.120 C 260.748 245.120,260.347 245.338,259.914 245.604 M258.032 246.692 C 257.250 247.117,257.298 247.294,258.085 246.886 C 258.430 246.708,258.713 246.517,258.713 246.462 C 258.713 246.328,258.690 246.335,258.032 246.692 M254.472 248.744 C 253.467 249.362,253.186 249.654,254.003 249.231 C 254.659 248.892,255.544 248.260,255.364 248.260 C 255.306 248.260,254.905 248.478,254.472 248.744 M252.590 249.832 C 251.808 250.256,251.855 250.433,252.643 250.026 C 252.988 249.848,253.271 249.657,253.271 249.602 C 253.271 249.467,253.248 249.475,252.590 249.832 M247.148 252.972 C 246.366 253.396,246.413 253.573,247.200 253.166 C 247.546 252.987,247.828 252.796,247.828 252.742 C 247.828 252.607,247.806 252.615,247.148 252.972 M245.053 254.186 C 244.048 254.804,243.767 255.096,244.584 254.674 C 245.240 254.334,246.125 253.703,245.945 253.702 C 245.887 253.702,245.486 253.920,245.053 254.186 M239.611 257.326 C 238.605 257.944,238.325 258.236,239.142 257.813 C 239.798 257.474,240.683 256.842,240.502 256.842 C 240.445 256.842,240.044 257.060,239.611 257.326 M237.729 258.414 C 236.946 258.838,236.994 259.015,237.781 258.608 C 238.127 258.429,238.409 258.239,238.409 258.184 C 238.409 258.049,238.387 258.057,237.729 258.414 M234.169 260.465 C 233.163 261.084,232.882 261.376,233.700 260.953 C 234.356 260.614,235.241 259.982,235.060 259.982 C 235.003 259.982,234.601 260.199,234.169 260.465 M232.287 261.554 C 231.504 261.978,231.552 262.155,232.339 261.748 C 232.684 261.569,232.967 261.378,232.967 261.324 C 232.967 261.189,232.945 261.197,232.287 261.554 M230.351 262.690 C 230.005 262.918,229.817 263.104,229.932 263.102 C 230.142 263.099,231.280 262.283,231.083 262.277 C 231.026 262.275,230.696 262.461,230.351 262.690 " stroke="none" fill="#f29f2a" fill-rule="evenodd"></path></g></svg>